<?xml version="1.0" standalone="no"?>
<!DOCTYPE svg PUBLIC "-//W3C//DTD SVG 1.1//EN" "http://www.w3.org/Graphics/SVG/1.1/DTD/svg11.dtd" >
<svg xmlns="http://www.w3.org/2000/svg">
<metadata>Generated by IcoMoon</metadata>
<defs>
<font id="icomoon" horiz-adv-x="1024">
<font-face units-per-em="1024" ascent="960" descent="-64" />
<missing-glyph horiz-adv-x="1024" />
<glyph unicode="&#x20;" horiz-adv-x="512" d="" />
<glyph unicode="&#xe900;" glyph-name="add" d="M914.071 539.429v-109.714q0-22.857-16-38.857t-38.857-16h-237.714v-237.714q0-22.857-16-38.857t-38.857-16h-109.714q-22.857 0-38.857 16t-16 38.857v237.714h-237.714q-22.857 0-38.857 16t-16 38.857v109.714q0 22.857 16 38.857t38.857 16h237.714v237.714q0 22.857 16 38.857t38.857 16h109.714q22.857 0 38.857-16t16-38.857v-237.714h237.714q22.857 0 38.857-16t16-38.857z" />
<glyph unicode="&#xe901;" glyph-name="area-chart" d="M1024.25 127.922v-64.016h-1024.25v768.187h64.016v-704.172h960.235zM832.203 640.047l128.032-448.109h-832.203v288.070l224.055 288.070 288.070-288.070z" />
<glyph unicode="&#xe902;" glyph-name="arrow-down" d="M804.643 557.714q0-14.857-10.857-25.714l-256-256q-10.857-10.857-25.714-10.857t-25.714 10.857l-256 256q-10.857 10.857-10.857 25.714t10.857 25.714 25.714 10.857h512q14.857 0 25.714-10.857t10.857-25.714z" />
<glyph unicode="&#xe903;" glyph-name="at" d="M614.057 328.31h-2.775c-26.993-88.003-80.061-131.999-159.181-131.999-50.668 0-91.433 18.662-122.296 56.013-30.884 37.345-46.316 87.629-46.316 150.861 0 83.558 21.356 152.986 64.061 208.271 42.711 55.27 98.816 82.918 168.335 82.918 26.624 0 50.376-6.845 71.276-20.521 20.884-13.686 34.289-30.879 40.212-51.579h2.217c0.737 10.348 2.586 31.611 5.55 63.785h69.325c-17.382-203.745-26.066-307.461-26.066-311.153 0-76.539 22.001-114.811 66.007-114.811 39.941 0 73.114 21.632 99.548 64.891 26.429 43.259 39.66 99.287 39.66 168.059 0 101.678-32.169 184.694-96.507 249.032s-153.457 96.507-267.336 96.507c-109.824 0-200.602-38.461-272.328-115.364-71.741-76.913-107.602-173.051-107.602-288.415 0-113.521 34.109-205.128 102.328-274.826 68.219-69.693 160.2-104.545 275.937-104.545 91.325 0 169.344 15.16 234.051 45.476v-68.777c-63.969-27.356-143.836-41.042-239.596-41.042-134.6 0-243.031 40.586-325.299 121.743-82.278 81.157-123.412 187.372-123.412 318.633 0 135.337 43.167 247.552 129.51 336.666 86.333 89.108 196.618 133.668 330.844 133.668 125.716 0 229.811-37.35 312.264-112.036 82.442-74.691 123.684-172.129 123.684-292.296 0-88.003-21.734-160.205-65.172-216.586-43.448-56.392-96.415-84.577-158.909-84.577-80.978 0.005-121.656 44.001-122.015 132.004zM514.77 630.036c-45.855 0-82.918-21.821-111.206-65.449-28.283-43.633-42.429-97.807-42.429-162.514 0-43.633 9.513-78.019 28.564-103.163 19.041-25.144 44.457-37.714 76.268-37.714 45.839 0 82.171 22.83 108.984 68.5 26.803 45.665 40.212 106.214 40.212 181.647-0.005 79.119-33.475 118.692-100.393 118.692z" />
<glyph unicode="&#xe904;" glyph-name="attachment" d="M573.81 11.967c-29.27-29.271-63.669-43.906-103.198-43.905-39.528-0.001-73.927 14.634-103.199 43.905-33.773 33.773-50.66 75.678-50.66 125.713l-0.375 582.788c0.5 57.040 20.264 105.074 59.292 144.101 39.779 39.778 87.312 59.793 142.601 60.043s102.823-19.513 142.602-59.292c39.527-39.528 59.542-87.813 60.043-144.853l-0.376-454.446c-0.001-5.003-1.502-9.007-4.505-12.008-4.002-4.003-13.633-6.004-28.895-6.002-15.26 0-24.893 2-28.895 6.002-3.254 3.253-4.878 7.382-4.878 12.384l0.373 455.197c-0.5 39.027-13.509 71.301-39.026 96.818-26.52 26.519-58.292 39.528-95.317 39.028-37.027-0.5-68.8-14.010-95.318-40.529-26.269-26.27-39.402-58.417-39.402-96.445l-0.375-582.787c0-31.521 10.257-57.541 30.771-78.054 16.012-16.012 34.525-24.018 55.54-24.018s39.527 8.006 55.539 24.018c20.514 20.513 30.771 46.532 30.771 78.054v436.060c-0.499 12.509-5.004 23.017-13.511 31.523-7.254 7.255-15.634 10.882-25.142 10.882s-17.888-3.626-25.143-10.882c-8.007-8.006-12.259-18.514-12.759-31.523v-307.717c0-5.003-1.501-9.007-4.503-12.008-4.003-4.003-13.76-6.005-29.271-6.005s-25.267 2.002-29.271 6.005c-3.002 3.001-4.503 7.005-4.502 12.008v307.717c-0.5 31.022 10.257 57.542 32.273 79.557 20.514 20.515 45.032 30.772 73.552 30.773 28.519 0 53.036-10.257 73.552-30.773 22.016-22.015 32.772-48.534 32.271-79.556v-436.059c0.501-49.535-16.385-91.439-50.659-125.714v0z" />
<glyph unicode="&#xe905;" glyph-name="ba-chart-s" d="M63.457 896.543h82.207v-897.080h-82.207v897.080zM63.457 81.664h897.080v-82.207h-897.080v82.207zM240.64 540.708h195.226v-364.068h-195.226v364.068zM435.866 540.708c0-53.91-43.703-97.613-97.613-97.613s-97.613 43.703-97.613 97.613c0 53.91 43.703 97.613 97.613 97.613s97.613-43.703 97.613-97.613zM488.627 728.474h195.22v-551.834h-195.22v551.834zM683.853 728.474c0-53.91-43.703-97.613-97.613-97.613s-97.613 43.703-97.613 97.613c0 53.91 43.703 97.613 97.613 97.613s97.613-43.703 97.613-97.613zM736.614 442.68h195.226v-265.631h-195.226v265.631zM931.84 442.68c0-53.91-43.703-97.613-97.613-97.613s-97.613 43.703-97.613 97.613c0 53.91 43.703 97.613 97.613 97.613s97.613-43.703 97.613-97.613z" />
<glyph unicode="&#xe906;" glyph-name="ba-chart" d="M320.078 448v-256.062h-128.032v256.062h128.032zM512.125 704.062v-512.125h-128.032v512.125h128.032zM1024.25 127.922v-64.016h-1024.25v768.187h64.016v-704.172h960.235zM704.172 576.032v-384.094h-128.032v384.094h128.032zM896.219 768.078v-576.141h-128.032v576.141h128.032z" />
<glyph unicode="&#xe907;" glyph-name="bag" d="M46.454 680.96h931.092v-232.96h-931.092v232.96zM46.454 596.48h319.626v-243.2h-319.626v243.2zM657.915 596.48h319.631v-243.2h-319.631v243.2zM92.529 207.872h838.932v-225.413h-838.932v225.413zM92.529 299.52h287.99v-235.32h-287.99v235.32zM643.471 299.52h287.995v-235.32h-287.995v235.32zM419.84 391.68h184.32v-130.56h-184.32v130.56zM273.92 915.2h92.16v-335.36h-92.16v335.36zM657.92 915.2h92.16v-335.36h-92.16v335.36zM307.2 915.2h396.8v-92.16h-396.8v92.16z" />
<glyph unicode="&#xe908;" glyph-name="baobiaoduiyingguanxiweihu" d="M898.801 795.162h-78.996v-69.176h65.244v-691.159h-584.182v44.088h-69.166v-57.856c0-30.648 24.837-55.337 55.337-55.337h611.758c30.582 0 55.265 24.684 55.265 55.337v718.843c0.005 30.49-24.678 55.26-55.26 55.26zM796.861 157.363v718.746c0 30.664-24.847 55.352-55.337 55.352h-611.697c-30.505 0-55.337-24.684-55.337-55.352v-718.746c0-30.653 24.837-55.342 55.337-55.342h611.697c30.49 0.005 55.337 24.689 55.337 55.342zM727.685 171.126h-584.1v691.236h584.1v-691.236zM206.618 676.618h458.496c9.902 0 17.92 7.634 17.92 16.978v93.783c0 9.349-8.018 17.055-17.92 17.055h-458.496c-9.82 0-17.838-7.706-17.838-17.055v-93.783c0-9.344 8.018-16.978 17.838-16.978zM193.336 593.219h489.697v-45.501h-489.697v45.501zM193.336 498.975h489.697v-45.43h-489.697v45.43zM192.236 392.392h489.62v-45.507h-489.62v45.507zM192.236 298.138h489.62v-45.501h-489.62v45.501z" />
<glyph unicode="&#xe909;" glyph-name="bar-m" d="M403.569 611.036h249.585v-412.892h-249.585v412.892zM707.85 700.396h249.59v-502.252h-249.59v502.252zM343.562 198.077h-48.548v296.146h-4.854l-58.255-296.146h-38.84l-58.26 296.146h-4.859v-296.146h-48.548v415.089h75.249l53.402-274.299h4.854l53.402 274.299h75.249v-415.089z" />
<glyph unicode="&#xe90a;" glyph-name="bar-y" d="M398.961 611.036h249.585v-412.892h-249.585v412.892zM703.242 700.396h249.59v-502.252h-249.59v502.252zM348.15 613.166l-114.089-228.173v-186.916h-55.828v186.916l-114.089 228.173h55.828l84.961-177.203h2.427l84.961 177.203h55.828z" />
<glyph unicode="&#xe90b;" glyph-name="bar-zuhe" d="M378.481 198.144h249.585v258.022l-249.585-172.728zM628.065 611.036h-249.585v-291.389l249.585 172.718zM74.204 198.144h249.585v84.019l-249.585 116.992zM323.789 523.218h-249.585v-92.022l249.585-116.987zM932.352 700.396h-249.59v-172.739l249.59-116.992zM682.762 198.144h249.59v180.48l-249.59 116.992z" />
<glyph unicode="&#xe90c;" glyph-name="bar" d="M74.204 523.218h249.585v-325.074h-249.585v325.074zM378.481 611.036h249.585v-412.892h-249.585v412.892zM682.762 700.396h249.585v-502.252h-249.585v502.252z" />
<glyph unicode="&#xe90d;" glyph-name="biandian" d="M29.491 541.23h51.169v-452.552h-51.169v452.552zM131.615 541.23h51.164v-452.552h-51.164v452.552zM29.491 541.23h153.288v-51.164h-153.288v51.164zM29.491 441.021h153.288v-51.159h-153.288v51.159zM29.491 338.688h153.288v-51.159h-153.288v51.159zM29.491 239.196h153.288v-51.164h-153.288v51.164zM29.491 138.414h153.288v-51.159h-153.288v51.159zM233.242 540.099h51.169v-452.547h-51.169v452.547zM335.365 540.099h51.164v-452.547h-51.164v452.547zM233.242 540.099h153.288v-51.164h-153.288v51.164zM233.242 439.89h153.288v-51.169h-153.288v51.169zM233.242 337.562h153.288v-51.164h-153.288v51.164zM233.242 238.060h153.288v-51.159h-153.288v51.159zM233.242 137.283h153.288v-51.164h-153.288v51.164zM436.987 539.53h51.169v-452.552h-51.169v452.552zM539.105 539.53h51.169v-452.552h-51.169v452.552zM436.987 539.53h153.288v-51.164h-153.288v51.164zM436.987 439.322h153.288v-51.164h-153.288v51.164zM436.987 336.988h153.288v-51.159h-153.288v51.159zM436.987 237.496h153.288v-51.164h-153.288v51.164zM436.987 136.714h153.288v-51.159h-153.288v51.159zM640.737 538.399h51.164v-452.547h-51.164v452.547zM742.856 538.399h51.169v-452.547h-51.169v452.547zM640.737 538.399h153.288v-51.164h-153.288v51.164zM640.737 438.19h153.288v-51.169h-153.288v51.169zM640.737 335.862h153.288v-51.164h-153.288v51.164zM640.737 236.36h153.288v-51.159h-153.288v51.159zM640.737 135.583h153.288v-51.164h-153.288v51.164zM844.923 539.11h51.169v-452.547h-51.169v452.547zM947.052 539.11h51.164v-452.547h-51.164v452.547zM844.923 539.11h153.288v-51.164h-153.288v51.164zM844.923 438.907h153.288v-51.169h-153.288v51.169zM844.923 336.573h153.288v-51.164h-153.288v51.164zM844.923 237.076h153.288v-51.159h-153.288v51.159zM844.923 136.294h153.288v-51.159h-153.288v51.159zM488.049 869.135h51.169v-330.742h-51.169v330.742zM386.529 642.857h254.208v-51.169h-254.208v51.169zM386.529 744.484h254.208v-51.169h-254.208v51.169z" />
<glyph unicode="&#xe90e;" glyph-name="bmfy" d="M700.851 519.603h-470.81v54.339h433.234c-7.956 17.162-13.466 35.676-16.108 55.112h-417.126v54.339h417.341c2.811 19.456 8.499 37.975 16.64 55.112h-433.981v54.339h472.407c35.082 34.939 83.451 56.535 136.873 56.535h-662.646v-822.088h670.648v434.335c-2.662-0.108-5.32-0.205-8.003-0.205-54.246 0.005-103.265 22.298-138.47 58.184zM793.958 81.812h-563.917v54.339h563.917v-54.339zM793.958 191.252h-563.917v54.339h563.917v-54.339zM793.958 300.708h-563.917v54.328h563.917v-54.328zM793.958 410.148h-563.917v54.344h563.917v-54.344zM847.324 849.382h-8.003c2.683 0 5.345-0.097 8.003-0.205v0.205zM805.151 720.082c0-6.313 1.357-12.396 4.055-18.243 2.703-5.873 9.001-11.489 18.924-16.896v64.876c-5.412 0-10.604-2.493-15.544-7.434-4.966-4.961-7.434-12.396-7.434-22.303zM839.322 832.891c-97.572 0-176.671-79.099-176.671-176.671 0-97.577 79.099-176.671 176.671-176.671 97.577 0 176.671 79.099 176.671 176.671 0 97.577-79.099 176.671-176.671 176.671zM883.543 555.187c-11.72-10.813-23.885-16.22-36.495-16.22v-33.792h-18.918v33.792c-15.334 0-28.616 6.292-39.875 18.924-11.274 12.605-16.896 31.974-16.896 58.122h31.089c0-22.533 3.144-36.726 9.462-42.578 6.292-5.868 11.699-8.786 16.22-8.786v87.854c-21.627 11.699-35.61 22.303-41.902 31.764-6.313 9.462-9.467 20.485-9.467 33.116 0 16.22 4.736 29.501 14.193 39.875 9.462 10.348 21.837 16.43 37.171 18.248v25.672h18.918v-25.682c15.314 0 27.709-6.083 37.171-18.248s14.193-27.264 14.193-45.276h-29.742c0 13.517-2.488 23.188-7.429 29.056-4.966 5.852-9.697 8.786-14.193 8.786v-75.694c14.403-7.224 27.034-16.215 37.847-27.028s16.22-24.33 16.22-40.55c0.005-23.434-5.862-40.54-17.567-51.354zM847.048 641.69v-77.041c5.412 0.886 10.813 3.589 16.22 8.11 5.407 4.495 8.11 13.517 8.11 27.034 0 9.907-2.258 18.017-6.758 24.33-4.516 6.287-10.363 12.16-17.572 17.567z" />
<glyph unicode="&#xe90f;" glyph-name="boy" d="M439.864 307.517c0 21.852 10.081 42.388 27.679 56.366 3.057 2.442 4.434 6.415 3.528 10.22-0.891 3.804-3.901 6.728-7.721 7.542-39.823 8.387-77.353 26.952-108.518 53.673-3.108 2.662-7.542 3.164-11.223 1.28-139.53-72.852-225.408-238.013-229.719-441.8-0.061-2.729 0.983-5.35 2.872-7.265 1.889-1.951 4.49-3.036 7.204-3.036h298.199c4.9 0 9.068 3.517 9.923 8.351l43.018 245.458c0.686 3.866-0.942 7.782-4.173 10.010-19.451 13.527-31.068 35.656-31.068 59.203zM680.315 436.593c-3.661 1.884-8.095 1.382-11.218-1.28-31.135-26.706-68.654-45.271-108.524-53.729-3.82-0.814-6.825-3.753-7.716-7.562-0.906-3.804 0.471-7.782 3.523-10.199 17.603-13.983 27.684-34.499 27.684-56.31 0-23.419-11.525-45.466-30.817-58.926-3.215-2.243-4.818-6.144-4.152-9.994l42.65-245.75c0.835-4.833 5.028-8.351 9.933-8.351h298.348c2.714 0 5.315 1.085 7.199 3.036 1.889 1.915 2.944 4.536 2.877 7.265-4.28 203.766-90.173 368.927-229.786 441.8zM743.711 674.365c0 130.765-103.956 237.138-231.711 237.138-74.522 0-140.749-36.326-183.178-92.396-1.142-0.84-2.396-1.469-3.364-2.601-1.951-2.237-3.231-4.818-4.019-7.491-25.912-38.292-41.206-84.634-41.206-134.646 0-130.785 103.972-237.204 231.767-237.204 127.754-0.005 231.711 106.414 231.711 237.199zM512 861.107c36.49 0 70.42-11.259 98.888-30.433-27.023-2.744-58.568-15.908-106.588-41.6-46.346-24.776-95.959-4.849-125.036 12.119 33.132 36.746 80.307 59.914 132.736 59.914zM512 487.567c-100.014 0-181.366 83.794-181.366 186.798 0 34.258 9.155 66.263 24.847 93.885 23.767-14.454 60.36-31.421 101.356-31.421 21.402 0 43.981 4.628 66.483 16.681 82.473 44.124 101.023 42.9 132.977 28.206 1.5-0.686 3.057-0.783 4.603-1.080 20.378-30.203 32.404-66.796 32.404-106.276 0-103.004-81.326-186.793-181.304-186.793z" />
<glyph unicode="&#xe910;" glyph-name="budget" d="M197.766 10.026c0-13.996-11.346-25.342-25.34-25.342h-96.086c-13.996 0-25.34 11.346-25.34 25.342v875.316c0 13.996 11.346 25.34 25.34 25.34h96.084c13.996 0 25.34-11.346 25.34-25.34v-875.316zM76.34-15.316c-13.994 0-25.34 11.346-25.34 25.342v96.084c0 13.994 11.346 25.34 25.34 25.34h875.318c13.996 0 25.342-11.346 25.342-25.34v-96.084c0-13.996-11.346-25.342-25.342-25.342h-875.318zM383.978 530.152c0-12.436-10.082-22.516-22.516-22.516h-91.944c-12.434 0-22.516 10.082-22.516 22.516v18.764c0 12.436 10.082 22.516 22.516 22.516h91.944c12.434 0 22.516-10.082 22.516-22.516v-18.764zM555.94 491.052c-3.064-12.052-15.32-19.34-27.372-16.276l-89.112 22.652c-12.050 3.062-19.338 15.318-16.276 27.37l4.624 18.184c3.064 12.052 15.318 19.34 27.37 16.276l89.11-22.652c12.050-3.062 19.338-15.318 16.276-27.37l-4.62-18.184zM717.924 356.23c12.294 1.868 23.774-6.59 25.638-18.886l13.784-90.904c1.866-12.292-6.59-23.774-18.884-25.636l-18.552-2.814c-12.294-1.866-23.774 6.592-25.638 18.888l-13.786 90.904c-1.864 12.292 6.594 23.774 18.886 25.636l18.552 2.812zM752.692 642.738c-5.258-17.826-145.422-268.328-471.916-388.416-63.080-87.878 41.282-69.426 41.282-69.426s397.798 142.604 520.702 457.842c-2.814 50.664-38.466 42.218-38.466 42.218s-35.15 5.63-51.602-42.218zM631.3 715.838l243.492 84.8 70.594-238.622z" />
<glyph unicode="&#xe911;" glyph-name="bumenxinxiweihu" d="M936.842 842.204h-848.486c-33.162 0-60.063-26.911-60.063-60.073v-668.283c0-33.142 26.9-60.052 60.063-60.052h848.486c33.167 0 60.063 26.911 60.063 60.052v668.283c0 33.162-26.9 60.073-60.063 60.073zM802.294 759.142h97.152v-93.573h-97.152v93.573zM663.004 759.142h97.101v-93.573h-97.101v93.573zM527.631 759.142h97.137v-93.573h-97.137v93.573zM921.81 128.876h-818.427v446.039h818.427v-446.039z" />
<glyph unicode="&#xe912;" glyph-name="caidanguanli" d="M478.392 712.709h447.949c22.113 0 40.059 17.935 40.059 40.059 0 22.129-17.946 40.059-40.059 40.059h-447.949c-22.129 0-40.059-17.93-40.059-40.059 0-22.124 17.93-40.059 40.059-40.059zM926.341 491.29h-447.949c-22.129 0-40.059-17.935-40.059-40.059 0-22.129 17.93-40.059 40.059-40.059h447.949c22.113 0 40.059 17.93 40.059 40.059 0 22.124-17.946 40.059-40.059 40.059zM926.341 189.010h-447.949c-22.129 0-40.059-17.925-40.059-40.049 0-22.129 17.93-40.059 40.059-40.059h447.949c22.113 0 40.059 17.93 40.059 40.059 0 22.124-17.946 40.049-40.059 40.049zM354.54 556.488c0 0.036 0.005 0.067 0.005 0.102 0 17.101-13.855 30.956-30.95 30.956h-207.585c0 0 0 0-0.005 0s0 0-0.005 0c-17.096 0-30.945-13.86-30.945-30.956v-207.585c0-17.101 13.85-30.961 30.945-30.961 0 0 0 0 0.005 0s0 0 0.005 0h207.585c17.091 0 30.956 13.855 30.956 30.95 0 0.067-0.010 0.128-0.010 0.2v207.293zM146.959 525.64h145.679v-145.69h-145.679v145.69zM323.594 281.892h-207.585c0 0 0 0-0.005 0s0 0-0.005 0c-17.096 0-30.945-13.87-30.945-30.966v-207.585c0-17.101 13.85-30.961 30.945-30.961 0 0 0 0 0.005 0s0 0 0.005 0h207.585c17.091 0 30.956 13.85 30.956 30.945 0 0.005 0 0.005 0 0.005 0 0.005 0 0.010 0 0.010v207.585c0 17.096-13.86 30.966-30.956 30.966zM146.959 219.965h145.679v-145.684h-145.679v145.684zM353.997 878.643l-170.926-170.921-60.974 60.974c-12.416 12.406-32.543 12.406-44.954 0-12.406-12.411-12.406-32.532 0-44.954l82.944-82.944c6.497-6.497 15.104-9.559 23.613-9.257 8.658-0.312 17.418 2.801 24.033 9.411l191.974 191.98c12.626 12.621 12.626 33.085 0 45.706-12.621 12.631-33.085 12.631-45.711 0.005z" />
<glyph unicode="&#xe913;" glyph-name="cesuan" d="M641.203 662.728c0-12.575-10.199-22.774-22.774-22.774h-209.546c-12.59 0-22.789 10.199-22.789 22.774v173.112c0 12.58 10.199 22.784 22.789 22.784h209.546c12.575 0 22.774-10.209 22.774-22.784v-173.112zM641.203 105.129c0-12.564-10.199-22.789-22.774-22.789h-209.546c-12.59 0-22.789 10.225-22.789 22.789v173.112c0 12.585 10.199 22.774 22.789 22.774h209.546c12.575 0 22.774-10.189 22.774-22.774v-173.112zM1017.38 105.129c0-12.564-10.209-22.789-22.774-22.789h-209.572c-12.59 0-22.774 10.225-22.774 22.789v173.112c0 12.585 10.184 22.774 22.774 22.774h209.572c12.564 0 22.774-10.189 22.774-22.774v-173.112zM265.037 105.129c0-12.564-10.194-22.789-22.774-22.789h-209.546c-12.58 0-22.779 10.225-22.779 22.789v173.112c0 12.585 10.199 22.774 22.779 22.774h209.546c12.58 0 22.774-10.189 22.774-22.774v-173.112zM100.618 504.791h826.071v-83.497h-826.071v83.497zM100.618 459.853h73.754v-106.696h-73.754v106.696zM476.774 459.853h73.754v-106.696h-73.754v106.696zM476.774 585.288h73.754v-106.711h-73.754v106.711zM852.941 459.853h73.748v-106.696h-73.748v106.696z" />
<glyph unicode="&#xe914;" glyph-name="chart" d="M58.988 897.116h125.23v-908.692h-125.23v908.692zM58.988 113.654h908.692v-125.23h-908.692v125.23zM241.111 486.482h188.375v-317.46h-188.375v317.46zM480.655 617.354h188.375v-448.333h-188.375v448.333zM720.891 751.043h188.375v-582.011h-188.375v582.011z" />
<glyph unicode="&#xe915;" glyph-name="chat-reply" d="M402.286 740.571q-87.429 0-163.429-29.714t-120.857-80.571-44.857-109.143q0-46.857 30.286-90.286t85.143-75.429l55.429-32-20-48q19.429 11.429 35.429 22.286l25.143 17.714 30.286-5.714q44.571-8 87.429-8 87.429 0 163.429 29.714t120.857 80.571 44.857 109.143-44.857 109.143-120.857 80.571-163.429 29.714zM402.286 813.714q109.143 0 202-39.143t146.571-106.571 53.714-146.857-53.714-146.857-146.571-106.571-202-39.143q-49.143 0-100.571 9.143-70.857-50.286-158.857-73.143-20.571-5.143-49.143-9.143h-1.714q-6.286 0-11.714 4.571t-6.571 12q-0.571 1.714-0.571 3.714t0.286 3.714 1.143 3.429l1.429 2.857t2 3.143 2.286 2.857 2.571 2.857 2.286 2.571q2.857 3.429 13.143 14.286t14.857 16.857 12.857 16.571 14.286 22 11.714 25.143q-70.857 41.143-111.429 101.143t-40.571 128q0 79.429 53.714 146.857t146.571 106.571 202 39.143zM872 145.714q5.714-13.714 11.714-25.143t14.286-22 12.857-16.571 14.857-16.857 13.143-14.286q0.571-0.571 2.286-2.571t2.571-2.857 2.286-2.857 2-3.143l1.429-2.857t1.143-3.429 0.286-3.714-0.571-3.714q-1.714-8-7.429-12.571t-12.571-4q-28.571 4-49.143 9.143-88 22.857-158.857 73.143-51.429-9.143-100.571-9.143-154.857 0-269.714 75.429 33.143-2.286 50.286-2.286 92 0 176.571 25.714t150.857 73.714q71.429 52.571 109.714 121.143t38.286 145.143q0 44-13.143 86.857 73.714-40.571 116.571-101.714t42.857-131.429q0-68.571-40.571-128.286t-111.429-100.857z" />
<glyph unicode="&#xe916;" glyph-name="chat" d="M1024 448q0-99.429-68.571-183.714t-186.286-133.143-257.143-48.857q-40 0-82.857 4.571-113.143-100-262.857-138.286-28-8-65.143-12.571-9.714-1.143-17.429 5.143t-10 16.571v0.571q-1.714 2.286-0.286 6.857t1.143 5.714 2.571 5.429l3.429 5.143t4 4.857 4.571 5.143q4 4.571 17.714 19.714t19.714 21.714 17.714 22.571 18.571 29.143 15.429 33.714 14.857 43.429q-89.714 50.857-141.429 125.714t-51.714 160.571q0 74.286 40.571 142t109.143 116.857 163.429 78 198.857 28.857q139.429 0 257.143-48.857t186.286-133.143 68.571-183.714z" />
<glyph unicode="&#xe917;" glyph-name="comment" d="M800.952 355.359v396.861c0 39.265-31.867 71.086-71.086 71.086h-622.065c-39.214 0-71.035-31.816-71.035-71.086v-396.861c0-39.265 31.816-71.081 71.035-71.081h118.579v-163.226l181.279 163.226h322.207c39.219 0 71.086 31.816 71.086 71.081zM919.214 667.249h-88.934c0 0 0-316.908 0-346.706s-38.646-68.086-68.444-68.086-347.863-1.756-347.863-1.756c0-39.214 31.816-63.119 71.086-63.119h136.94l178.688-162.135-0.2 162.135h118.728c39.265 0 71.086 23.905 71.086 63.119v347.459c0 39.265-31.821 69.089-71.086 69.089z" />
<glyph unicode="&#xe918;" glyph-name="compass" d="M365.714 338.286l146.286 73.143-146.286 73.143v-146.286zM585.143 676v-309.714l-292.571-146.286v309.714zM749.714 448q0 84.571-41.714 156t-113.143 113.143-156 41.714-156-41.714-113.143-113.143-41.714-156 41.714-156 113.143-113.143 156-41.714 156 41.714 113.143 113.143 41.714 156zM877.714 448q0-119.429-58.857-220.286t-159.714-159.714-220.286-58.857-220.286 58.857-159.714 159.714-58.857 220.286 58.857 220.286 159.714 159.714 220.286 58.857 220.286-58.857 159.714-159.714 58.857-220.286z" />
<glyph unicode="&#xe919;" glyph-name="config" d="M255.929 118.857q0 14.857-10.857 25.714t-25.714 10.857-25.714-10.857-10.857-25.714 10.857-25.714 25.714-10.857 25.714 10.857 10.857 25.714zM623.929 358.857l-389.714-389.714q-21.143-21.143-51.429-21.143-29.714 0-52 21.143l-60.571 61.714q-21.714 20.571-21.714 51.429 0 30.286 21.714 52l389.143 389.143q22.286-56 65.429-99.143t99.143-65.429zM986.214 607.429q0-22.286-13.143-60.571-26.857-76.571-94-124.286t-147.714-47.714q-105.714 0-180.857 75.143t-75.143 180.857 75.143 180.857 180.857 75.143q33.143 0 69.429-9.429t61.429-26.571q9.143-6.286 9.143-16t-9.143-16l-167.429-96.571v-128l110.286-61.143q2.857 1.714 45.143 27.714t77.429 46.286 40.286 20.286q8.571 0 13.429-5.714t4.857-14.286z" />
<glyph unicode="&#xe91a;" glyph-name="crew" d="M989 793h-954v90h954v-90zM989 625h-954v90h954v-90zM593 670h-558v177h558v-177zM989 670h-136v177h136v-177zM989 487h-954v90h954v-90zM989 319h-954v90h954v-90zM593 364h-558v181h558v-181zM989 364h-136v181h136v-181zM989 181h-954v90h954v-90zM989 13h-954v90h954v-90zM593 49h-558v190h558v-190zM989 49h-136v190h136v-190z" />
<glyph unicode="&#xe91b;" glyph-name="debug" d="M943.196 363.822c-10.706-10.711-28.145-10.711-38.856 0l-81.121 81.004c-10.711 10.844-10.711 28.196 0 38.932l32.507 32.476c10.66 10.732 28.088 10.732 38.825 0l81.121-81.085c10.711-10.752 10.711-28.119 0-38.83l-32.476-32.497zM625.546 46.111l262.625 262.625c10.68 10.716 10.68 28.206 0 38.917l-81.172 81.029c-10.742 10.742-28.083 10.742-38.851 0l-262.656-262.543 120.054-120.028zM481.224 81.956l-1.925-6.38-22.18-77.184 83.482 24.136zM750.198 897.618h-432.077c-8.627 0-16.881-3.323-23.050-9.308l-149.596-143.98c-6.513-6.287-10.184-14.904-10.184-23.951v-603.863c0-18.36 14.879-33.234 33.239-33.234h312.96l19.18 66.468h-298.906v544.297h121.923c14.198 0 25.646 11.484 25.646 25.641v111.427h367.642v-681.364h-195.236l66.56-66.468h161.91c18.35 0 33.229 14.874 33.229 33.234v747.868c0.005 18.355-14.879 33.234-33.239 33.234zM59.059 24.3h364.662v-25.923h-364.662v25.923zM295.424 341.949l118.129 137.672-107.044 126.157h81.582l69.315-84.767 67.907 84.762h80.876l-107.52-128.133 118.129-135.69h-84.173l-76.631 91.244-76.867-91.244h-83.702z" />
<glyph unicode="&#xe91c;" glyph-name="down" d="M961.714 498.286l-424-423.429q-10.857-10.857-25.714-10.857t-25.714 10.857l-424 423.429q-10.857 10.857-10.857 26t10.857 26l94.857 94.286q10.857 10.857 25.714 10.857t25.714-10.857l303.429-303.429 303.429 303.429q10.857 10.857 25.714 10.857t25.714-10.857l94.857-94.286q10.857-10.857 10.857-26t-10.857-26z" />
<glyph unicode="&#xe91d;" glyph-name="drop-down" d="M797.286 466.286q0-7.429-5.714-13.143l-266.286-266.286q-5.714-5.714-13.143-5.714t-13.143 5.714l-266.286 266.286q-5.714 5.714-5.714 13.143t5.714 13.143l28.571 28.571q5.714 5.714 13.143 5.714t13.143-5.714l224.571-224.571 224.571 224.571q5.714 5.714 13.143 5.714t13.143-5.714l28.571-28.571q5.714-5.714 5.714-13.143zM797.286 685.714q0-7.429-5.714-13.143l-266.286-266.286q-5.714-5.714-13.143-5.714t-13.143 5.714l-266.286 266.286q-5.714 5.714-5.714 13.143t5.714 13.143l28.571 28.571q5.714 5.714 13.143 5.714t13.143-5.714l224.571-224.571 224.571 224.571q5.714 5.714 13.143 5.714t13.143-5.714l28.571-28.571q5.714-5.714 5.714-13.143z" />
<glyph unicode="&#xe91e;" glyph-name="dtgc" d="M512 29.143l365.714 199.429v363.429l-365.714-133.143v-429.714zM475.429 523.429l398.857 145.143-398.857 145.143-398.857-145.143zM950.857 667.429v-438.857q0-20-10.286-37.143t-28-26.857l-402.286-219.429q-16-9.143-34.857-9.143t-34.857 9.143l-402.286 219.429q-17.714 9.714-28 26.857t-10.286 37.143v438.857q0 22.857 13.143 41.714t34.857 26.857l402.286 146.286q12.571 4.571 25.143 4.571t25.143-4.571l402.286-146.286q21.714-8 34.857-26.857t13.143-41.714z" />
<glyph unicode="&#xe91f;" glyph-name="duibiaofanganshezhi" d="M1016.76 613.883v63.734c0 51.558-41.825 93.379-93.384 93.379h-253.435c0 0.788 0.082 1.439 0.082 2.232 0 83.779-70.246 152.033-156.544 152.033-86.292 0-156.472-68.255-156.472-152.033 0-0.794 0.072-1.444 0.072-2.232h-253.435c-51.63 0-93.45-41.82-93.45-93.379v-63.729h15.754v-491.459h-18.181v-54.144c0-44.037 41.82-79.549 93.45-79.549h819.732c51.558 0 93.373 35.517 93.373 79.549v54.144h-6.159v491.453h8.596zM513.48 880.22c61.588 0 111.421-47.923 111.421-106.993 0-0.794 0-1.444 0-2.232h-222.771c-0.082 0.788-0.082 1.439-0.082 2.232 0 59.069 49.843 106.993 111.432 106.993zM969.206 126.218h-904.3v487.526h904.3v-487.526zM179.343 195.681c37.524 0 68.173 30.582 68.173 68.116 0 13.947-4.224 26.844-11.387 37.596l136.637 102.252c12.099-11.167 28.288-18.038 45.901-18.038 14.607 0 28.068 4.588 39.101 12.447l123.597-106.834c-6.364-10.312-10.097-22.477-10.097-35.441 0-37.535 30.577-67.968 68.096-67.968 37.668 0 68.193 30.433 68.193 67.968 0 17.388-6.6 33.070-17.188 45.179l106.26 155.254c7.88-3.159 16.461-5.018 25.426-5.018 37.535 0 68.096 30.582 68.096 68.173 0 37.535-30.561 68.116-68.096 68.116-37.612 0-68.173-30.582-68.173-68.116 0-17.188 6.508-32.87 16.968-44.902l-106.419-155.392c-7.726 3.159-16.174 4.941-25.068 4.941-13.036 0-25.267-3.871-35.661-10.23l-124.892 107.981c5.089 9.462 8.023 20.398 8.023 32.020 0 37.514-30.648 68.091-68.173 68.091s-68.029-30.582-68.029-68.091c0-8.458 1.572-16.614 4.434-24.003l-142.5-106.614c-9.887 5.576-21.125 8.868-33.229 8.868-37.673 0-68.173-30.633-68.173-68.229 0.005-37.55 30.505-68.127 68.178-68.127zM822.057 561.48c23.276 0 42.117-18.77 42.117-42.117 0-23.194-18.842-42.102-42.117-42.102-23.27 0-42.035 18.903-42.035 42.102 0 23.347 18.765 42.117 42.035 42.117zM639.365 297.943c23.352 0 42.117-18.898 42.117-42.173 0-23.209-18.765-41.974-42.117-41.974-23.188 0-42.040 18.765-42.040 41.974 0 23.276 18.852 42.173 42.040 42.173zM418.668 495.867c23.281 0 42.107-18.903 42.107-42.092 0-23.209-18.826-42.122-42.107-42.122-23.204 0-42.030 18.908-42.030 42.122 0 23.188 18.826 42.092 42.030 42.092zM179.343 305.971c23.204 0 42.107-18.852 42.107-42.173 0-23.137-18.903-42.199-42.107-42.199-23.281 0-42.107 19.067-42.107 42.199 0 23.322 18.826 42.173 42.107 42.173z" />
<glyph unicode="&#xe920;" glyph-name="duibiaoshujufabu" d="M881.388 244.89v106.767h-40.376v478.879h37.084v106.747h-735.483v-106.747h34.637v-478.884h-31.278v-106.767h297.339v-219.776h-68.557v-66.396h271.386v66.396h-71.127v219.781h306.376zM236.928 821.868h544.348v-470.211h-544.348v470.211zM594.437 757.883h65.495v-349.455h-65.495v349.455zM350.075 508.37h65.428v-99.942h-65.428v99.942zM430.838 574.070h65.388v-165.642h-65.388v165.642zM513.772 665.861h65.372v-257.439h-65.372v257.439z" />
<glyph unicode="&#xe921;" glyph-name="earth" d="M438.857 886.857q119.429 0 220.286-58.857t159.714-159.714 58.857-220.286-58.857-220.286-159.714-159.714-220.286-58.857-220.286 58.857-159.714 159.714-58.857 220.286 58.857 220.286 159.714 159.714 220.286 58.857zM595.429 589.143q-1.143-0.571-5.429-5.429t-7.714-5.429q1.143 0 2.571 2.857t2.857 6.286 2 4q3.429 4 12.571 8.571 8 3.429 29.714 6.857 19.429 4.571 29.143-6.286-1.143 1.143 5.429 7.429t8.286 6.857q1.714 1.143 8.571 2.571t8.571 4.286l1.143 12.571q-6.857-0.571-10 4t-3.714 12q0-1.143-3.429-4.571 0 4-2.571 4.571t-6.571-0.571-5.143-0.571q-5.714 1.714-8.571 4.286t-4.571 9.429-2.286 8.571q-1.143 2.857-5.429 6t-5.429 6q-0.571 1.143-1.429 3.143t-1.714 3.714-2.286 3.143-3.143 1.429-4-2.857-4.286-5.714-2.571-2.857q-1.714 1.143-3.429 0.857t-2.571-0.571-2.571-1.714-2.857-2q-1.714-1.143-4.857-1.714t-4.857-1.143q8.571 2.857-0.571 6.286-5.714 2.286-9.143 1.714 5.143 2.286 4.286 6.857t-4.857 8h2.857q-0.571 2.286-4.857 4.857t-10 4.857-7.429 3.429q-4.571 2.857-19.429 5.429t-18.857 0.286q-2.857-3.429-2.571-6t2.286-8 2-7.143q0.571-3.429-3.143-7.429t-3.714-6.857q0-4 8-8.857t5.714-12.286q-1.714-4.571-9.143-9.143t-9.143-6.857q-2.857-4.571-0.857-10.571t6-9.429q1.143-1.143 0.857-2.286t-2-2.571-3.143-2.286-3.714-2l-1.714-1.143q-6.286-2.857-11.714 3.429t-7.714 14.857q-4 14.286-9.143 17.143-13.143 4.571-16.571-0.571-2.857 7.429-23.429 14.857-14.286 5.143-33.143 2.286 3.429 0.571 0 8.571-4 8.571-10.857 6.857 1.714 3.429 2.286 10t0.571 7.714q1.714 7.429 6.857 13.143 0.571 0.571 4 4.857t5.429 7.714 0.286 3.429q20-2.286 28.571 6.286 2.857 2.857 6.571 9.714t6 9.714q5.143 3.429 8 3.143t8.286-3.143 8.286-2.857q8-0.571 8.857 6.286t-4.286 11.429q6.857-0.571 1.714 9.714-2.857 4-4.571 5.143-6.857 2.286-15.429-2.857-4.571-2.286 1.143-4.571-0.571 0.571-5.429-6t-9.429-10-9.143 2.857q-0.571 0.571-3.143 7.714t-5.429 7.714q-4.571 0-9.143-8.571 1.714 4.571-6.286 8.571t-13.714 4.571q10.857 6.857-4.571 15.429-4 2.286-11.714 2.857t-11.143-2.286q-2.857-4-3.143-6.571t2.857-4.571 6-3.143 6.571-2.286 4.857-1.714q8-5.714 4.571-8-1.143-0.571-4.857-2t-6.571-2.571-3.429-2.286q-1.714-2.286 0-8t-1.143-8q-2.857 2.857-5.143 10t-4 9.429q4-5.143-14.286-3.429l-5.714 0.571q-2.286 0-9.143-1.143t-11.714-0.571-7.714 4.571q-2.286 4.571 0 11.429 0.571 2.286 2.286 1.143-2.286 1.714-6.286 5.429t-5.714 4.857q-26.286-8.571-53.714-23.429 3.429-0.571 6.857 0.571 2.857 1.143 7.429 3.714t5.714 3.143q19.429 8 24 4l2.857 2.857q8-9.143 11.429-14.286-4 2.286-17.143 0.571-11.429-3.429-12.571-6.857 4-6.857 2.857-10.286-2.286 1.714-6.571 5.714t-8.286 6.286-8.571 2.857q-9.143 0-12.571-0.571-83.429-45.714-134.286-126.857 4-4 6.857-4.571 2.286-0.571 2.857-5.143t1.429-6.286 6.571 1.714q5.143-4.571 1.714-10.857 0.571 0.571 25.143-15.429 10.857-9.714 12-12 1.714-6.286-5.714-10.286-0.571 1.143-5.143 5.143t-5.143 2.286q-1.714-2.857 0.286-10.571t6-7.143q-4 0-5.429-9.143t-1.429-20.286-0.571-13.429l1.143-0.571q-1.714-6.857 3.143-19.714t12.286-11.143q-7.429-1.714 11.429-24.571 3.429-4.571 4.571-5.143 1.714-1.143 6.857-4.286t8.571-5.714 5.714-6q2.286-2.857 5.714-12.857t8-13.429q-1.143-3.429 5.429-11.429t6-13.143q-0.571 0-1.429-0.571t-1.429-0.571q1.714-4 8.857-8t8.857-7.429q0.571-1.714 1.143-5.714t1.714-6.286 4.571-1.143q1.143 11.429-13.714 35.429-8.571 14.286-9.714 16.571-1.714 2.857-3.143 8.857t-2.571 8.286q1.143 0 3.429-0.857t4.857-2 4.286-2.286 1.143-1.714q-1.714-4 1.143-10t6.857-10.571 9.714-10.857 6.857-7.429q3.429-3.429 8-11.143t0-7.714q5.143 0 11.429-5.714t9.714-11.429q2.857-4.571 4.571-14.857t2.857-13.714q1.143-4 4.857-7.714t7.143-5.429l9.143-4.571t7.429-4q2.857-1.143 10.571-6t12.286-6.571q5.714-2.286 9.143-2.286t8.286 1.429 7.714 2q8.571 1.143 16.571-8.571t12-12q20.571-10.857 31.429-6.286-1.143-0.571 0.286-4.286t4.571-8.857 5.143-8.286 3.143-4.857q2.857-3.429 10.286-8.571t10.286-8.571q3.429 2.286 4 5.143-1.714-4.571 4-11.429t10.286-5.714q8 1.714 8 18.286-17.714-8.571-28 10.286 0 0.571-1.429 3.143t-2.286 4.857-1.429 4.857 0 4.286 2.857 1.714q5.143 0 5.714 2t-1.143 7.143-2.286 7.429q-0.571 4.571-6.286 11.429t-6.857 8.571q-2.857-5.143-9.143-4.571t-9.143 5.143q0-0.571-0.857-3.143t-0.857-3.714q-7.429 0-8.571 0.571 0.571 1.714 1.429 10t2 12.857q0.571 2.286 3.143 6.857t4.286 8.286 2.286 7.143-2.571 5.429-10 1.429q-10.857-0.571-14.857-11.429-0.571-1.714-1.714-6t-2.857-6.571-5.143-4q-4-1.714-13.714-1.143t-13.714 2.857q-7.429 4.571-12.857 16.571t-5.429 21.143q0 5.714 1.429 15.143t1.714 14.286-3.143 14q1.714 1.143 5.143 5.429t5.714 6q1.143 0.571 2.571 0.857t2.571 0 2.286 0.857 1.714 3.429q-0.571 0.571-2.286 1.714-1.714 1.714-2.286 1.714 4-1.714 16.286 0.857t15.714-0.857q8.571-6.286 12.571 1.143 0 0.571-1.429 5.429t-0.286 7.714q2.857-15.429 16.571-5.143 1.714-1.714 8.857-2.857t10-2.857q1.714-1.143 4-3.143t3.143-2.571 2.857 0.286 4.857 3.714q5.714-8 6.857-13.714 6.286-22.857 10.857-25.143 4-1.714 6.286-1.143t2.571 5.429 0 8-0.857 7.143l-0.571 4.571v10.286l-0.571 4.571q-8.571 1.714-10.571 6.857t0.857 10.571 8.571 10.571q0.571 0.571 4.571 2t8.857 3.714 7.143 4.571q12 10.857 8.571 20 4 0 6.286 5.143-0.571 0-2.857 1.714t-4.286 2.857-2.571 1.143q5.143 2.857 1.143 9.143 2.857 1.714 4.286 6.286t4.286 5.714q5.143-6.857 12-1.143 4 4.571 0.571 9.143 2.857 4 11.714 6t10.571 5.429q4-1.143 4.571 1.143t0.571 6.857 1.714 6.857q2.286 2.857 8.571 5.143t7.429 2.857l9.714 6.286q1.714 2.286 0 2.286 10.286-1.143 17.714 6.286 5.714 6.286-3.429 11.429 1.714 3.429-1.714 5.429t-8.571 3.143q1.714 0.571 6.571 0.286t6 0.857q8.571 5.714-4 9.143-9.714 2.857-24.571-6.857zM502.286 88q117.714 20.571 200.571 108-1.714 1.714-7.143 2.571t-7.143 2q-10.286 4-13.714 4.571 0.571 4-1.429 7.429t-4.571 5.143-7.143 4.571-6.286 4q-1.143 1.143-4 3.429t-4 3.143-4.286 2.571-4.857 1.143-5.714-0.571l-1.714-0.571q-1.714-0.571-3.143-1.429t-3.143-1.714-2.286-1.714 0-1.429q-12 9.714-20.571 12.571-2.857 0.571-6.286 3.143t-6 4-5.714 0.857-6.571-4q-2.857-2.857-3.429-8.571t-1.143-7.429q-4 2.857 0 10t1.143 10.571q-1.714 3.429-6 2.571t-6.857-2.571-6.571-4.857-5.143-3.714-4.857-3.143-4.857-4.286q-1.714-2.286-3.429-6.857t-2.857-6.286q-1.143 2.286-6.571 3.714t-5.429 3.143q1.143-5.714 2.286-20t2.857-21.714q4-17.714-6.857-27.429-15.429-14.286-16.571-22.857-2.286-12.571 6.857-14.857 0-4-4.571-11.714t-4-12.286q0-3.429 1.143-9.143z" />
<glyph unicode="&#xe922;" glyph-name="edit" d="M507.429 283.429l66.286 66.286-86.857 86.857-66.286-66.286v-32h54.857v-54.857h32zM758.857 694.857q-9.143 9.143-18.857-0.571l-200-200q-9.714-9.714-0.571-18.857t18.857 0.571l200 200q9.714 9.714 0.571 18.857zM804.571 355.429v-108.571q0-68-48.286-116.286t-116.286-48.286h-475.429q-68 0-116.286 48.286t-48.286 116.286v475.429q0 68 48.286 116.286t116.286 48.286h475.429q36 0 66.857-14.286 8.571-4 10.286-13.143 1.714-9.714-5.143-16.571l-28-28q-8-8-18.286-4.571-13.143 3.429-25.714 3.429h-475.429q-37.714 0-64.571-26.857t-26.857-64.571v-475.429q0-37.714 26.857-64.571t64.571-26.857h475.429q37.714 0 64.571 26.857t26.857 64.571v72q0 7.429 5.143 12.571l36.571 36.571q8.571 8.571 20 4t11.429-16.571zM749.714 777.143l164.571-164.571-384-384h-164.571v164.571zM1003.429 701.714l-52.571-52.571-164.571 164.571 52.571 52.571q16 16 38.857 16t38.857-16l86.857-86.857q16-16 16-38.857t-16-38.857z" />
<glyph unicode="&#xe923;" glyph-name="electric-price" d="M499.2 960l-499.2-488.96 315.515-89.6-151.675-445.44 445.44 491.52-249.61 122.88zM1024 394.117c0-149.939-121.549-271.488-271.488-271.488s-271.488 121.549-271.488 271.488c0 149.939 121.549 271.488 271.488 271.488s271.488-121.554 271.488-271.488zM752.512 644.444c-138.25 0-250.327-112.077-250.327-250.332 0-138.25 112.072-250.327 250.327-250.327s250.332 112.072 250.332 250.327c-0.005 138.255-112.077 250.332-250.332 250.332zM770.401 370.483v-60.104c18.524 2.893 27.791 12.273 27.791 28.14-0.005 12.856-9.267 23.511-27.791 31.964zM752.512 614.881c-121.928 0-220.769-98.842-220.769-220.769s98.842-220.769 220.769-220.769 220.769 98.842 220.769 220.769c0 121.928-98.842 220.769-220.769 220.769zM825.984 291.359c-13.435-12.8-31.964-20.408-55.583-22.845v-40.822h-26.578v39.603c-26.056 0.23-49.449 5.965-70.175 17.198v49.679c6.943-5.796 17.807-11.264 32.568-16.415 14.766-5.156 27.295-7.905 37.606-8.253v71.393c-25.595 9.149-44.442 20.178-56.54 33.091-12.104 12.913-18.156 28.979-18.156 48.205 0 19.338 7.004 36.045 21.018 50.115 14.008 14.070 31.903 21.975 53.673 23.711v34.744h26.578v-34.048c25.708-1.157 45.102-5.268 58.189-12.334v-48.64c-17.142 10.655-36.541 17.024-58.189 19.108v-74.173c26.516-10.076 45.768-21.192 57.754-33.352s17.981-27.566 17.981-46.208c0.005-20.367-6.717-36.961-20.147-49.756zM716.897 465.326c0-13.322 8.975-24.607 26.926-33.874v62.71c-17.956-3.359-26.926-12.974-26.926-28.836z" />
<glyph unicode="&#xe924;" glyph-name="file_doc" d="M472.218 363.392c-4.086 5.284-9.498 9.334-16.225 12.14-6.733 2.816-15.043 4.224-24.919 4.224h-28.652v-115.046h35.794c5.786 0 11.428 0.937 16.865 2.826 5.468 1.869 10.327 4.977 14.582 9.313 4.255 4.352 7.68 10.010 10.235 17.009 2.555 6.984 3.84 15.508 3.84 25.554 0 9.211-0.906 17.516-2.678 24.94-1.807 7.409-4.762 13.752-8.842 19.041zM671.887 364.8c-3.917 5.878-9.047 10.563-15.34 14.060-6.318 3.492-13.972 5.233-23.009 5.233s-16.707-1.746-23.020-5.233c-6.287-3.502-11.412-8.182-15.334-14.060-3.917-5.883-6.764-12.575-8.561-20.081-1.777-7.491-2.678-15.247-2.678-23.25 0-7.665 0.906-15.13 2.678-22.369 1.797-7.255 4.644-13.763 8.561-19.569 3.922-5.786 9.052-10.435 15.334-13.926 6.313-3.492 13.983-5.243 23.020-5.243s16.691 1.756 23.009 5.243c6.292 3.492 11.423 8.141 15.34 13.926 3.907 5.806 6.758 12.314 8.566 19.569 1.777 7.24 2.678 14.705 2.678 22.369 0 8.003-0.906 15.759-2.678 23.25-1.807 7.506-4.664 14.198-8.566 20.081zM933.852 499.369h-596.326c-22.451 0-40.653-18.202-40.653-40.663v-268.703c0-22.472 18.207-40.663 40.653-40.663h596.321c22.451 0 40.658 18.196 40.658 40.663v268.698c0.005 22.467-18.207 40.668-40.653 40.668zM518.748 286.433c-3.415-11.244-8.566-20.966-15.468-29.138-6.897-8.182-15.498-14.612-25.825-19.292-10.312-4.695-22.451-7.040-36.424-7.040h-78.74v182.533h78.74c11.766 0 22.712-1.884 32.845-5.627 10.132-3.748 18.908-9.38 26.348-16.876 7.419-7.496 13.204-16.865 17.377-28.119s6.262-24.463 6.262-39.624c-0.005-13.286-1.71-25.559-5.115-36.818zM717.133 284.39c-4.091-11.592-9.974-21.642-17.649-30.157-7.675-8.535-17.029-15.263-28.109-20.198-11.090-4.941-23.695-7.419-37.842-7.419s-26.762 2.478-37.842 7.419c-11.080 4.936-20.434 11.663-28.119 20.198-7.68 8.515-13.542 18.565-17.638 30.157-4.091 11.597-6.124 23.946-6.124 37.079 0 13.455 2.033 26.076 6.124 37.832 4.101 11.756 9.958 21.99 17.638 30.674 7.685 8.689 17.039 15.508 28.119 20.454 11.080 4.941 23.695 7.404 37.842 7.404s26.752-2.463 37.842-7.404c11.080-4.946 20.434-11.766 28.109-20.454 7.675-8.684 13.558-18.918 17.649-30.674 4.081-11.756 6.118-24.376 6.118-37.832 0.005-13.133-2.038-25.482-6.118-37.079zM904.765 270.331c-4.25-9.201-9.887-17.039-16.865-23.511-6.989-6.482-15.181-11.464-24.545-14.956-9.38-3.502-19.681-5.248-30.935-5.248-14.147 0-26.752 2.478-37.842 7.419-11.080 4.936-20.434 11.663-28.109 20.198-7.675 8.515-13.542 18.565-17.649 30.157-4.076 11.597-6.118 23.946-6.118 37.079 0 13.455 2.043 26.076 6.118 37.832 4.111 11.756 9.974 21.99 17.649 30.674 7.675 8.689 17.029 15.508 28.109 20.454 11.090 4.941 23.695 7.404 37.842 7.404 10.061 0 19.558-1.444 28.498-4.337 8.965-2.903 16.963-7.122 24.028-12.657 7.076-5.545 12.918-12.401 17.51-20.582 4.618-8.187 7.516-17.551 8.699-28.119h-38.856c-0.686 4.588-2.217 8.817-4.598 12.657-2.401 3.825-5.371 7.188-8.94 10.097-3.594 2.893-7.644 5.161-12.16 6.769-4.521 1.618-9.247 2.432-14.188 2.432-9.037 0-16.691-1.746-23.009-5.233-6.292-3.502-11.423-8.182-15.329-14.060-3.917-5.883-6.769-12.575-8.576-20.081-1.777-7.491-2.678-15.247-2.678-23.25 0-7.665 0.906-15.13 2.678-22.369 1.807-7.255 4.659-13.763 8.576-19.569 3.907-5.786 9.037-10.435 15.329-13.926 6.318-3.492 13.972-5.243 23.009-5.243 12.273 0 21.868 3.799 28.769 11.382 6.897 7.588 11.116 17.434 12.641 29.527h38.866c-1.019-11.423-3.661-21.74-7.926-30.94zM680.847 88.131c0-17.183-13.972-31.171-31.165-31.171h-511.201c-17.183 0-31.16 13.983-31.16 31.171v720.010c0 17.172 13.978 31.15 31.16 31.15h335.329v-201.748c0-7.583 6.144-13.716 13.722-13.716h191.836l1.475-1.592v-103.496h58.097v114.857c0 7.311-2.77 14.346-7.716 19.717l-216.852 234.742c-5.504 5.944-13.24 9.329-21.33 9.329h-354.56c-49.219 0-89.252-40.028-89.252-89.242v-720.010c0-49.224 40.028-89.262 89.252-89.262h511.196c49.229 0 89.262 40.033 89.262 89.262v41.841h-58.097v-41.841zM501.263 816.63l152.76-165.371h-152.76v165.371z" />
<glyph unicode="&#xe925;" glyph-name="file_pdf" d="M486.81 377.18c-3.256 1.956-6.999 3.287-11.259 3.958-4.27 0.676-8.699 1.024-13.297 1.024h-31.206v-54.723h31.206c4.598 0 9.027 0.338 13.297 1.024 4.26 0.686 8.003 1.997 11.259 3.963 3.231 1.946 5.827 4.726 7.793 8.315 1.94 3.569 2.929 8.253 2.929 14.065 0 5.786-0.983 10.476-2.929 14.060-1.966 3.574-4.562 6.344-7.793 8.315zM671.421 363.238c-4.091 5.284-9.498 9.334-16.236 12.145-6.728 2.816-15.053 4.224-24.934 4.224h-28.646v-115.082h35.804c5.786 0 11.418 0.937 16.87 2.826 5.468 1.869 10.332 4.982 14.577 9.318 4.265 4.352 7.68 10.010 10.245 17.014 2.545 6.984 3.84 15.508 3.84 25.559 0 9.216-0.906 17.521-2.688 24.945-1.797 7.419-4.751 13.768-8.832 19.052zM934.103 499.256h-596.5c-22.451 0-40.663-18.207-40.663-40.678v-268.78c0-22.477 18.212-40.678 40.663-40.678h596.5c22.456 0 40.663 18.207 40.663 40.678v268.78c0.005 22.472-18.207 40.678-40.663 40.678zM532.961 333.066c-2.314-6.994-5.98-13.215-10.988-18.668-5.028-5.448-11.556-9.851-19.579-13.164-8.003-3.328-17.72-5.002-29.148-5.002h-42.199v-65.459h-40.136v182.584h82.335c11.428 0 21.146-1.659 29.148-4.997 8.018-3.318 14.546-7.7 19.579-13.158 5.012-5.458 8.673-11.73 10.988-18.79 2.304-7.081 3.446-14.285 3.446-21.606 0-7.511-1.142-14.756-3.446-21.74zM717.967 286.259c-3.425-11.244-8.576-20.972-15.473-29.148-6.897-8.182-15.508-14.612-25.841-19.292-10.301-4.7-22.446-7.045-36.424-7.045h-78.761v182.584h78.761c11.771 0 22.723-1.879 32.855-5.627 10.138-3.748 18.913-9.385 26.353-16.881 7.409-7.496 13.194-16.87 17.382-28.124 4.168-11.259 6.252-24.474 6.252-39.639-0.005-13.286-1.7-25.569-5.105-36.828zM879.324 379.612h-88.228v-42.204h76.472v-31.196h-76.472v-75.433h-40.151v182.584h128.379v-33.751zM681.032 87.9c0-17.188-13.988-31.181-31.176-31.181h-511.35c-17.188 0-31.171 13.988-31.171 31.181v720.215c0 17.178 13.978 31.16 31.171 31.16h341.944l3.446-3.727v-198.083c0-7.583 6.144-13.722 13.732-13.722h181.919l1.485-1.592v-103.526h58.102v114.893c0 7.311-2.76 14.351-7.721 19.722l-216.914 234.808c-5.499 5.949-13.235 9.334-21.335 9.334h-354.657c-49.234 0-89.277-40.044-89.277-89.267v-720.215c0-49.234 40.044-89.283 89.277-89.283h511.35c49.229 0 89.277 40.049 89.277 89.283v41.856h-58.102v-41.856zM511.36 805.816l142.848-154.629h-142.848v154.629z" />
<glyph unicode="&#xe926;" glyph-name="file_txt" d="M946.248 508.831h-596.475c-22.451 0-40.658-18.207-40.658-40.673v-268.764c0-22.472 18.212-40.673 40.658-40.673h596.475c22.441 0 40.658 18.207 40.658 40.673v268.764c0.005 22.472-18.217 40.673-40.658 40.673zM555.505 389.105h-58.604v-164.475h-39.972v164.475h-58.742v33.495h157.322v-33.495zM691.502 224.63l-43.884 68.465-44.027-68.465h-47.939l67.656 103.306-61.307 94.664h46.72l39.7-63.606 38.897 63.606h46.316l-61.573-96.148 67.656-101.821h-48.215zM897.838 389.105h-58.604v-164.475h-39.972v164.475h-58.747v33.495h157.322v-33.495zM693.181 97.5c0-17.183-13.983-31.176-31.176-31.176h-511.314c-17.188 0-31.171 13.988-31.171 31.176v720.174c0 17.183 13.983 31.16 31.171 31.16h341.914l3.456-3.732v-198.072c0-7.583 6.134-13.722 13.732-13.722h181.898l1.49-1.592v-103.521h58.097v114.898c0 7.311-2.755 14.346-7.716 19.722l-216.904 234.793c-5.494 5.949-13.235 9.334-21.335 9.334h-354.632c-49.234 0-89.272-40.038-89.272-89.262v-720.174c0-49.229 40.038-89.283 89.272-89.283h511.314c49.234 0 89.272 40.049 89.272 89.283v41.856h-58.097v-41.861zM523.515 815.375l142.838-154.619h-142.838v154.619z" />
<glyph unicode="&#xe927;" d="M922.65 515.272h-580.772c-21.868 0-39.593-17.725-39.593-39.603v-261.693c0-21.878 17.731-39.603 39.593-39.603h580.772c21.868 0 39.593 17.725 39.593 39.603v261.693c0 21.878-17.725 39.603-39.593 39.603zM505.682 418.033h-93.22v-45.624h80.471v-32.609h-80.471v-81.915h-38.922v192.763h132.142v-32.614zM570.122 257.884h-38.922v192.763h38.922v-192.763zM738.555 257.884h-135.69v191.181h38.922v-158.705h96.768v-32.476zM907.525 257.884h-146.611v192.763h142.925v-32.609h-104.003v-42.737h96.773v-32.476h-96.773v-52.465h107.689v-32.476z" />
<glyph unicode="&#xe928;" d="M676.239 114.76c0-16.737-13.609-30.356-30.356-30.356h-497.853c-16.737 0-30.351 13.619-30.351 30.356v701.235c0 16.727 13.614 30.341 30.351 30.341h326.579v-196.49c0-7.383 5.98-13.358 13.363-13.358h186.834l1.434-1.551v-100.797h56.581v111.862c0 7.117-2.698 13.972-7.516 19.2l-211.2 228.618c-5.361 5.791-12.897 9.088-20.772 9.088h-345.303c-47.939 0-86.922-38.984-86.922-86.912v-701.23c0-47.933 38.984-86.927 86.922-86.927h497.859c47.944 0 86.932 38.989 86.932 86.927v40.755h-56.581v-40.76zM501.345 824.259l148.777-161.060h-148.777v161.060z" />
<glyph unicode="&#xe929;" d="M373.54 257.884h38.922v81.915h80.466v32.609h-80.466v45.624h93.22v32.614h-132.142z" />
<glyph unicode="&#xe92a;" d="M531.2 450.647h38.922v-192.758h-38.922v192.758z" />
<glyph unicode="&#xe92b;" d="M641.787 449.065h-38.922v-191.181h135.69v32.476h-96.768z" />
<glyph unicode="&#xe92c;" d="M799.836 342.825h96.773v32.476h-96.773v42.732h104.003v32.614h-142.925v-192.763h146.611v32.476h-107.689z" />
<glyph unicode="&#xe92d;" glyph-name="financial-personnel" d="M319.651 400.723c0 0-139.723-52.412-167.355-166.769-27.633-114.352 0-232.524 0-232.524s39.070-77.187 407.868-63.845c368.798 13.337-81.951 210.603-81.951 210.603l-158.562 252.536zM716.173 400.723c0 0 139.723-52.412 167.355-166.769 27.633-114.352 0-232.524 0-232.524s-39.070-77.187-407.868-63.845c-368.793 13.337 81.956 210.603 81.956 210.603l158.557 252.536zM564.927 294.471c0-25.525-20.692-46.218-46.218-46.218s-46.218 20.692-46.218 46.218c0 25.525 20.692 46.218 46.218 46.218s46.218-20.692 46.218-46.218zM497.267 269.213l-29.543-173.438h104.83l-40.023 222.040-31.454-23.343zM705.541 654.282c0 28.555-10.143 52.983-30.445 73.28s-44.73 30.45-73.29 30.45-52.983-10.148-73.28-30.45c-20.302-20.297-30.455-44.725-30.455-73.28 0-28.56 10.153-52.988 30.455-73.285 20.292-20.302 44.72-30.45 73.28-30.45s52.988 10.148 73.29 30.45c20.297 20.297 30.445 44.725 30.445 73.285v0zM824.091 461.638c0-8.029-2.934-14.973-8.803-20.837-5.864-5.874-12.813-8.803-20.842-8.803-8.335 0-15.284 2.929-20.832 8.803l-79.424 79.184c-27.633-19.14-58.429-28.708-92.389-28.708-22.075 0-43.181 4.274-63.33 12.843-20.144 8.569-37.511 20.144-52.097 34.729s-26.165 31.953-34.729 52.097c-8.569 20.144-12.853 41.255-12.853 63.33 0.005 22.075 4.284 43.181 12.853 63.325s20.149 37.511 34.729 52.097c14.581 14.586 31.948 26.165 52.097 34.729 20.149 8.569 41.255 12.853 63.33 12.853 22.069 0 43.186-4.284 63.33-12.853s37.511-20.149 52.097-34.729c14.591-14.586 26.171-31.953 34.729-52.097 8.569-20.149 12.853-41.25 12.853-63.325 0-33.96-9.573-64.757-28.713-92.384l79.419-79.419c5.716-5.711 8.574-12.655 8.574-20.837v0zM900.325 360.736c-17.556-17.556-46.009-17.551-63.559 0l-96.149 96.139c-17.551 17.551-17.551 46.009 0 63.559v0c17.556 17.551 46.009 17.551 63.559 0l96.149-96.144c17.551-17.546 17.551-45.998 0-63.554v0zM644.972 825.739c0 0 77.187-117.215 76.245-42.881-1.91 80.050-68.7 111.499-68.7 111.499s7.708 65.755-112.365 64.802c-120.073-0.958-284.937-52.412-215.366-284.937 3.974-13.205 20.011 0 20.011 0s9.532 97.198 30.491 106.73c98.156-2.858 182.975 42.881 182.975 42.881l54.944 10.485 31.764-8.579zM330.604 688.513c0 0-42.035-9.568-35.366-63.87 6.674-54.297 41.933-44.603 41.933-44.603l12.385 10.316c0 0-29.543-6.709-34.307 34.286s29.543 49.575 29.543 49.575l-14.188 14.295zM337.171 580.045c0 0 33.97-185.986 177.56-179.322 115.946 4.768 154.069 96.246 154.069 96.246l-20.964-6.587c0 0-45.739-75.363-133.1-77.579-134.679 0-165.175 177.56-165.175 177.56l-12.39-10.316zM675.641 651.542c-9.425 14.637-21.239 25.58-35.438 32.834 3.78-6.45 5.67-13.424 5.67-20.933 0-11.473-4.076-21.285-12.232-29.436-8.151-8.156-17.963-12.237-29.431-12.237-11.478 0-21.295 4.081-29.446 12.237-8.156 8.151-12.227 17.963-12.227 29.436 0 7.509 1.89 14.484 5.665 20.933-14.198-7.255-26.013-18.203-35.438-32.834 8.248-12.716 18.585-22.839 31.021-30.379 12.441-7.53 25.916-11.3 40.43-11.3s27.979 3.77 40.415 11.3c12.426 7.54 22.767 17.663 31.010 30.379zM608.669 687.259c0 1.238-0.438 2.293-1.299 3.164-0.871 0.866-1.926 1.304-3.159 1.304-7.754 0-14.407-2.777-19.96-8.324-5.548-5.553-8.324-12.201-8.324-19.955 0-1.238 0.438-2.293 1.299-3.164 0.876-0.866 1.931-1.304 3.164-1.304 1.243 0 2.298 0.433 3.164 1.304 0.871 0.866 1.299 1.921 1.299 3.164 0 5.334 1.895 9.894 5.68 13.679 3.775 3.78 8.345 5.675 13.679 5.675 1.233 0 2.287 0.428 3.159 1.299 0.861 0.861 1.299 1.916 1.299 3.159v0zM687.547 651.542c0-2.109-0.611-4.249-1.849-6.419-8.686-14.26-20.358-25.692-35.030-34.281-14.667-8.589-30.16-12.884-46.457-12.884-16.313 0-31.8 4.315-46.472 12.93-14.667 8.62-26.339 20.037-35.025 34.235-1.233 2.17-1.86 4.315-1.86 6.419s0.627 4.244 1.86 6.419c8.686 14.198 20.358 25.61 35.025 34.23 14.672 8.62 30.16 12.93 46.472 12.93 16.297 0 31.79-4.31 46.457-12.93 14.672-8.62 26.344-20.032 35.030-34.23 1.238-2.175 1.849-4.315 1.849-6.419v0z" />
<glyph unicode="&#xe92e;" glyph-name="folder" d="M1002.264 418.129q0-16.535-16.535-35.204l-179.223-211.228q-22.936-27.204-64.275-46.14t-76.543-18.936h-580.342q-18.136 0-32.27 6.935t-14.135 22.936q0 16.535 16.535 35.204l179.223 211.228q22.936 27.204 64.275 46.14t76.543 18.936h580.342q18.136 0 32.27-6.935t14.135-22.936zM819.306 601.62v-85.345h-443.792q-50.14 0-105.080-25.337t-87.478-63.742l-182.424-214.428q0 2.134-0.267 6.668t-0.267 6.668v512.066q0 49.073 35.204 84.278t84.278 35.204h170.689q49.073 0 84.278-35.204t35.204-84.278v-17.069h290.171q49.073 0 84.278-35.204t35.204-84.278z" />
<glyph unicode="&#xe92f;" glyph-name="fuzhibaobiao" d="M202.051 809.298c-63.77 0-115.86-57.677-115.86-119.711v-602.696c0-62.039 56.781-120.55 120.54-120.55h452.029c63.759 0 120.535 58.501 120.535 120.55h30.131c63.759 0 120.535 58.486 120.535 120.535v481.444l-210.934 240.85c-3.727 0-361.615 0.937-361.615 0.937-63.764 0-120.535-58.501-120.535-120.535l-34.826-0.824zM236.872 749.855v-542.428c0-62.049 56.776-120.535 120.535-120.535 0 0 326.723 0.317 361.882 0.317 0-36.567-23.977-60.59-60.524-60.59h-452.029c-31.626 0-60.268 29.563-60.268 60.273v602.696c0 44.82 36.869 60.268 90.404 60.268zM719.027 869.509l150.676-179.922h-90.404c-32.102 0-60.273 28.964-60.273 60.268 0 0 0 61.036 0 119.613v0.041zM719.027 297.503h-271.206c-16.645 0-30.141 13.481-30.141 30.106s13.496 30.106 30.141 30.106h271.206c16.65 0 30.147-13.481 30.147-30.106s-13.496-30.106-30.147-30.106zM719.027 448.031h-271.206c-16.645 0-30.141 13.481-30.141 30.1 0 16.635 13.496 30.111 30.141 30.111h271.206c16.65 0 30.147-13.481 30.147-30.111-0.005-16.62-13.496-30.1-30.147-30.1z" />
<glyph unicode="&#xe930;" glyph-name="gangweixinxiweihu" d="M176.445 707.113c0-21.171 13.169-38.38 29.773-39.455 11.551-72.668 61.404-127.278 121.257-127.278 59.899 0 109.824 54.738 121.262 127.278 0.717 0 1.377-0.056 2.099-0.056 17.152 0 31.283 17.679 31.283 39.511 0 19.308-11.018 35.497-25.508 38.799v0.113c0 0 33.51 112.896-36.741 145.147-8.55 97.311-179.907 20.925-179.907 20.925-88.003-45.834-45.532-169.262-45.532-169.262h0.056c-10.644-6.303-18.043-19.963-18.043-35.722zM220.416 799.862c5.647 8.658 11.059 14.188 11.059 14.188 77.952-3.415 138.824 35.251 138.824 35.251 41.38 31.887 60.329-57.011 66.345-95.933l-6.38-2.586c-1.925 4.695-6.548 7.941-11.848 7.941h-63.514c-7.096 0-12.754-5.775-12.754-12.872h-35.364c0 7.096-5.714 12.872-12.754 12.872h-63.575c-5.832 0-10.762-3.907-12.268-9.206l-6.19 2.468 8.417 47.877zM422.154 742.835v-41.8c0-2.038-1.679-3.661-3.732-3.661h-63.519c-2.099 0-3.722 1.623-3.722 3.661v44.815c0 2.171 1.623 3.722 3.722 3.722h63.514c1.567 0 2.831-0.891 3.374-2.156l-1.321-0.486 1.684-4.096zM297.764 745.851v-44.815c0-2.038-1.679-3.661-3.732-3.661h-63.575c-2.099 0-3.661 1.623-3.661 3.661v44.815c0 2.171 1.567 3.722 3.661 3.722h63.575c2.053 0 3.732-1.551 3.732-3.722zM207.775 738.268c0.302 0 0.604 0 0.963-0.113l2.412-0.128v3.62l5.832-2.299 0.66 1.567v-39.875c0-7.040 5.775-12.81 12.81-12.81h63.575c7.040 0 12.754 5.775 12.754 12.81v29.891h35.364v-29.891c0-7.040 5.658-12.81 12.754-12.81h63.514c7.096 0 12.872 5.775 12.872 12.81v39.516l6.866 2.775c0.604-4.454 0.835-7.096 0.835-7.096l1.695 0.241 6.912 1.439c1.091 0.184 2.171 0.358 3.246 0.358 5.77 0 11.315-3.128 15.524-8.474 4.741-5.965 7.342-14.019 7.342-22.682 0-8.658-2.601-16.717-7.342-22.738-4.209-5.284-9.754-8.3-15.524-8.3-0.42 0-0.778 0-1.382 0.056l-7.813 0.66-1.203-7.757c-5.356-33.797-19.732-64.532-40.305-86.426-10.23-10.772-21.473-19.19-33.623-24.909-12.442-5.832-25.554-8.776-39.030-8.776-13.358 0-26.47 2.944-38.984 8.776-12.15 5.719-23.455 14.080-33.567 24.909-20.685 21.888-35.005 52.628-40.289 86.426l-1.152 6.682-6.733 0.358c-11.965 0.845-21.832 14.792-21.832 31.037 0 8.663 2.642 16.722 7.342 22.682 4.332 5.34 9.866 8.468 15.508 8.468zM901.837 237.348c-5.402 26.414-15.77 51.005-30.249 72.781l27.663 27.663-61.711 61.722-28.037-27.909c-22.006 14.080-46.684 24.248-73.201 29.537v33.019h-87.27v-34.038c-25.139-5.606-48.609-15.647-69.407-29.23l-29.358 29.476-61.716-61.722 29.425-29.404c-14.157-21.606-24.371-45.906-29.553-71.89h-39.685v-87.214h40.289c5.54-25.257 15.642-48.712 29.471-69.596l-27.546-27.607 61.67-61.763 28.063 28.078c20.572-13.225 43.663-23.025 68.347-28.626v-34.529h87.27v33.572c26.173 5.171 50.591 15.15 72.248 28.872l26.573-26.532 61.65 61.66-25.856 25.856c14.131 21.176 24.591 45.005 30.249 70.615h37.775v87.214h-37.105zM695.055 46.556c-82.852 0-150.077 66.78-150.077 148.808 0 82.043 67.226 148.936 150.077 148.936 82.821 0 150.185-66.888 150.185-148.936 0-82.028-67.364-148.808-150.185-148.808zM693.852 307.43c-62.628 0-113.618-50.345-113.618-112.297 0-61.967 50.99-112.364 113.618-112.364 62.648 0 113.669 50.401 113.669 112.364 0 61.952-51.021 112.297-113.669 112.297zM693.852 119.224c-42.404 0-77.051 34.038-77.051 75.909 0 41.738 34.647 75.786 77.051 75.786 42.516 0 77.046-34.043 77.046-75.786-0.005-41.866-34.534-75.909-77.046-75.909zM494.331 306.278l-32.246 32.364 88.187 88.177 29.645-29.716v25.748h-1.869c-9.139 49.741-51.594 92.616-112.118 118.733l-107.73-180.982-13.174 81.254c8.852 5.417 14.566 15.283 14.566 26.342 0 17.075-13.716 30.925-30.853 30.925-17.034 0-30.868-13.85-30.868-30.925 0-11.059 5.903-20.925 14.679-26.342l-12.861-79.872-107.008 179.604c-60.559-26.117-103.030-68.992-112.108-118.733h-1.869v-224h4.925c23.224-15.698 124.385-27.361 245.704-27.361 35.794 0 69.893 1.014 100.628 2.826v81.807h43.668c4.756 17.434 11.74 34.284 20.7 50.15zM693.852 234.348c-22.323 0-40.479-17.572-40.479-39.214 0-21.658 18.156-39.342 40.479-39.342 22.292 0 40.474 17.679 40.474 39.342 0 21.647-18.186 39.214-40.474 39.214z" />
<glyph unicode="&#xe931;" glyph-name="gaoya" d="M273.101 923.684h39.352v-946.048h-39.352v946.048zM494.643 923.684h39.352v-946.048h-39.352v946.048zM716.186 923.684h39.357v-946.048h-39.357v946.048zM41.298 619.945h946.043v-39.352h-946.043v39.352zM41.298 410.721h946.043v-39.352h-946.043v39.352zM41.319 581.572l27.823 27.815 210.005-210.064-27.823-27.815-210.005 210.064zM959.557 609.369l27.822-27.83-210.064-210.005-27.822 27.83 210.064 210.005zM41.289 374.028l27.823 27.815 236.245-236.312-27.823-27.815-236.245 236.312zM959.53 401.849l27.815-27.83-238.67-238.535-27.815 27.83 238.67 238.535zM41.311 800.183l27.826 27.818 210.005-210.064-27.826-27.818-210.005 210.064zM959.516 827.992l27.818-27.826-210.064-210.005-27.818 27.826 210.064 210.005zM273.101 923.684h482.442v-39.352h-482.442v39.352z" />
<glyph unicode="&#xe932;" glyph-name="gauge" d="M968.596 402.371c0 251.704-204.052 455.752-455.752 455.752s-455.747-204.047-455.747-455.752c0-90.798 26.66-175.329 72.422-246.39h766.653c45.768 71.060 72.422 155.592 72.422 246.39zM512.845 789.658c19.901 0 36.029-16.128 36.029-36.035 0-19.896-16.123-36.029-36.029-36.029-19.891 0-36.029 16.133-36.029 36.029-0.005 19.907 16.133 36.035 36.029 36.035zM174.249 434.893c-19.896 0-36.029 16.128-36.029 36.029s16.128 36.035 36.029 36.035c19.901 0 36.029-16.133 36.029-36.035s-16.128-36.029-36.029-36.029zM277.084 632.873c-19.896 0-36.029 16.133-36.029 36.029 0 19.901 16.133 36.035 36.029 36.035s36.029-16.128 36.029-36.035c0-19.896-16.133-36.029-36.029-36.029zM512.855 204.872c-33.178 0-60.078 26.9-60.078 60.078s26.9 60.078 60.078 60.078 60.063-26.9 60.063-60.078-26.885-60.078-60.063-60.078zM554.409 342.4l-42.527 10.665 94.438 272.896-51.912-283.561zM744.233 632.873c-19.907 0-36.029 16.133-36.029 36.029 0 19.901 16.123 36.035 36.029 36.035 19.896 0 36.029-16.128 36.029-36.035 0.005-19.896-16.133-36.029-36.029-36.029zM852.024 434.893c-19.891 0-36.024 16.128-36.024 36.029s16.133 36.035 36.024 36.035c19.907 0 36.029-16.133 36.029-36.035s-16.123-36.029-36.029-36.029z" />
<glyph unicode="&#xe933;" glyph-name="gcxm" d="M148.931 482.591h724.705v-64.317h-724.705v64.317zM148.931 482.591h64.323v-112.753h-64.323v112.753zM481.731 530.217h64.323v-160.374h-64.323v160.374zM809.318 482.591h64.317v-112.753h-64.317v112.753zM372.096 349.972h283.581v-210.611h-283.581v210.611zM372.096 765.875h283.581v-210.606h-283.581v210.606zM699.689 349.972h283.587v-210.611h-283.587v210.611zM39.296 349.967h283.587v-210.606h-283.587v210.606z" />
<glyph unicode="&#xe934;" glyph-name="girl" d="M669.839 436.588c-3.64 1.889-8.069 1.377-11.218-1.28-31.13-26.701-68.659-45.266-108.068-53.652-9.308-1.531-19.011-2.452-28.861-3.092v-330.916c0-11.141-9.016-20.152-20.168-20.152-11.136 0-20.152 9.011-20.152 20.152v330.798c-17.367 1.101-28.472 3.185-28.472 3.185-39.849 8.397-77.373 26.957-108.539 53.673-3.128 2.657-7.542 3.169-11.218 1.28-139.53-72.852-225.408-238.003-229.719-441.805-0.061-2.714 0.983-5.335 2.872-7.265 1.894-1.951 4.49-3.026 7.209-3.026h298.194c0.906 0 1.777 0.133 2.621 0.364h174.177c0.87-0.23 1.782-0.364 2.719-0.364h298.348c2.708 0 5.309 1.075 7.199 3.026 1.9 1.93 2.939 4.552 2.883 7.265-4.296 203.786-90.194 368.942-229.806 441.81zM574.1 58.051c-10.25 0-18.591 8.335-18.591 18.601s8.34 18.58 18.591 18.58c10.281 0 18.611-8.315 18.611-18.58s-8.33-18.601-18.611-18.601zM574.1 158.853c-10.25 0-18.591 8.315-18.591 18.606 0 10.255 8.34 18.58 18.591 18.58 10.281 0 18.611-8.325 18.611-18.58 0-10.291-8.33-18.606-18.611-18.606zM574.1 259.656c-10.25 0-18.591 8.325-18.591 18.611 0 10.245 8.34 18.586 18.591 18.586 10.281 0 18.611-8.34 18.611-18.586 0-10.286-8.33-18.611-18.611-18.611zM303.985 550.943c40.791-68.106 113.956-113.782 197.54-113.782 87.168 0 163.18 49.577 202.737 122.593 22.461-130.668 177.121-159.764 177.121-159.764 64.471 167.757-92.442 240.563-148.818 260.782 0.271 4.531 0.681 9.006 0.681 13.594 0 130.77-103.951 237.138-231.716 237.138-74.511 0-140.744-36.321-183.168-92.396-1.142-0.845-2.401-1.475-3.364-2.601-1.951-2.237-3.231-4.818-4.019-7.496-25.923-38.292-41.206-84.644-41.206-134.646 0-5.478 0.43-10.819 0.809-16.195-61.251-23.439-203.771-96.963-141.798-258.181-0.010 0 147.441 27.853 175.201 150.953zM501.524 487.567c-100.009 0-181.361 83.794-181.361 186.798 0 34.258 9.16 66.263 24.852 93.885 23.767-14.454 60.365-31.421 101.35-31.421 21.407 0 43.991 4.628 66.488 16.681 82.458 44.114 101.018 42.9 132.977 28.211 1.49-0.696 3.041-0.794 4.598-1.080 20.378-30.208 32.41-66.806 32.41-106.276 0-103.004-81.331-186.798-181.315-186.798zM501.524 861.107c36.485 0 70.426-11.269 98.918-30.444-27.049-2.734-58.609-15.903-106.604-41.6-46.331-24.765-95.944-4.828-125.046 12.129 33.152 36.756 80.307 59.914 132.731 59.914z" />
<glyph unicode="&#xe935;" glyph-name="gongwenbao" d="M883.379 222.792c0-33.93-27.51-61.44-61.44-61.44h-619.884c-33.93 0-61.44 27.51-61.44 61.44v302.592c0 33.93 27.51 61.44 61.44 61.44h619.884c33.93 0 61.44-27.51 61.44-61.44v-302.592zM339 751.918h360.561v-72.11h-360.561v72.11zM339 695.598h72.11v-360.561h-72.11v360.561zM627.451 715.863h72.115v-360.566h-72.115v360.566z" />
<glyph unicode="&#xe936;" glyph-name="grid" d="M62.019 897.981h397.348v-397.348h-397.348v397.348zM564.634 897.981h397.348v-397.353h-397.348v397.353zM62.019 395.372h397.353v-397.353h-397.353v397.353zM564.634 395.372h397.348v-397.353h-397.348v397.353z" />
<glyph unicode="&#xe937;" glyph-name="hangqingzuijiaweihuzhiweihu" d="M1020.129 812.524l-353.142-110.305 72.98-78.735-259.379-226.304-126.561 172.124-350.013-333.619 79.442-83.292 255.304 243.379 123.213-167.603 356.239 310.779 65.096-70.154z" />
<glyph unicode="&#xe938;" glyph-name="home" d="M647.342 752.988l-498.881-498.881-135.325 135.325 498.881 498.881 135.325-135.325zM511.973 888.319l498.888-498.888-135.329-135.329-498.888 498.888 135.329 135.329zM183.040 193.28h253.015v-166.211h-253.015v166.211zM587.945 193.28h253.015v-166.211h-253.015v166.211zM177.92 188.16h668.16l-330.88 330.88z" />
<glyph unicode="&#xe939;" glyph-name="jibendanweixinxiguanli" d="M148.9 589.635h321.009v-281.784h-321.009v281.784zM148.9 718.019h727.603v-60.641h-727.603v60.641zM537.667 589.635h338.836v-57.078h-338.836v57.078zM537.667 477.271h338.836v-57.068h-338.836v57.068zM537.667 364.908h338.836v-57.057h-338.836v57.057zM537.667 252.58h338.836v-57.068h-338.836v57.068zM148.9 252.58h321.009v-57.068h-321.009v57.068zM932.531 62.981h-837.837c-40.847 0-74.076 33.234-74.076 74.081v637.916c0 40.868 33.234 74.102 74.076 74.102h837.837c40.852 0 74.081-33.234 74.081-74.102v-637.916c0-40.847-33.234-74.081-74.081-74.081zM94.694 792.095c-9.262 0-17.091-7.834-17.091-17.116v-637.916c0-9.272 7.828-17.096 17.091-17.096h837.837c9.262 0 17.096 7.823 17.096 17.096v637.916c0 9.283-7.834 17.116-17.096 17.116h-837.837z" />
<glyph unicode="&#xe93a;" glyph-name="jiliangdanweixinxiweihu" d="M152.018 582.948c21.079 0 38.088 16.988 38.088 37.934 0 3.589-0.532 7.081-1.449 10.388 72.556 52.787 176.696 87.89 293.965 93.783l-12.36-553.492h-78.848c-19.558 0-35.389-15.872-35.389-35.364 0-19.574 15.831-35.43 35.389-35.43h247.793c19.528 0 35.41 15.857 35.41 35.43 0 19.497-15.882 35.364-35.41 35.364h-73.795l-12.401 553.492c117.361-5.893 221.486-40.996 294.031-93.783-0.896-3.308-1.51-6.804-1.51-10.388 0-20.946 17.116-37.934 38.088-37.934 21.084 0 38.118 16.988 38.118 37.934 0 20.9-17.034 37.955-38.118 37.955-1.879 0-3.768-0.23-5.652-0.492-72.233 66.929-190.423 112.573-326.098 119.219l-0.312 13.604c10.465 9.324 17.055 22.835 17.055 37.78 0 27.96-22.717 50.632-50.749 50.632-28.099 0-50.852-22.666-50.852-50.632 0-14.945 6.646-28.457 17.075-37.78l-0.271-13.604c-135.675-6.646-253.87-52.291-326.134-119.219-1.869 0.261-3.697 0.492-5.673 0.492-21.038 0-38.103-17.055-38.103-37.955 0.010-20.946 17.075-37.934 38.113-37.934zM751.488 88.269h-472.376c-37.299 0-67.492-30.208-67.492-67.502h607.411c0.005 37.294-30.223 67.502-67.543 67.502zM756.659 346.23c0-52.296 56.709-94.74 126.735-94.74 69.914 0 126.715 42.445 126.715 94.74h-253.45zM772.163 358.651l105.569 182.932c1.772-0.691 3.697-1.065 5.663-1.065s3.876 0.369 5.617 1.065l105.636-182.932h14.909l-111.063 192.256c0.753 1.833 1.213 3.753 1.213 5.786 0 8.955-7.368 16.189-16.312 16.189-8.991 0-16.251-7.235-16.251-16.189 0-2.033 0.399-3.953 1.106-5.786l-110.991-192.256h14.904zM272.497 346.23h-253.399c0-52.296 56.771-94.74 126.725-94.74s126.674 42.445 126.674 94.74zM140.175 541.583c1.761-0.691 3.635-1.065 5.647-1.065 2.007 0 3.876 0.369 5.627 1.065l105.585-182.932h14.899l-110.95 192.256c0.676 1.833 1.075 3.753 1.075 5.786 0 8.955-7.286 16.189-16.236 16.189-9.001 0-16.236-7.235-16.236-16.189 0-2.033 0.348-3.953 1.070-5.786l-111.043-192.256h14.976l105.585 182.932z" />
<glyph unicode="&#xe93b;" glyph-name="kjpz" d="M22.339 683.213c16.538 35.425 58.67 50.734 94.1 34.196 14.438-6.743 25.533-17.741 32.492-30.802l13.676-37.647-131.738-47.872-13.681 37.647c-3.046 14.479-1.597 30.029 5.151 44.477zM167.644 224.686l103.475-79.585 28.262 127.452-126.505 348.175-131.753-47.872 126.52-348.17zM140.308 555.633l95.749-263.485-32.445-11.786-95.739 263.485 32.435 11.786zM387.727 266.9h-104.305v30.664h114.657l11.704 34.647h-126.362v30.669h136.709l11.699 34.647h-148.408v30.664h158.761l11.699 34.642h-170.46v30.669h180.813l11.699 34.642h-192.512v30.669h202.87l11.694 34.642h-214.559v30.669h224.911l11.699 34.642h-236.616v30.664h246.973l11.689 34.642h-258.657v30.669h269.015l15.836 46.904h-324.582v-582.661h228.854l-90.67 30.607zM822.764 128.005l-402.883 140.073 191.35 550.354 402.883-140.073-191.35-550.354zM961.188 647.101l-327.839 113.981-10.071-28.964 327.839-113.981 10.071 28.964zM939.74 585.416l-327.834 113.987-10.076-28.969 327.834-113.976 10.076 28.959zM918.292 523.735l-327.828 113.976-10.071-28.964 327.823-113.976 10.076 28.964zM896.84 462.044l-327.828 113.976-10.076-28.964 327.839-113.987 10.066 28.974zM875.397 400.353l-327.834 113.981-10.071-28.964 327.834-113.981 10.071 28.964zM853.949 338.662l-327.839 113.992-10.071-28.969 327.834-113.981 10.076 28.959zM832.502 276.977l-327.834 113.987-10.071-28.969 327.828-113.981 10.076 28.964zM811.049 215.291l-327.834 113.976-10.071-28.964 327.834-113.987 10.071 28.974z" />
<glyph unicode="&#xe93c;" glyph-name="kmhz" d="M423.265 806.579h-321.623v-742.758h742.758v354.939h-421.135v387.82zM225.603 199.388l36.055 206.244 161.608-108.17-197.663-98.074zM460.042 565.074h211.215v-108.964h-211.215v108.964zM711.142 565.074h211.22v-108.959h-211.22v108.959zM460.042 699.633h211.215v-108.959h-211.215v108.959zM711.142 699.633h211.22v-108.959h-211.22v108.959zM460.042 832.179h211.215v-108.959h-211.215v108.959zM711.142 832.179h211.22v-108.959h-211.22v108.959z" />
<glyph unicode="&#xe93d;" glyph-name="kuixian" d="M1006.157 491.085h-92.442c-17.853 191.923-170.030 344.852-361.636 363.776v90.301h-82.565v-90.532c-190.541-19.912-341.596-172.375-359.378-363.546h-94.715v-82.575h95.416c20.71-187.924 170.419-336.998 358.671-356.649v-104.274h82.565v104.033c189.312 18.698 340.132 168.197 360.924 356.89h93.148v82.575zM830.669 491.085h-278.589v280.622c145.731-18.278 261.356-134.559 278.589-280.622zM469.514 771.415v-280.33h-276.332c17.142 145.29 131.645 261.13 276.332 280.33zM194.048 408.509h275.466v-273.439c-142.382 18.877-255.58 131.374-275.466 273.439zM552.079 134.784v273.725h277.714c-19.994-142.802-134.257-255.749-277.714-273.725z" />
<glyph unicode="&#xe93e;" glyph-name="lightning" d="M761.714 636.571q10.286-11.429 4-25.143l-308.571-661.143q-7.429-14.286-24-14.286-2.286 0-8 1.143-9.714 2.857-14.571 10.857t-2.571 17.143l112.571 461.714-232-57.714q-2.286-0.571-6.857-0.571-10.286 0-17.714 6.286-10.286 8.571-7.429 22.286l114.857 471.429q2.286 8 9.143 13.143t16 5.143h187.429q10.857 0 18.286-7.143t7.429-16.857q0-4.571-2.857-10.286l-97.714-264.571 226.286 56q4.571 1.143 6.857 1.143 10.857 0 19.429-8.571z" />
<glyph unicode="&#xe93f;" glyph-name="line-chart" d="M63.457 896.543h82.207v-897.080h-82.207v897.080zM63.457 81.664h897.080v-82.207h-897.080v82.207zM512.57 679.987l24.030-17.037-292.605-412.702-24.030 17.037 292.605 412.702zM496.868 654.992l17.034 24.030 267.2-189.411-17.034-24.030-267.2 189.411zM764.065 465.575l-24.031 17.040 189.441 267.163 24.031-17.040-189.441-267.163z" />
<glyph unicode="&#xe940;" glyph-name="line" d="M53.361 794.573h98.074v-631.706h-98.074v631.706zM53.361 237.855h917.279v-98.068h-917.279v98.068zM414.733 659.234l69.344-69.344-202.794-202.794-69.344 69.344 202.794 202.794zM345.504 589.879l69.348 69.348 276.834-276.834-69.348-69.348-276.834 276.834zM623.101 313.034l-69.348 69.348 342.76 342.76 69.348-69.348-342.76-342.76z" />
<glyph unicode="&#xe941;" glyph-name="link" d="M154.021 362.746c9.473-9.472 20.84-14.209 34.101-14.209h147.774c13.261 0 24.628 4.736 34.101 14.209 9.946 9.946 14.683 22.261 14.209 36.944-1.421-0.001-5.861-0.060-13.321-0.179-7.459-0.118-12.551-0.117-15.275 0-2.723 0.119-6.75 0.593-12.077 1.422s-9.887 2.31-13.676 4.439c-3.79 2.131-7.46 4.974-11.012 8.526-9.472 9.472-14.208 20.838-14.208 34.1s4.736 24.629 14.208 34.102c3.552 3.551 7.223 6.394 11.012 8.525s8.348 3.612 13.676 4.44c5.328 0.828 9.354 1.302 12.077 1.42 2.724 0.119 7.816 0.119 15.275 0 7.46-0.118 11.9-0.178 13.321-0.177 0.474 15.156-4.263 27.707-14.209 37.653-9.473 9.473-20.839 14.209-34.101 14.209l-146.708 0.356c-12.789 0-24.038-4.855-33.747-14.564-9.473-9.472-14.446-20.603-14.919-33.391l-0.355-104.082c0-13.259 4.618-24.508 13.854-33.743v0zM654.179 362.035c9.472-9.472 20.839-14.208 34.102-14.208l146.707-0.354c13.262 0 24.628 4.735 34.102 14.209 9.235 9.235 14.091 20.483 14.564 33.745l0.354 104.081c0 13.263-4.617 24.511-13.854 33.747-9.472 9.472-20.839 14.209-34.102 14.209h-147.773c-12.789 0-24.037-4.855-33.746-14.565-9.947-9.945-14.802-22.141-14.564-36.588 1.42 0 5.859 0.061 13.32 0.179s12.551 0.118 15.273 0c2.725-0.119 6.75-0.594 12.078-1.422s9.887-2.308 13.676-4.439c3.79-2.131 7.46-4.973 11.013-8.525 9.472-9.472 14.209-20.839 14.209-34.101s-4.737-24.629-14.209-34.101c-3.553-3.553-7.224-6.395-11.012-8.526-3.79-2.131-8.349-3.611-13.677-4.438-5.328-0.83-9.354-1.304-12.078-1.423s-7.813-0.118-15.273 0c-7.461 0.119-11.901 0.179-13.32 0.178-0.475-15.154 4.262-27.707 14.208-37.653l0.002-0.005zM85.818 294.544c-28.418 28.417-42.39 62.519-41.917 102.305l0.355 104.081c0 39.312 14.209 73.177 42.626 101.594 28.655 28.655 62.875 42.745 102.66 42.271l146.708-0.355c39.313 0.001 73.177-14.208 101.595-42.626 29.129-29.129 43.456-64.296 42.982-105.503h62.519c-0.473 41.207 13.737 76.255 42.628 105.147 28.417 28.417 62.52 42.626 102.305 42.626h147.772c39.785 0 73.887-14.209 102.306-42.626 28.417-28.417 42.391-62.52 41.916-102.304l-0.355-104.081c0-39.312-14.207-73.178-42.626-101.596-28.655-28.655-62.875-42.745-102.659-42.271l-146.708 0.355c-39.312 0-73.178 14.209-101.595 42.627-29.127 29.128-43.456 64.295-42.983 105.502h-62.519c0.473-41.207-13.735-76.256-42.627-105.146-28.418-28.418-62.519-42.627-102.304-42.627l-147.774 0.001c-39.786 0-73.887 14.208-102.305 42.626v0z" />
<glyph unicode="&#xe942;" glyph-name="lock" d="M365.857 521.143h292.571v109.714q0 60.571-42.857 103.429t-103.429 42.857-103.429-42.857-42.857-103.429v-109.714zM841.286 466.286v-329.143q0-22.857-16-38.857t-38.857-16h-548.571q-22.857 0-38.857 16t-16 38.857v329.143q0 22.857 16 38.857t38.857 16h18.286v109.714q0 105.143 75.429 180.571t180.571 75.429 180.571-75.429 75.429-180.571v-109.714h18.286q22.857 0 38.857-16t16-38.857z" />
<glyph unicode="&#xe943;" glyph-name="love" d="M512 9.143q-14.857 0-25.143 10.286l-356.571 344q-5.714 4.571-15.714 14.857t-31.714 37.429-38.857 55.714-30.571 69.143-13.429 78.857q0 125.714 72.571 196.571t200.571 70.857q35.429 0 72.286-12.286t68.571-33.143 54.571-39.143 43.429-38.857q20.571 20.571 43.429 38.857t54.571 39.143 68.571 33.143 72.286 12.286q128 0 200.571-70.857t72.571-196.571q0-126.286-130.857-257.143l-356-342.857q-10.286-10.286-25.143-10.286z" />
<glyph unicode="&#xe944;" glyph-name="menu" d="M1002.368 448c0-270.822-219.551-490.368-490.368-490.368-270.822 0-490.368 219.551-490.368 490.368 0 270.822 219.546 490.368 490.368 490.368s490.368-219.546 490.368-490.368zM512 900.147c-249.713 0-452.147-202.435-452.147-452.147s202.429-452.147 452.147-452.147c249.708 0 452.147 202.429 452.147 452.147 0 249.713-202.44 452.147-452.147 452.147zM793.964 598.723c0-27.484-22.282-49.761-49.761-49.761h-464.404c-27.479 0-49.761 22.282-49.761 49.761v0c0 27.479 22.282 49.756 49.761 49.756h464.404c27.484 0 49.761-22.277 49.761-49.756v0zM793.964 448.005c0-27.484-22.282-49.766-49.761-49.766h-464.404c-27.479 0-49.761 22.282-49.761 49.766v0c0 27.479 22.282 49.756 49.761 49.756h464.404c27.484 0 49.761-22.277 49.761-49.756v0zM793.964 297.283c0-27.484-22.282-49.766-49.761-49.766h-464.404c-27.479 0-49.761 22.282-49.761 49.766v0c0 27.479 22.282 49.761 49.761 49.761h464.404c27.484 0 49.761-22.277 49.761-49.761v0z" />
<glyph unicode="&#xe945;" glyph-name="minus" d="M914.071 539.429v-109.714q0-22.857-16-38.857t-38.857-16h-694.857q-22.857 0-38.857 16t-16 38.857v109.714q0 22.857 16 38.857t38.857 16h694.857q22.857 0 38.857-16t16-38.857z" />
<glyph unicode="&#xe946;" glyph-name="money" d="M409.653 311.449h204.827v51.207h-68.276v238.964h-60.808l-78.943-73.076 41.072-42.672q22.403 19.736 29.338 30.404h1.067v-153.62h-68.276v-51.207zM682.756 448q0-37.338-11.201-75.743t-31.737-71.476-54.14-53.873-73.609-20.803-73.609 20.803-54.14 53.873-31.737 71.476-11.201 75.743 11.201 75.743 31.737 71.476 54.14 53.873 73.609 20.803 73.609-20.803 54.14-53.873 31.737-71.476 11.201-75.743zM955.858 311.449v273.102q-56.54 0-96.546 40.005t-40.005 96.546h-614.48q0-56.54-40.005-96.546t-96.546-40.005v-273.102q56.54 0 96.546-40.005t40.005-96.546h614.48q0 56.54 40.005 96.546t96.546 40.005zM1024.133 755.24v-614.48q0-13.868-10.135-24.003t-24.003-10.135h-955.858q-13.868 0-24.003 10.135t-10.135 24.003v614.48q0 13.868 10.135 24.003t24.003 10.135h955.858q13.868 0 24.003-10.135t10.135-24.003z" />
<glyph unicode="&#xe947;" glyph-name="move" d="M491.592 870.129h41.81v-867.497h-41.81v867.497zM618.358 838.769h-211.732l105.871 105.871zM406.63 56.233h211.727l-105.861-105.861zM89.871 468.403h867.502v-41.805h-867.502v41.805zM121.226 553.37v-211.732l-105.866 105.861zM903.767 341.637v211.732l105.861-105.871z" />
<glyph unicode="&#xe948;" glyph-name="news" d="M193.26 609.142h-160.594v-320.538h161.69l318.991-319.503v961.224l-320.087-320.604zM636.447 651.996l-48.353-94.843v-2.294c30.331-24.658 50.14-61.773 50.14-103.823 0-42.020-19.809-79.145-50.14-103.772v-0.358l49.075-96.287c64.876 43.095 107.715 116.675 107.715 200.417-0.005 84.096-43.151 157.932-108.436 200.96zM989.916 451.031c0 178.842-98.289 334.428-243.666 416.507l-47.672-93.573v-2.243c110.249-64.563 184.684-183.946 184.684-320.686 0-136.724-74.435-256.123-184.684-320.671v-0.276l48.461-95.114c144.932 82.212 242.877 237.573 242.877 416.056z" />
<glyph unicode="&#xe949;" glyph-name="no" d="M851.214 204.571q0-22.857-16-38.857l-77.714-77.714q-16-16-38.857-16t-38.857 16l-168 168-168-168q-16-16-38.857-16t-38.857 16l-77.714 77.714q-16 16-16 38.857t16 38.857l168 168-168 168q-16 16-16 38.857t16 38.857l77.714 77.714q16 16 38.857 16t38.857-16l168-168 168 168q16 16 38.857 16t38.857-16l77.714-77.714q16-16 16-38.857t-16-38.857l-168-168 168-168q16-16 16-38.857z" />
<glyph unicode="&#xe94a;" glyph-name="noxy-ba-chart" d="M39.076 442.87h191.217v-457.257h-191.217v457.257zM289.321 717.225h191.217v-731.607h-191.217v731.607zM539.566 540.969h191.217v-555.356h-191.217v555.356zM789.816 910.1h191.217v-924.483h-191.217v924.483z" />
<glyph unicode="&#xe94b;" glyph-name="noxy-chart" d="M192 0v257h192v-257h-192zM448 0v835h192v-835h-192zM704 0v577h192v-577h-192z" />
<glyph unicode="&#xe94c;" glyph-name="order1" d="M381.655 807.286h600.417v-178.826h-600.417v178.826zM584.822 534.538h397.251v-178.816h-397.251v178.816zM783.447 261.089h198.625v-178.826h-198.625v178.826zM195.779 216.161v587.894h-47.811v-587.894h-106.040l129.946-129.951 129.951 129.951z" />
<glyph unicode="&#xe94d;" glyph-name="order2" d="M381.655 261.089h600.417v-178.826h-600.417v178.826zM584.822 533.827h397.251v-178.816h-397.251v178.816zM783.447 807.286h198.625v-178.826h-198.625v178.826zM195.779 216.161v587.894h-47.811v-587.894h-106.040l129.946-129.951 129.951 129.951z" />
<glyph unicode="&#xe94e;" glyph-name="order3" d="M149.489 905.416h178.826v-600.422h-178.826v600.422zM422.236 702.244h178.816v-397.251h-178.816v397.251zM695.685 503.619h178.826v-198.625h-178.826v198.625zM741.33 147.604h-587.899v-47.805h587.899v-106.045l129.951 129.946-129.951 129.951z" />
<glyph unicode="&#xe94f;" glyph-name="order4" d="M695.685 905.416h178.826v-600.422h-178.826v600.422zM422.948 702.244h178.816v-397.251h-178.816v397.251zM149.489 503.619h178.826v-198.625h-178.826v198.625zM741.33 147.604h-587.899v-47.805h587.899v-106.045l129.951 129.946-129.951 129.951z" />
<glyph unicode="&#xe950;" glyph-name="personal-center-arrow" d="M769.679 951.306c4.296-4.296 4.291-11.254 0-15.549l-494.915-494.909c-4.296-4.301-11.249-4.301-15.544 0v0c-4.291 4.291-4.291 11.249 0 15.539l494.915 494.915c4.296 4.296 11.254 4.296 15.544 0.005v0zM259.215 455.788c4.296 4.296 11.254 4.285 15.549 0l494.92-494.92c4.291-4.291 4.291-11.244 0-15.544v0c-4.301-4.291-11.254-4.291-15.544 0l-494.915 494.92c-4.296 4.291-4.301 11.249-0.010 15.544v0z" />
<glyph unicode="&#xe951;" glyph-name="pie" d="M438.857 451.429l312-312q-60.571-61.714-141.429-96t-170.571-34.286q-119.429 0-220.286 58.857t-159.714 159.714-58.857 220.286 58.857 220.286 159.714 159.714 220.286 58.857v-435.429zM545.714 448h441.714q0-89.714-34.286-170.571t-96-141.429zM950.857 521.143h-438.857v438.857q119.429 0 220.286-58.857t159.714-159.714 58.857-220.286z" />
<glyph unicode="&#xe952;" glyph-name="point" d="M1024 448c0-282.77-229.23-512-512-512s-512 229.23-512 512c0 282.77 229.23 512 512 512s512-229.23 512-512z" />
<glyph unicode="&#xe953;" glyph-name="radar" d="M945.326 199.813l-429.865-248.187-429.865 248.187v496.369l429.865 248.192 429.865-248.187z" />
<glyph unicode="&#xe954;" glyph-name="report" d="M620.447-21.402h-534.589c-32.814 0-59.402 26.542-59.402 59.279v715.689c0 32.742 26.588 59.279 59.402 59.279h148.495v-61.757h-118.799c-16.399 0-29.696-13.271-29.696-29.64v-653.932c0-16.369 13.297-29.64 29.696-29.64h475.197c16.399 0 29.696 13.271 29.696 29.64v653.937c0 16.369-13.297 29.64-29.696 29.64h-118.799v61.752h148.495c32.809 0 59.402-26.537 59.402-59.279v-715.684c-0.005-32.742-26.593-59.284-59.402-59.284v0zM234.353 573.245h326.702v-29.635h-326.702v29.635zM234.353 484.332h326.702v-29.635h-326.702v29.635zM234.353 395.412h326.702v-29.635h-326.702v29.635zM234.353 306.493h326.702v-29.645h-326.702v29.645zM561.055 99.016h-326.702v29.635h326.702v-29.635zM234.353 217.569h326.702v-29.64h-326.702v29.64zM145.26 573.87h29.706v-29.635h-29.706v29.635zM145.26 484.956h29.706v-29.64h-29.706v29.64zM145.26 396.037h29.706v-29.635h-29.706v29.635zM145.26 307.113h29.706v-29.645h-29.706v29.645zM174.961 99.635h-29.706v29.64h29.706v-29.64zM145.26 218.199h29.706v-29.645h-29.706v29.645zM531.348 719.601c16.399 0 29.696-13.281 29.696-29.645 0-16.369 0-57.421 0-57.421h-415.785c0 0 0 41.057 0 57.421s13.297 29.645 29.696 29.645h89.098c0 0 0.364 42.153 0.364 90.317 0 50.017 38.615 91.843 88.74 91.843 50.12 0 90.097-43.965 90.097-92.124 0-51.876-0.993-90.035-0.993-90.035h89.088zM353.157 812.846c-16.41 0-29.706-13.271-29.706-29.645 0-16.369 13.297-29.635 29.706-29.635 16.399 0 29.696 13.266 29.696 29.635-0.005 16.374-13.297 29.645-29.696 29.645v0zM679.127 236.022l181.591-181.591c-23.506-23.946-50.939-42.568-82.314-55.875-31.375-13.302-64.466-19.953-99.277-19.953-46.336 0-89.073 11.418-128.21 34.253-39.137 22.84-70.113 53.827-92.954 92.959-22.835 39.132-34.253 81.869-34.253 128.205 0 46.341 11.418 89.073 34.253 128.21 22.84 39.137 53.821 70.118 92.954 92.954 39.137 22.835 81.874 34.253 128.21 34.253v-253.414zM741.32 234.020h257.080c0-34.811-6.651-67.901-19.953-99.277-13.307-31.37-31.928-58.808-55.875-82.314l-181.253 181.591zM977.116 276.588h-255.416v255.427c46.336 0 89.068-11.418 128.205-34.258 39.132-22.835 70.113-53.821 92.954-92.954 22.835-39.137 34.258-81.874 34.258-128.215z" />
<glyph unicode="&#xe955;" glyph-name="reportdiy" d="M716.641 811.986h-587.141c-51.195 0-92.703-41.503-92.703-92.708v-587.131c0-51.195 41.508-92.703 92.703-92.703h587.136c51.19 0 92.698 41.508 92.698 92.703v587.131c0.005 51.205-41.503 92.708-92.692 92.708zM731.121 191.596c0-40.827-33.106-73.923-73.923-73.923h-468.25c-40.827 0-73.923 33.101-73.923 73.923v468.244c0 40.827 33.096 73.928 73.923 73.928h468.25c40.822 0 73.923-33.101 73.923-73.928v-468.244zM793.021 771.804l119.977-125.676-224.046-228.413-61.107 59.648v-43.643l26.189-32.010-26.189-20.367v-167.311h-78.566v119.301l-52.372-32.005v-87.296h-74.199v91.658l-24.735 30.551 45.829 45.829-109.112 109.117-170.952-143.309v59.653l168.765 141.123 106.209-90.204 145.49 135.306-45.834 52.372 102.574 4.367zM288.855 413.348v-199.316h74.204v14.551l50.918 50.918-27.643 34.191-20.004-20.009v119.665l-31.462 31.462h-6.728zM235.028 355.154v-141.123h-71.291v81.475zM798.464 816.538l141.932-141.937c0 0 103.337 88.1 26.179 165.258s-168.11-23.322-168.11-23.322z" />
<glyph unicode="&#xe956;" glyph-name="ring" d="M919.004 237.455c-0.005 48.44-45.394 87.711-101.391 87.711v236.575c0 110.208-77.967 204.631-188.764 244.337-14.505 44.022-61.312 76.262-116.849 76.262-55.542 0-102.344-32.241-116.849-76.262-110.802-39.706-188.769-134.129-188.769-244.337v-236.57c-55.997 0-101.391-39.276-101.391-87.716v0-87.726h814.019l-0.005 87.726zM512-25.871c68.705 0 124.406 55.7 124.406 124.411h-248.806c0-68.71 55.695-124.411 124.401-124.411z" />
<glyph unicode="&#xe957;" glyph-name="rise" d="M320 542.72h253.015v-355.84h-253.015v355.84zM631.767 604.401h253.015v-417.521h-253.015v417.521zM501.335 594.161h513.879l-254.479 254.479zM7.68 373.12h253.015v-186.24h-253.015v186.24zM7.68 143.36h877.102v-96h-877.102v96z" />
<glyph unicode="&#xe958;" glyph-name="rotate" d="M231.675 142.234l145.562 59.581c5.673 2.324 9.887 7.219 11.351 13.174 1.444 5.924-0.031 12.242-3.994 16.916l-102.881 121.452c-4.659 5.473-11.976 7.9-18.975 6.272-6.994-1.623-12.467-7.040-14.198-13.983l-8.008-32.102c-61.804 31.887-99.354 74.097-99.354 115.302 0 80.236 145.382 169.692 354.033 169.692 24.648 0 44.677 19.978 44.677 44.667 0 24.673-20.024 44.677-44.677 44.677-248.622 0-443.377-113.782-443.377-259.036 0-82.115 61.317-155.812 166.636-203.914l-15.345-61.486c-0.364-1.51-0.558-3.067-0.558-4.618 0.015-0.082 0-0.148 0-0.256 0-10.573 8.566-19.133 19.154-19.133 3.666-0.010 7.040 1.024 9.953 2.796zM635.412 633.656c-0.384-1.495-0.558-3.031-0.558-4.547 0-4.49 1.592-8.883 4.531-12.37l102.902-121.477c4.623-5.453 11.981-7.91 18.975-6.246 6.989 1.623 12.483 7.030 14.198 14.019l7.992 32.061c61.824-31.862 99.374-74.081 99.374-115.261 0-80.312-145.398-169.723-354.028-169.723-24.684 0-44.672-19.983-44.672-44.692 0-24.653 19.988-44.657 44.672-44.657 248.617 0 443.372 113.772 443.372 259.072 0 82.079-61.332 155.776-166.636 203.878l15.304 61.476c1.736 6.994-0.594 14.382-6.052 19.082-5.443 4.741-13.102 6.001-19.773 3.256l-148.275-60.682c-5.673-2.309-9.897-7.224-11.325-13.189z" />
<glyph unicode="&#xe959;" glyph-name="ruler" d="M832.108 79.811l-17.797-15.764c-6.349-6.339-16.625-4.311-22.958 2.043-6.339 6.339-6.339 16.625 0 22.932l18.785 18.801-47.954 52.275-45.302-45.312c-6.344-6.349-16.63-6.349-22.948 0-6.354 6.339-6.354 16.625 0 22.953l46.29 46.295-47.949 52.27-24.1-24.095c-6.344-6.339-16.63-6.339-22.958 0-6.349 6.349-6.349 16.635 0 22.963l25.093 25.083-47.949 52.275-51.604-51.61c-6.354-6.339-16.625-6.339-22.963 0-6.339 6.354-6.339 16.625 0 22.963l52.598 52.598-55.706 60.728-22.625-22.62c-6.349-6.354-16.63-6.354-22.963 0-6.349 6.349-6.349 16.625 0 22.963l23.613 23.598-55.706 60.728-58.604-58.598c-6.354-6.354-16.635-6.354-22.958 0-6.354 6.344-6.354 16.625 0 22.958l59.587 59.612-47.949 52.27-21.156-21.156c-6.354-6.349-16.635-6.349-22.963 0-6.349 6.349-6.349 16.63 0 22.958l22.149 22.154-47.949 52.27-48.696-48.666c-6.354-6.354-16.635-6.354-22.958 0-6.354 6.349-6.354 16.63 0 22.953l49.654 49.659-55.716 60.744-19.686-19.681c-6.354-6.354-16.635-6.354-22.958 0-6.354 6.349-6.354 16.635 0 22.958l20.669 20.68-47.98 52.285-47.196-47.186c-6.349-6.354-16.625-6.354-22.958 0-6.349 6.354-6.349 16.63 0 22.963l44.119 48.179-102.804 108.431c-12.344 13.005-22.339 9.027-22.339-8.914v-925.583c0-17.94 14.531-32.486 32.476-32.486h844.396c17.94 0 22.83 10.885 10.952 24.31l-84.029 94.817zM158.218 74.353v514.058l475.346-514.053h-475.346z" />
<glyph unicode="&#xe95a;" glyph-name="search" d="M694.786 484.571q0 105.714-75.143 180.857t-180.857 75.143-180.857-75.143-75.143-180.857 75.143-180.857 180.857-75.143 180.857 75.143 75.143 180.857zM987.357 9.143q0-29.714-21.714-51.429t-51.429-21.714q-30.857 0-51.429 21.714l-196 195.429q-102.286-70.857-228-70.857-81.714 0-156.286 31.714t-128.571 85.714-85.714 128.571-31.714 156.286 31.714 156.286 85.714 128.571 128.571 85.714 156.286 31.714 156.286-31.714 128.571-85.714 85.714-128.571 31.714-156.286q0-125.714-70.857-228l196-196q21.143-21.143 21.143-51.429z" />
<glyph unicode="&#xe95b;" glyph-name="shaixuanqi" d="M973.676 738.109c0 61.737-206.822 138.122-461.67 138.122-254.889-0.005-461.676-76.385-461.676-138.122 0-1.172 0.66-2.207 0.845-3.415h-0.845c0-108.59 298.691-362.931 353.044-471.562v-192.251c0-29.952 48.691-54.282 108.631-54.282 59.935 0 108.59 24.33 108.59 54.282v192.251c54.39 108.631 353.080 362.967 353.080 471.562h-0.881c0.22 1.208 0.881 2.237 0.881 3.415zM516.009 642.34c-223.652 0-405.668 46.577-405.668 103.685s182.016 115.302 405.668 115.302c223.652 0 405.668-58.194 405.668-115.302s-182.016-103.685-405.668-103.685z" />
<glyph unicode="&#xe95c;" glyph-name="shebeizichanduiyinglv" d="M49.684 810.45h64.614v-728.335h-64.614v728.335zM49.684 146.719h922.168v-64.609h-922.168v64.609zM153.943 541.727v-189.425l207.048 118.943 195.302-77.829 205.578 148.311 209.981 8.806v259.917l-330.394-92.513-140.969-160.056-180.613 82.227zM153.943 309.714v-124.82h817.91v318.653l-221.727-38.18-212.92-140.969-174.746 82.232z" />
<glyph unicode="&#xe95d;" glyph-name="shishijiankongxitong" d="M506.066 820.69c-250.957 0-455.081-204.17-455.081-455.107 0-106.204 37.371-209.562 105.288-291.082 6.021-7.199 14.894-11.366 24.31-11.366h650.993c9.39 0 18.284 4.163 24.284 11.366 67.891 81.521 105.308 184.873 105.308 291.082 0.005 250.936-204.165 455.107-455.101 455.107zM816.369 126.397h-620.631c-52.644 68.27-81.495 152.658-81.495 239.191 0 216.059 175.77 391.823 391.823 391.823 216.033 0 391.849-175.77 391.849-391.823 0-86.533-28.877-170.921-81.546-239.191zM540.8 313.226h0.026l-205.046 169.482c-5.786 4.895-13.199 7.951-21.417 7.951-18.493 0-33.464-14.966-33.439-33.439 0-7.813 2.775-14.92 7.322-20.613l-0.072-0.051 169.293-204.145c2.14-3.389 4.516-6.543 7.296-9.37l0.497-0.609c10.778-10.875 25.677-17.649 42.194-17.649 32.753 0 59.377 26.588 59.377 59.351 0 20.424-10.337 38.431-26.030 49.091zM206.536 379.612h-32.758c-10.496 0-18.99-8.494-18.99-18.964 0-10.476 8.494-18.99 18.99-18.99h32.758c10.496 0 18.99 8.515 18.99 18.99 0.005 10.465-8.494 18.964-18.99 18.964zM300.836 557.235c7.414 7.414 7.414 19.441 0 26.854l-24.689 24.684c-7.414 7.414-19.415 7.414-26.829 0s-7.414-19.436 0-26.849l24.709-24.689c3.697-3.697 8.52-5.55 13.414-5.55 4.823 0 9.697 1.859 13.394 5.55zM510.188 649.39c10.496 0 18.99 8.499 18.99 18.99v31.37c0 10.496-8.494 18.99-18.99 18.99s-18.99-8.494-18.99-18.99v-31.37c-0.005-10.491 8.489-18.99 18.99-18.99zM741.038 608.353l-24.259-24.264c-7.388-7.414-7.388-19.441 0-26.854 3.722-3.697 8.566-5.55 13.435-5.55 4.849 0 9.718 1.859 13.414 5.55l24.264 24.289c7.409 7.414 7.409 19.436 0 26.849-7.414 7.393-19.436 7.414-26.854-0.020zM837.647 379.592h-34.125c-10.496 0-18.964-8.499-18.964-18.97 0-10.496 8.468-18.964 18.964-18.964h34.125c10.522 0 19.016 8.468 19.016 18.964-0.005 10.47-8.499 18.97-19.016 18.97z" />
<glyph unicode="&#xe95e;" glyph-name="sliders-o" d="M448 832v16c0 26.4-21.6 48-48 48h-160c-26.4 0-48-21.6-48-48v-16h-192v-128h192v-16c0-26.4 21.6-48 48-48h160c26.4 0 48 21.6 48 48v16h576v128h-576zM256 704v128h128v-128h-128zM832 528c0 26.4-21.6 48-48 48h-160c-26.4 0-48-21.6-48-48v-16h-576v-128h576v-16c0-26.4 21.6-48 48-48h160c26.4 0 48 21.6 48 48v16h192v128h-192v16zM640 384v128h128v-128h-128zM448 208c0 26.4-21.6 48-48 48h-160c-26.4 0-48-21.6-48-48v-16h-192v-128h192v-16c0-26.4 21.6-48 48-48h160c26.4 0 48 21.6 48 48v16h576v128h-576v16zM256 64v128h128v-128h-128z" />
<glyph unicode="&#xe95f;" glyph-name="sliders" d="M201.143 155.429v-73.143h-201.143v73.143h201.143zM402.286 228.571q14.857 0 25.714-10.857t10.857-25.714v-146.286q0-14.857-10.857-25.714t-25.714-10.857h-146.286q-14.857 0-25.714 10.857t-10.857 25.714v146.286q0 14.857 10.857 25.714t25.714 10.857h146.286zM493.714 448v-73.143h-493.714v73.143h493.714zM128 740.571v-73.143h-128v73.143h128zM877.714 155.429v-73.143h-420.571v73.143h420.571zM329.143 813.714q14.857 0 25.714-10.857t10.857-25.714v-146.286q0-14.857-10.857-25.714t-25.714-10.857h-146.286q-14.857 0-25.714 10.857t-10.857 25.714v146.286q0 14.857 10.857 25.714t25.714 10.857h146.286zM694.857 521.143q14.857 0 25.714-10.857t10.857-25.714v-146.286q0-14.857-10.857-25.714t-25.714-10.857h-146.286q-14.857 0-25.714 10.857t-10.857 25.714v146.286q0 14.857 10.857 25.714t25.714 10.857h146.286zM877.714 448v-73.143h-128v73.143h128zM877.714 740.571v-73.143h-493.714v73.143h493.714z" />
<glyph unicode="&#xe960;" glyph-name="star-o" d="M987.357 590.286q0-12.571-14.857-27.429l-207.429-202.286 49.143-285.714q0.571-4 0.571-11.429 0-12-6-20.286t-17.429-8.286q-10.857 0-22.857 6.857l-256.571 134.857-256.571-134.857q-12.571-6.857-22.857-6.857-12 0-18 8.286t-6 20.286q0 3.429 1.143 11.429l49.143 285.714-208 202.286q-14.286 15.429-14.286 27.429 0 21.143 32 26.286l286.857 41.714 128.571 260q10.857 23.429 28 23.429t28-23.429l128.571-260 286.857-41.714q32-5.143 32-26.286z" />
<glyph unicode="&#xe961;" glyph-name="star" d="M686.214 386.286l174.857 169.714-241.143 35.429-108 218.286-108-218.286-241.143-35.429 174.857-169.714-41.714-240.571 216 113.714 215.429-113.714zM987.357 590.286q0-12.571-14.857-27.429l-207.429-202.286 49.143-285.714q0.571-4 0.571-11.429 0-28.571-23.429-28.571-10.857 0-22.857 6.857l-256.571 134.857-256.571-134.857q-12.571-6.857-22.857-6.857-12 0-18 8.286t-6 20.286q0 3.429 1.143 11.429l49.143 285.714-208 202.286q-14.286 15.429-14.286 27.429 0 21.143 32 26.286l286.857 41.714 128.571 260q10.857 23.429 28 23.429t28-23.429l128.571-260 286.857-41.714q32-5.143 32-26.286z" />
<glyph unicode="&#xe962;" glyph-name="switch-off" d="M766.126 682.081h-507.781c-137.021 0-248.105-111.078-248.105-248.105 0-137.047 111.084-248.125 248.105-248.125h507.781c137.047 0 248.125 111.078 248.125 248.125 0 137.021-111.084 248.105-248.125 248.105zM260.004 228.915c-113.249 0-205.051 91.807-205.051 205.051 0 113.249 91.807 205.051 205.051 205.051s205.051-91.807 205.051-205.051c0-113.244-91.807-205.051-205.051-205.051z" />
<glyph unicode="&#xe963;" glyph-name="switch-on" d="M766.126 682.081h-507.781c-137.021 0-248.105-111.078-248.105-248.105 0-137.047 111.084-248.125 248.105-248.125h507.781c137.047 0 248.125 111.078 248.125 248.125 0 137.021-111.084 248.105-248.125 248.105zM763.469 228.91c-113.244 0-205.051 91.812-205.051 205.051 0 113.249 91.807 205.056 205.051 205.056 113.249 0 205.051-91.807 205.051-205.056 0-113.239-91.802-205.051-205.051-205.051z" />
<glyph unicode="&#xe964;" glyph-name="tachometer" d="M219.429 301.714q0 30.286-21.429 51.714t-51.714 21.429-51.714-21.429-21.429-51.714 21.429-51.714 51.714-21.429 51.714 21.429 21.429 51.714zM329.143 557.714q0 30.286-21.429 51.714t-51.714 21.429-51.714-21.429-21.429-51.714 21.429-51.714 51.714-21.429 51.714 21.429 21.429 51.714zM573.714 282.857l57.714 218.286q3.429 14.857-4.286 27.714t-22 16.857-27.429-3.714-17.143-22.571l-57.714-218.286q-34.286-2.857-61.143-24.857t-36-56.286q-11.429-44 11.429-83.429t66.857-50.857 83.429 11.429 50.857 66.857q9.143 34.286-3.429 66.857t-41.143 52zM950.857 301.714q0 30.286-21.429 51.714t-51.714 21.429-51.714-21.429-21.429-51.714 21.429-51.714 51.714-21.429 51.714 21.429 21.429 51.714zM585.143 667.429q0 30.286-21.429 51.714t-51.714 21.429-51.714-21.429-21.429-51.714 21.429-51.714 51.714-21.429 51.714 21.429 21.429 51.714zM841.143 557.714q0 30.286-21.429 51.714t-51.714 21.429-51.714-21.429-21.429-51.714 21.429-51.714 51.714-21.429 51.714 21.429 21.429 51.714zM1024 301.714q0-149.143-80.571-276-10.857-16.571-30.857-16.571h-801.143q-20 0-30.857 16.571-80.571 126.286-80.571 276 0 104 40.571 198.857t109.143 163.429 163.429 109.143 198.857 40.571 198.857-40.571 163.429-109.143 109.143-163.429 40.571-198.857z" />
<glyph unicode="&#xe965;" glyph-name="taiqu" d="M510.208 802.908c195.497 0 353.987-158.464 353.987-353.946s-158.49-353.961-353.987-353.961c-195.446 0-353.94 158.479-353.94 353.961s158.5 353.946 353.94 353.946zM510.208 740.060c-160.497 0-291.062-130.58-291.062-291.098s130.565-291.098 291.062-291.098c160.532 0 291.118 130.586 291.118 291.098s-130.586 291.098-291.118 291.098v0zM511.365 945.9c273.792 0 495.8-221.988 495.8-495.8 0-273.807-222.008-495.754-495.8-495.754-273.731 0-495.739 221.952-495.739 495.754 0 273.812 222.008 495.8 495.739 495.8zM511.365 883.046c-238.689 0-432.87-194.227-432.87-432.947 0-238.669 194.181-432.896 432.87-432.896 238.73 0 432.947 194.227 432.947 432.896 0 238.72-194.217 432.947-432.947 432.947v0zM635.74 448.983c0-69.299-56.212-125.491-125.537-125.491-69.274 0-125.466 56.197-125.466 125.491 0 69.268 56.192 125.445 125.466 125.445 69.325 0 125.537-56.177 125.537-125.445z" />
<glyph unicode="&#xe966;" glyph-name="template" d="M9.549 951.89h129.439v-440.090h-129.439v440.090zM9.549 951.89h440.090v-129.434h-440.090v129.434zM320.2 951.89h129.444v-440.084h-129.444v440.084zM9.549 641.234h440.090v-129.434h-440.090v129.434zM9.549 382.367h129.439v-440.079h-129.439v440.079zM9.549 382.367h440.090v-129.428h-440.090v129.428zM320.2 382.367h129.444v-440.079h-129.444v440.079zM9.549 71.721h440.090v-129.434h-440.090v129.434zM575.488 947.891h129.434v-1005.619h-129.434v1005.619zM575.488 951.885h440.090v-129.428h-440.090v129.428zM886.134 947.891h129.444v-1005.619h-129.444v1005.619zM575.488 71.706h440.090v-129.428h-440.090v129.428z" />
<glyph unicode="&#xe967;" glyph-name="th-large" d="M475.357 374.857v-219.429q0-29.714-21.714-51.429t-51.429-21.714h-292.571q-29.714 0-51.429 21.714t-21.714 51.429v219.429q0 29.714 21.714 51.429t51.429 21.714h292.571q29.714 0 51.429-21.714t21.714-51.429zM475.357 813.714v-219.429q0-29.714-21.714-51.429t-51.429-21.714h-292.571q-29.714 0-51.429 21.714t-21.714 51.429v219.429q0 29.714 21.714 51.429t51.429 21.714h292.571q29.714 0 51.429-21.714t21.714-51.429zM987.357 374.857v-219.429q0-29.714-21.714-51.429t-51.429-21.714h-292.571q-29.714 0-51.429 21.714t-21.714 51.429v219.429q0 29.714 21.714 51.429t51.429 21.714h292.571q29.714 0 51.429-21.714t21.714-51.429zM987.357 813.714v-219.429q0-29.714-21.714-51.429t-51.429-21.714h-292.571q-29.714 0-51.429 21.714t-21.714 51.429v219.429q0 29.714 21.714 51.429t51.429 21.714h292.571q29.714 0 51.429-21.714t21.714-51.429z" />
<glyph unicode="&#xe968;" glyph-name="th-list" d="M292.571 246.857v-109.714q0-22.857-16-38.857t-38.857-16h-182.857q-22.857 0-38.857 16t-16 38.857v109.714q0 22.857 16 38.857t38.857 16h182.857q22.857 0 38.857-16t16-38.857zM292.571 539.429v-109.714q0-22.857-16-38.857t-38.857-16h-182.857q-22.857 0-38.857 16t-16 38.857v109.714q0 22.857 16 38.857t38.857 16h182.857q22.857 0 38.857-16t16-38.857zM1024 246.857v-109.714q0-22.857-16-38.857t-38.857-16h-548.571q-22.857 0-38.857 16t-16 38.857v109.714q0 22.857 16 38.857t38.857 16h548.571q22.857 0 38.857-16t16-38.857zM292.571 832v-109.714q0-22.857-16-38.857t-38.857-16h-182.857q-22.857 0-38.857 16t-16 38.857v109.714q0 22.857 16 38.857t38.857 16h182.857q22.857 0 38.857-16t16-38.857zM1024 539.429v-109.714q0-22.857-16-38.857t-38.857-16h-548.571q-22.857 0-38.857 16t-16 38.857v109.714q0 22.857 16 38.857t38.857 16h548.571q22.857 0 38.857-16t16-38.857zM1024 832v-109.714q0-22.857-16-38.857t-38.857-16h-548.571q-22.857 0-38.857 16t-16 38.857v109.714q0 22.857 16 38.857t38.857 16h548.571q22.857 0 38.857-16t16-38.857z" />
<glyph unicode="&#xe969;" glyph-name="tongyeduibiaoguanli" d="M880.072 769.352l-87.89-67.374c61.665-67.251 99.282-156.82 99.282-254.996 0-103.639-41.836-197.555-109.578-265.861l58.849-96.502c98.883 89.283 161.147 218.588 161.147 362.358-0.005 123.607-46.090 236.442-121.81 322.376zM513.725 69.13c-188.938 0-345.866 139.336-373.489 320.666h-111.176c28.298-242.652 234.388-430.981 484.664-430.981 102.282 0 197.11 31.468 275.584 85.222l-57.615 94.643c-61.691-43.756-136.812-69.55-217.969-69.55zM513.725 824.709c86.354 0 166.036-29.225 229.704-78.167l90.071 69.079c-85.678 74.337-197.412 119.47-319.775 119.47-266.957 0-483.686-214.349-487.987-480.302h110.362c4.265 204.708 171.868 369.92 377.626 369.92zM311.204 470.943h71.803v-143.636h-71.803v143.636zM418.678 544.451h71.895v-217.139h-71.895v217.139zM525.558 593.48h71.788v-266.168h-71.788v266.168zM633.16 631.962h71.767v-304.65h-71.767v304.65zM263.455 246.124h471.593v53.755l-471.593-1.562z" />
<glyph unicode="&#xe96a;" glyph-name="user-head-group" d="M316.308 448q-86.411-2.667-141.352-68.276h-71.476q-43.739 0-73.609 21.603t-29.871 63.208q0 188.291 66.142 188.291 3.201 0 23.203-11.201t52.007-22.67 63.475-11.468q35.738 0 70.943 12.268-2.667-19.736-2.667-35.204 0-74.143 43.206-136.551zM887.582 108.222q0-64.008-38.938-101.080t-103.48-37.071h-466.194q-64.542 0-103.48 37.071t-38.938 101.080q0 28.271 1.867 55.207t7.468 58.141 14.135 57.874 22.936 52.007 33.071 43.206 45.606 28.537 59.474 10.668q5.334 0 22.936-11.468t38.938-25.604 57.074-25.604 72.010-11.468 72.010 11.468 57.074 25.604 38.938 25.604 22.936 11.468q32.537 0 59.474-10.668t45.606-28.537 33.071-43.206 22.936-52.007 14.135-57.874 7.468-58.141 1.867-55.207zM341.378 789.378q0-56.54-40.005-96.546t-96.546-40.005-96.546 40.005-40.005 96.546 40.005 96.546 96.546 40.005 96.546-40.005 40.005-96.546zM716.893 584.551q0-84.811-60.008-144.819t-144.819-60.008-144.819 60.008-60.008 144.819 60.008 144.819 144.819 60.008 144.819-60.008 60.008-144.819zM1024.133 464.535q0-41.605-29.871-63.208t-73.609-21.603h-71.476q-54.94 65.609-141.352 68.276 43.206 62.408 43.206 136.551 0 15.468-2.667 35.204 35.204-12.268 70.943-12.268 31.47 0 63.475 11.468t52.007 22.67 23.203 11.201q66.142 0 66.142-188.291zM955.858 789.378q0-56.54-40.005-96.546t-96.546-40.005-96.546 40.005-40.005 96.546 40.005 96.546 96.546 40.005 96.546-40.005 40.005-96.546z" />
<glyph unicode="&#xe96b;" glyph-name="user-head" d="M914.071 157.143q0-68.571-41.714-108.286t-110.857-39.714h-499.429q-69.143 0-110.857 39.714t-41.714 108.286q0 30.286 2 59.143t8 62.286 15.143 62 24.571 55.714 35.429 46.286 48.857 30.571 63.714 11.429q5.143 0 24-12.286t42.571-27.429 61.714-27.429 76.286-12.286 76.286 12.286 61.714 27.429 42.571 27.429 24 12.286q34.857 0 63.714-11.429t48.857-30.571 35.429-46.286 24.571-55.714 15.143-62 8-62.286 2-59.143zM731.214 667.429q0-90.857-64.286-155.143t-155.143-64.286-155.143 64.286-64.286 155.143 64.286 155.143 155.143 64.286 155.143-64.286 64.286-155.143z" />
<glyph unicode="&#xe96c;" glyph-name="wechat" d="M290.071 665.553q0 20.505-12.503 33.008t-33.008 12.503q-21.505 0-38.010-12.753t-16.504-32.758q0-19.505 16.504-32.258t38.010-12.753q20.505 0 33.008 12.253t12.503 32.758zM661.662 411.991q0 14.003-12.753 25.006t-32.758 11.002q-13.504 0-24.756-11.253t-11.253-24.756q0-14.003 11.253-25.256t24.756-11.253q20.005 0 32.758 11.002t12.753 25.506zM543.633 665.553q0 20.505-12.253 33.008t-32.758 12.503q-21.505 0-38.010-12.753t-16.504-32.758q0-19.505 16.504-32.258t38.010-12.753q20.505 0 32.758 12.253t12.253 32.758zM861.21 411.991q0 14.003-13.003 25.006t-32.508 11.002q-13.504 0-24.756-11.253t-11.253-24.756q0-14.003 11.253-25.256t24.756-11.253q19.505 0 32.508 11.002t13.003 25.506zM728.178 610.539q-15.504 2.001-35.009 2.001-84.52 0-155.538-38.509t-111.777-104.276-40.76-143.785q0-39.009 11.503-76.018-17.504-1.5-34.008-1.5-13.003 0-25.006 0.75t-27.507 3.251-22.256 3.501-27.257 5.251-25.006 5.251l-126.531-63.515 36.009 109.026q-145.035 101.525-145.035 245.060 0 84.52 48.762 155.538t132.032 111.777 181.794 40.76q88.021 0 166.291-33.008t131.032-91.273 68.267-130.282zM1024.25 329.971q0-58.514-34.258-111.777t-92.773-96.773l27.507-90.522-99.524 54.514q-75.018-18.505-109.026-18.505-84.52 0-155.538 35.259t-111.777 95.774-40.76 132.032 40.76 132.032 111.777 95.774 155.538 35.259q80.52 0 151.537-35.259t113.778-96.023 42.76-131.782z" />
<glyph unicode="&#xe96d;" glyph-name="xian" d="M133.919 574.459h77.972v-229.975h-77.972v229.975zM211.891 498.801h604.109v-77.962h-604.109v77.962zM816 574.807h77.972v-229.975h-77.972v229.975z" />
<glyph unicode="&#xe96e;" glyph-name="xianduan" d="M29.491 574.459h77.972v-229.975h-77.972v229.975zM185.119 574.459h77.972v-229.975h-77.972v229.975zM29.491 574.459h233.6v-77.972h-233.6v77.972zM29.491 421.745h233.6v-77.967h-233.6v77.967zM263.091 498.801h501.709v-77.962h-501.709v77.962zM764.8 574.807h77.972v-229.975h-77.972v229.975zM920.428 574.807h77.972v-229.975h-77.972v229.975zM764.8 574.807h233.6v-77.972h-233.6v77.972zM764.8 422.093h233.6v-77.967h-233.6v77.967z" />
</font>
</defs>
</svg>
