<?xml version="1.0" encoding="utf-8"?>
<!-- Generator: Adobe Illustrator 19.0.0, SVG Export Plug-In . SVG Version: 6.00 Build 0)  -->
<svg version="1.1" xmlns="http://www.w3.org/2000/svg" xmlns:xlink="http://www.w3.org/1999/xlink" x="0px" y="0px"
	 viewBox="13 -13.2 226.2 226.2" style="enable-background:new 13 -13.2 226.2 226.2;" xml:space="preserve">
<style type="text/css">
	.st0{fill:#95BAEF;}
	.st1{fill:#E4EAEF;}
	.st2{fill:#A5BDD3;}
	.st3{fill:#7E92AF;}
</style>
<g id="图层_3">
	<polygon class="st0" points="41.3,45.8 126,-6.5 211.3,42.5 124.7,99.9 	"/>
</g>
<g id="图层_4">
	<polygon class="st1" points="41.3,45.8 124.3,97.9 41.3,152.8 	"/>
	<polygon class="st2" points="211.3,42.5 124.7,99.9 211.3,150.5 	"/>
</g>
<g id="图层_5">
	<polygon class="st2" points="122.2,99.3 39.7,152.8 124.7,206.5 	"/>
</g>
<g id="图层_6">
	<polygon class="st1" points="124.7,99.9 211.3,150.5 124.7,206.5 	"/>
</g>
<g id="图层_1">
	<g>
		<path class="st3" d="M215.1,38.5c-0.1,0-0.1-0.1-0.2-0.1c-0.1-0.1-0.2-0.2-0.3-0.2l-86.5-50.5c-1.9-1.1-4.3-1.1-6.2,0.1L37.4,40.4
			c-0.1,0.1-0.2,0.1-0.3,0.2c0,0,0,0-0.1,0c-1.9,1.1-3.1,3.1-3.1,5.2V154c0,2.1,1.1,4,2.8,5.1l85.1,53c1,0.6,2.1,0.9,3.2,0.9
			c1.1,0,2.2-0.3,3.2-0.9l87.2-55.1c1.7-1.1,2.8-3,2.8-5.1V43.8C218.2,41.6,217,39.6,215.1,38.5L215.1,38.5z M113.8,99l-67.9,44
			V56.7L113.8,99z M131,109.5l69.8,42.4L131,196.1C131,196.1,131,109.5,131,109.5z M136.4,98.8l69.8-44.1v86.6
			C206.2,141.2,136.4,98.8,136.4,98.8z M199.9,43.5l0.7,0.4L125,91.8L51.3,45.9l0.8-0.5l73-45.5C125.1-0.1,199.9,43.5,199.9,43.5z
			 M51.1,153.9l67.9-44v86.3L51.1,153.9z"/>
	</g>
</g>
<g id="图层_2">
</g>
</svg>
