<?xml version="1.0" encoding="utf-8"?>
<!-- Generator: Adobe Illustrator 19.0.0, SVG Export Plug-In . SVG Version: 6.00 Build 0)  -->
<svg version="1.1" id="Capa_1" xmlns="http://www.w3.org/2000/svg" xmlns:xlink="http://www.w3.org/1999/xlink" x="0px" y="0px"
	 viewBox="-70 72 58 58" style="enable-background:new -70 72 58 58;" xml:space="preserve">
<style type="text/css">
	.st0{fill:#EFEBDE;}
	.st1{fill:#D5D0BB;}
</style>
<g>
	<g>
		<polygon class="st0" points="-18.5,86 -32.5,72 -63.5,72 -63.5,130 -18.5,130 		"/>
		<g>
			<path class="st1" d="M-53.5,95h25c0.6,0,1-0.4,1-1s-0.4-1-1-1h-25c-0.6,0-1,0.4-1,1S-54.1,95-53.5,95z"/>
			<path class="st1" d="M-53.5,87h10c0.6,0,1-0.4,1-1s-0.4-1-1-1h-10c-0.6,0-1,0.4-1,1S-54.1,87-53.5,87z"/>
			<path class="st1" d="M-28.5,101h-25c-0.6,0-1,0.4-1,1s0.4,1,1,1h25c0.6,0,1-0.4,1-1S-27.9,101-28.5,101z"/>
			<path class="st1" d="M-28.5,109h-25c-0.6,0-1,0.4-1,1s0.4,1,1,1h25c0.6,0,1-0.4,1-1S-27.9,109-28.5,109z"/>
			<path class="st1" d="M-28.5,117h-25c-0.6,0-1,0.4-1,1s0.4,1,1,1h25c0.6,0,1-0.4,1-1S-27.9,117-28.5,117z"/>
		</g>
		<polygon class="st1" points="-32.5,72 -32.5,86 -18.5,86 		"/>
	</g>
</g>
</svg>
