<?xml version="1.0" encoding="utf-8"?>
<!-- Generator: Adobe Illustrator 19.0.0, SVG Export Plug-In . SVG Version: 6.00 Build 0)  -->
<svg version="1.1" id="Capa_1" xmlns="http://www.w3.org/2000/svg" xmlns:xlink="http://www.w3.org/1999/xlink" x="0px" y="0px"
	 viewBox="13 -13 58 58" style="enable-background:new 13 -13 58 58;" xml:space="preserve">
<style type="text/css">
	.st0{fill:#BFBBA9;}
	.st1{fill:#D5D0BB;}
	.st2{fill:#EFEBDE;}
	.st3{fill:#E2DEC9;}
</style>
<g>
	<path class="st0" d="M42,31.2c-14,0-25.3-4-25.3-9v13.2l0,0c0.8,4.7,11.8,8.4,25.3,8.4s24.4-3.8,25.4-8.4l0,0V22.2
		C67.3,27.2,56.1,31.2,42,31.2z"/>
	<path class="st0" d="M16.7,21.8v0.6C16.7,22.1,16.7,21.9,16.7,21.8L16.7,21.8z"/>
	<path class="st0" d="M67.3,21.8c0,0.2,0,0.3,0,0.6V21.8L67.3,21.8z"/>
</g>
<g>
	<path class="st1" d="M42,18.8c-14,0-25.3-4-25.3-9V23l0,0c0.8,4.7,11.8,8.4,25.3,8.4s24.4-3.8,25.4-8.4l0,0V9.8
		C67.3,14.7,56.1,18.8,42,18.8z"/>
	<path class="st1" d="M16.7,9.5v0.6C16.7,9.8,16.7,9.5,16.7,9.5L16.7,9.5z"/>
	<path class="st1" d="M67.3,9.5c0,0.2,0,0.3,0,0.6V9.5L67.3,9.5z"/>
</g>
<ellipse class="st2" cx="42" cy="-2.8" rx="25.4" ry="9"/>
<g>
	<path class="st3" d="M42,6.2c-14,0-25.3-4-25.3-9v13.2l0,0c0.8,4.7,11.8,8.4,25.3,8.4s24.4-3.8,25.4-8.4l0,0V-2.8
		C67.3,2.3,56.1,6.2,42,6.2z"/>
	<path class="st3" d="M16.7-3.3v0.6C16.7-3,16.7-3.3,16.7-3.3L16.7-3.3z"/>
	<path class="st3" d="M67.3-3.3c0,0.2,0,0.3,0,0.6V-3.3L67.3-3.3z"/>
</g>
</svg>
