<?xml version="1.0" encoding="utf-8"?>
<!-- Generator: Adobe Illustrator 21.0.0, SVG Export Plug-In . SVG Version: 6.00 Build 0)  -->
<svg version="1.1" id="图层_1" xmlns="http://www.w3.org/2000/svg" xmlns:xlink="http://www.w3.org/1999/xlink" x="0px" y="0px"
	 viewBox="0 0 400 300" style="enable-background:new 0 0 400 300;" xml:space="preserve">
<style type="text/css">
	.st0{fill:#F7F7F7;}
	.st1{fill:#DDDDDD;}
	.st2{fill:#FFFFFF;}
</style>
<g>
	<g>
		<polygon class="st0" points="0,241.8 0,300 72.7,300 57.3,229.3 		"/>
	</g>
	<g>
		<polygon class="st0" points="314.2,149.4 281.8,0 82.4,0 123.8,190.7 		"/>
	</g>
	<g>
		<polygon class="st0" points="400,130.7 400,0 305.9,0 337.3,144.4 		"/>
	</g>
	<g>
		<polygon class="st0" points="400,154.9 313,173.8 340.4,300 400,300 		"/>
	</g>
	<g>
		<polygon class="st0" points="58.2,0 0,0 0,217.6 100.8,195.7 		"/>
	</g>
	<g>
		<polygon class="st0" points="80.4,224.3 96.8,300 316.2,300 289.9,178.8 		"/>
	</g>
	<g>
		<polygon class="st1" points="54.9,218.2 78,213.2 80.4,224.3 289.9,178.8 287.5,167.6 310.5,162.6 313,173.8 400,154.9 400,130.7 
			337.3,144.4 339,152.3 315.9,157.3 314.2,149.4 123.8,190.7 125.6,199.2 102.6,204.2 100.8,195.7 0,217.6 0,241.8 57.3,229.3 		
			"/>
	</g>
	<g>
		<polygon class="st1" points="57.3,229.3 72.7,300 96.8,300 80.4,224.3 		"/>
	</g>
	<g>
		
			<rect x="55.9" y="215.5" transform="matrix(0.9772 -0.2123 0.2123 0.9772 -45.4279 19.4059)" class="st1" width="23.6" height="11.4"/>
	</g>
	<g>
		<polygon class="st1" points="123.8,190.7 82.4,0 58.2,0 100.8,195.7 		"/>
	</g>
	<g>
		
			<rect x="101.4" y="193.1" transform="matrix(0.9772 -0.2123 0.2123 0.9772 -39.3398 28.5322)" class="st1" width="23.6" height="8.6"/>
	</g>
	<g>
		<polygon class="st1" points="289.9,178.8 316.2,300 340.4,300 313,173.8 		"/>
	</g>
	<g>
		
			<rect x="288.4" y="165" transform="matrix(0.9772 -0.2123 0.2123 0.9772 -29.3979 67.6309)" class="st1" width="23.6" height="11.4"/>
	</g>
	<g>
		<polygon class="st1" points="337.3,144.4 305.9,0 281.8,0 314.2,149.4 		"/>
	</g>
	<g>
		
			<rect x="314.8" y="146.8" transform="matrix(0.9772 -0.2123 0.2123 0.9772 -24.5822 72.7805)" class="st1" width="23.6" height="8.2"/>
	</g>
	<circle class="st1" cx="58.5" cy="174.5" r="16.5"/>
	<circle class="st2" cx="58.5" cy="174.5" r="6.6"/>
	<circle class="st1" cx="273.5" cy="127.5" r="16.5"/>
	<circle class="st2" cx="273.5" cy="127.5" r="6.6"/>
	<circle class="st1" cx="352.5" cy="195.5" r="16.5"/>
	<circle class="st2" cx="352.5" cy="195.5" r="6.6"/>
	<circle class="st1" cx="125.5" cy="51.5" r="16.5"/>
	<circle class="st2" cx="125.5" cy="51.5" r="6.6"/>
</g>
</svg>
