<?xml version="1.0" encoding="utf-8"?>
<!-- Generator: Adobe Illustrator 21.0.0, SVG Export Plug-In . SVG Version: 6.00 Build 0)  -->
<svg version="1.1" id="图层_1" xmlns="http://www.w3.org/2000/svg" xmlns:xlink="http://www.w3.org/1999/xlink" x="0px" y="0px"
	 viewBox="0 0 400 300" style="enable-background:new 0 0 400 300;" xml:space="preserve">
<style type="text/css">
	.st0{fill:#F7F7F7;}
	.st1{fill:#DDDDDD;}
</style>
<g>
	<rect class="st0" width="400" height="300"/>
</g>
<g>
	<rect class="st1" width="400" height="37"/>
</g>
<g>
	<rect x="17" y="69" class="st1" width="65.1" height="19"/>
</g>
<g>
	<rect x="17" y="114" class="st1" width="65.1" height="19"/>
</g>
<g>
	<rect x="17" y="159" class="st1" width="65.1" height="19"/>
</g>
<g>
	<rect x="17" y="204" class="st1" width="65.1" height="19"/>
</g>
<g>
	<rect x="17" y="249" class="st1" width="65.1" height="19"/>
</g>
<g>
	<rect x="117" y="69" class="st1" width="65.1" height="19"/>
</g>
<g>
	<rect x="117" y="114" class="st1" width="65.1" height="19"/>
</g>
<g>
	<rect x="117" y="159" class="st1" width="65.1" height="19"/>
</g>
<g>
	<rect x="117" y="204" class="st1" width="65.1" height="19"/>
</g>
<g>
	<rect x="117" y="249" class="st1" width="65.1" height="19"/>
</g>
<g>
	<rect x="215" y="69" class="st1" width="65.1" height="19"/>
</g>
<g>
	<rect x="215" y="114" class="st1" width="65.1" height="19"/>
</g>
<g>
	<rect x="215" y="159" class="st1" width="65.1" height="19"/>
</g>
<g>
	<rect x="215" y="204" class="st1" width="65.1" height="19"/>
</g>
<g>
	<rect x="215" y="249" class="st1" width="65.1" height="19"/>
</g>
<g>
	<rect x="315" y="69" class="st1" width="65.1" height="19"/>
</g>
<g>
	<rect x="315" y="114" class="st1" width="65.1" height="19"/>
</g>
<g>
	<rect x="315" y="159" class="st1" width="65.1" height="19"/>
</g>
<g>
	<rect x="315" y="204" class="st1" width="65.1" height="19"/>
</g>
<g>
	<rect x="315" y="249" class="st1" width="65.1" height="19"/>
</g>
</svg>
