<?xml version="1.0" standalone="no"?>
<!DOCTYPE svg PUBLIC "-//W3C//DTD SVG 1.1//EN" "http://www.w3.org/Graphics/SVG/1.1/DTD/svg11.dtd" >
<svg xmlns="http://www.w3.org/2000/svg">
<metadata>
Created by FontForge 20120731 at Fri Jun 23 14:54:17 2017
 By admin
</metadata>
<defs>
<font id="iconfont" horiz-adv-x="1024" >
  <font-face 
    font-family="iconfont"
    font-weight="500"
    font-stretch="normal"
    units-per-em="1024"
    panose-1="2 0 6 3 0 0 0 0 0 0"
    ascent="896"
    descent="-128"
    x-height="792"
    bbox="0 -149 1039 896"
    underline-thickness="0"
    underline-position="0"
    unicode-range="U+0078-E8B6"
  />
<missing-glyph 
 />
    <glyph glyph-name=".notdef" 
 />
    <glyph glyph-name=".notdef" 
 />
    <glyph glyph-name=".null" horiz-adv-x="0" 
 />
    <glyph glyph-name="nonmarkingreturn" horiz-adv-x="341" 
 />
    <glyph glyph-name="x" unicode="x" horiz-adv-x="1001" 
d="M281 543q-27 -1 -53 -1h-83q-18 0 -36.5 -6t-32.5 -18.5t-23 -32t-9 -45.5v-76h912v41q0 16 -0.5 30t-0.5 18q0 13 -5 29t-17 29.5t-31.5 22.5t-49.5 9h-133v-97h-438v97zM955 310v-52q0 -23 0.5 -52t0.5 -58t-10.5 -47.5t-26 -30t-33 -16t-31.5 -4.5q-14 -1 -29.5 -0.5
t-29.5 0.5h-32l-45 128h-439l-44 -128h-29h-34q-20 0 -45 1q-25 0 -41 9.5t-25.5 23t-13.5 29.5t-4 30v167h911zM163 247q-12 0 -21 -8.5t-9 -21.5t9 -21.5t21 -8.5q13 0 22 8.5t9 21.5t-9 21.5t-22 8.5zM316 123q-8 -26 -14 -48q-5 -19 -10.5 -37t-7.5 -25t-3 -15t1 -14.5
t9.5 -10.5t21.5 -4h37h67h81h80h64h36q23 0 34 12t2 38q-5 13 -9.5 30.5t-9.5 34.5q-5 19 -11 39h-368zM336 498v228q0 11 2.5 23t10 21.5t20.5 15.5t34 6h188q31 0 51.5 -14.5t20.5 -52.5v-227h-327z" />
    <glyph glyph-name="lingdang" unicode="&#xe600;" 
d="M645 -52q6 0 -3.5 -15t-29 -33t-46 -33t-56.5 -15q-27 0 -52 15t-44 33t-29 33t-6 15h266zM893 33q7 -9 6.5 -17.5t-4.5 -14.5t-10 -9.5t-12 -3.5h-730q-14 0 -20.5 11.5t4.5 28.5q17 30 40 67t43.5 79.5t35.5 90t15 99.5q0 50 14 90t36.5 70t52 51t61.5 32
q-16 26 -16 54q0 41 28 69t69 28t69 -28t28 -69q0 -14 -4 -27.5t-11 -24.5q34 -11 64.5 -32t53 -52t36 -71t13.5 -89q0 -50 15 -98.5t36 -92t44.5 -79.5t42.5 -62v0zM467 661q0 -16 11 -27.5t27 -11.5h2q16 1 27 12t11 27q0 17 -11 28t-28 11t-28 -11t-11 -28v0z" />
    <glyph glyph-name="icon104" unicode="&#xe665;" 
d="M840 89l56 35l-21 51l-64 -15q-14 19 -33 33l14 64l-50 22l-35 -56q-24 4 -47 0l-35 56l-50 -21l14 -64q-20 -14 -34 -33l-64 15l-21 -51l55 -35q-4 -23 0 -47l-56 -35l21 -50l64 14q14 -20 34 -34l-15 -64l50 -21l36 56q23 -4 47 0l35 -56l51 21l-15 64q19 14 33 33
l64 -15l21 51l-56 35q4 23 1 47zM753 36q-12 -29 -41.5 -41t-58.5 0.5t-41 41.5t0 58t41.5 41t58.5 0t41 -41.5t0 -58.5zM233 448h338v-68h-338v68zM233 279h300v-67h-300v67zM233 110h236v-67h-236v67zM132 9v439q0 12 5 19t16.5 10t20.5 3.5t26 0.5h101q14 0 24 10t10 24
v103v22.5t2 18.5t7.5 17t14.5 8h245q28 0 48 -20t20 -48v-303h67v303q0 56 -39.5 95.5t-95.5 39.5h-269q-25 0 -51.5 -20.5t-76.5 -71.5l-25 -25l-25 -25q-51 -50 -71.5 -76.5t-20.5 -51.5v-472q0 -56 39.5 -95.5t95.5 -39.5h337v68h-337q-28 0 -48 19.5t-20 47.5z" />
    <glyph glyph-name="chenggong" unicode="&#xe60b;" 
d="M512 -147q-91 0 -174 35t-143 95t-95.5 143t-35.5 174t35.5 174t95.5 143t143 95.5t174 35.5t174 -35.5t143 -95.5t95 -143t35 -174t-35 -174t-95 -143t-143 -95t-174 -35zM776 452v0q-16 16 -38 16t-38 -16l-243 -243l-133 133q-16 16 -38 16t-38 -16v0q-16 -16 -16 -38
t16 -38l156 -157q5 -9 12 -17v0q16 -16 41 -15q24 -1 40 15v0q8 8 12 18l267 267q15 15 15 37t-15 38z" />
    <glyph glyph-name="msnui-maintain-data" unicode="&#xe76c;" 
d="M939 305q-58 -58 -63 -64q-3 -2 -9.5 -3.5t-11.5 -1.5h-5q-53 6 -60 13q-4 4 -7 19.5t-4 29.5l-2 14q-1 15 6 23l64 63q7 9 -3 9q-101 0 -136 -34l-6 -7q-29 -29 -31.5 -69.5t20.5 -71.5l-193 -176q-10 -9 -16 -22.5t-3.5 -33.5t19 -36.5t36.5 -19t33.5 3.5t23.5 15
q126 139 137 151q5 6 6.5 12t0.5 10l-2 3q-22 31 -34 50q-5 7 -3 8.5t9 -2.5q53 -35 61 -38v0q31 -24 71.5 -21.5t69.5 31.5l7 7q32 33 33 134q0 10 -8 4zM549.5 -24q-13.5 0 -23 9.5t-9.5 23t9.5 23t23 9.5t23 -9.5t9.5 -23t-9.5 -23t-23 -9.5zM443 339q80 0 153 15
q23 62 77.5 101t122.5 39h9q1 0 1 2.5v3.5v124q0 -44 -48.5 -81t-132 -59t-182.5 -22t-182.5 22t-132 59t-48.5 81v-124q0 -44 48.5 -81t132 -58.5t182.5 -21.5zM443 507q99 0 182.5 21.5t132 58.5t48.5 81t-48.5 81.5t-132 59t-182.5 21.5t-182.5 -21.5t-132 -59
t-48.5 -81.5t48.5 -81t132 -58.5t182.5 -21.5zM443 171q27 0 59 2l83 83v0q-1 13 -1 26q0 11 1 25q-68 -13 -142 -13q-99 0 -182.5 22t-132 59t-48.5 81v-124q0 -43 48.5 -80.5t132 -59t182.5 -21.5zM80 288v-123q0 -64 96.5 -110.5t237.5 -51.5q-4 32 2 61t21 44l19 19
q-2 0 -6.5 -0.5t-6.5 -0.5q-99 0 -182.5 22t-132 59t-48.5 81z" />
    <glyph glyph-name="msnui-maintain" unicode="&#xe76d;" 
d="M910 598l-46 -46q-36 -36 -88 -36t-88.5 36.5t-36.5 88t36 88.5q21 20 46 45q20 19 8 36t-45 12q-74 -11 -126 -64q-42 -42 -58 -97.5t-4 -111.5l-383 -383q-37 -37 -37 -88.5t36.5 -88t88.5 -36.5t88 36l383 383q56 -11 112 5t98 57q52 53 64 127q5 33 -12 45t-36 -8z
M242.5 48q-12.5 -12 -29.5 -12t-29.5 12t-12.5 29.5t12.5 29.5t29.5 12t29.5 -12t12.5 -29.5t-12.5 -29.5zM201 590l144 -144l59 59l-144 144l-33 62l-103 73l-59 -58l74 -104zM684 284q-7 6 -15.5 6t-14.5 -6l-88 -88q-6 -6 -6 -15t6 -15l208 -208q24 -24 59 -24t59 24
t24 58.5t-24 59.5z" />
    <glyph glyph-name="guanlianmendian" unicode="&#xe619;" 
d="M828 615.5q-63 63.5 -144.5 97t-171 33.5t-171 -33.5t-145 -97t-97 -145t-33.5 -170.5q0 -133 72 -244q7 -11 19.5 -13.5t23.5 4.5t13.5 19.5t-4.5 23.5q-62 95 -62 210q0 104 51.5 192.5t140 140t193 51.5t193 -51.5t140 -140t51.5 -193t-51.5 -193t-140 -140
t-193.5 -51.5q-107 0 -198 55q-11 7 -23.5 4t-19.5 -14t-4 -23.5t14 -19.5q107 -64 231 -64q90 0 171.5 33.5t144.5 97t97 145t34 171t-34 171t-97 145zM583 305q-44 -42 -73 -14q-9 9 -21.5 9t-21 -8.5t-8.5 -21t9 -20.5q30 -29 67 -29q46 0 91 43l96 93q33 32 33 78
t-33 79q-35 34 -79 35.5t-77 -29.5l-30 -30q-9 -8 -9 -20.5t8.5 -21t21 -8.5t21.5 9l31 29q18 15 36.5 12.5t34 -18t15.5 -37t-15 -37.5zM395 354l-90 -87q-34 -33 -34 -79t33.5 -78.5t81 -32.5t80.5 33l25 24q9 8 9 20t-9 20.5t-21.5 9t-20.5 -8.5l-25 -24
q-16 -15 -38.5 -15t-38.5 15.5t-16 37t16 36.5l90 87q50 49 80 20q9 -8 21 -8t21 8.5t9 20.5t-9 21q-33 31 -77.5 26t-86.5 -46z" />
    <glyph glyph-name="guanli" unicode="&#xe7b1;" 
d="M124 781v0v0zM686 257zM377 539q0 65 -46 110.5t-110.5 45.5t-110 -45.5t-45.5 -110.5q0 -63 43 -108q-11 -47 -11 -96q0 -109 53 -202t142 -149l32 128q-49 41 -77 99t-28 124q0 25 4 48q64 1 109 46.5t45 109.5v0v0zM510 626q80 0 148 -40q-11 -27 -11 -56
q0 -65 46 -110.5t110.5 -45.5t110 45.5t45.5 110t-45.5 110t-110.5 45.5q-29 0 -57 -10q-106 74 -236 74q-87 0 -167 -35l72 -104q46 16 95 16v0v0zM801 322q-4 -78 -45.5 -143t-109.5 -101q-19 39 -56.5 62t-82.5 23q-64 0 -110 -45.5t-46 -110t46 -110.5t110 -46
q48 0 87 26.5t57 69.5q121 44 196.5 150t75.5 238v28l-122 -41v0v0zM801 322z" />
    <glyph glyph-name="liaotian" unicode="&#xe653;" 
d="M833 566q11 -39 11 -80q0 -90 -53.5 -167t-146 -121.5t-201.5 -44.5q-68 0 -132 18l63 39q33 -5 65 -5q95 0 176 41t128 112t47 154.5t-47 154t-128 112t-176.5 41.5t-176 -41.5t-127.5 -112t-47 -154.5q0 -72 36 -135.5t99 -106.5v-153l79 49q49 -58 122.5 -91
t158.5 -33q32 0 65 6l151 -93v153q63 43 99 106t36 136q0 62 -26.5 118t-74.5 98zM614.5 549q16.5 0 28.5 -12t12 -28.5t-12 -28.5t-28.5 -12t-28.5 12t-12 28.5t12 28.5t28.5 12zM452.5 549q16.5 0 28.5 -12t12 -28.5t-12 -28.5t-28.5 -12t-28.5 12t-12 28.5t12 28.5
t28.5 12zM250 508.5q0 16.5 11.5 28.5t28.5 12t29 -12t12 -28.5t-12 -28.5t-29 -12t-28.5 12t-11.5 28.5z" />
    <glyph glyph-name="shanchu1" unicode="&#xe60c;" 
d="M654 686h-284h-228v114h228v57h284v-57h228v-114h-228zM825 60q0 -47 -33.5 -80.5t-80.5 -33.5h-398q-47 0 -80.5 33.5t-33.5 80.5v569h626v-569zM370 515h-57v-455h57v455zM540 515h-56v-455h56v455zM711 515h-57v-455h57v455z" />
    <glyph glyph-name="shanchu3" unicode="&#xe61d;" 
d="M128 711q0 20 14.5 34.5t34.5 14.5h247v49q0 20 14.5 34.5t34.5 14.5h99q20 0 34.5 -14.5t14.5 -34.5v-49h247q20 0 34.5 -14.5t14.5 -34.5v-49h-789v49zM868 564v-98v-507q0 -20 -14.5 -34.5t-34.5 -14.5h-592q-21 0 -35.5 14.5t-14.5 34.5v507v98v49h691v-49zM375 466
q0 20 -14.5 34.5t-35 14.5t-35 -14.5t-14.5 -34.5v-409q0 -20 14.5 -34.5t35 -14.5t35 14.5t14.5 34.5v409v0zM572 466q0 20 -14.5 34.5t-35 14.5t-35 -14.5t-14.5 -34.5v-409q0 -20 14.5 -34.5t35 -14.5t35 14.5t14.5 34.5v409zM769 466q0 20 -14.5 34.5t-34.5 14.5
t-34.5 -14.5t-14.5 -34.5v-409q0 -20 14.5 -34.5t34.5 -14.5t34.5 14.5t14.5 34.5v409z" />
    <glyph glyph-name="cf-c100" unicode="&#xe67b;" 
d="M838 731q-89 89 -208.5 120.5t-239 0t-208.5 -120.5q-66 -66 -101 -153t-35 -175t35 -174.5t101.5 -153t153.5 -101.5t174.5 -35t174.5 35t153 101q89 89 121 208.5t0 239t-121 208.5v0zM790 122q-57 -58 -131 -87.5t-149.5 -29.5t-149.5 29.5t-131 87.5q-77 76 -104 178
t0 204.5t104 178.5q57 57 131 87t149.5 30t149.5 -30t131.5 -87t87 -131t29.5 -149.5t-29.5 -149.5t-87.5 -131v0zM470 250q-12 -12 -29.5 -12t-29.5 12v0q-12 12 -12 29.5t12 29.5l245 245q12 12 29.5 12t29.5 -12v0q12 -12 12 -30t-12 -30zM470 310q12 -12 12 -29.5
t-12 -29.5v0q-12 -12 -29.5 -12t-29.5 12l-104 104q-12 12 -12 29.5t12 29.5v0q12 12 29.5 12t29.5 -12zM470 310z" />
    <glyph glyph-name="daochu5" unicode="&#xe61c;" 
d="M123 -60q-24 0 -40.5 17t-16.5 40v630q0 24 16.5 40.5t40.5 16.5h133q35 0 47.5 -32.5t-14.5 -55.5l-17 -16h-102v-534h565v125l13 10q15 10 33 10q24 0 41 -16.5t17 -40.5v-137q0 -23 -17 -40t-41 -17h-658zM624 414q-49 -1 -86 -4q-7 0 -17 -1q-19 -1 -45 -7
q-52 -14 -98 -43q-6 -4 -21 -13q-75 -46 -94 -69q-9 -12 -22 -12q-4 0 -7 1q-20 5 -20 26v1l1 2q19 95 49 161t78 115q48 51 123 74q67 21 159 22v167l334 -293l-334 -294v167z" />
    <glyph glyph-name="zhankai2" unicode="&#xe675;" 
d="M512 733q-95 0 -175.5 -46.5t-127 -127t-46.5 -175.5t46.5 -175.5t127 -127t175.5 -46.5t175.5 46.5t127 127t46.5 175.5t-46.5 175.5t-127 127t-175.5 46.5v0zM667 345h-116h-78h-116v78h116h78h116v-78v0zM667 345z" />
    <glyph glyph-name="gongyongzhixing" unicode="&#xe79d;" 
d="M959 384q0 29 -21 50t-50.5 21t-50 -21t-20.5 -50q0 -22 12 -39.5t31 -25.5q-20 -108 -98 -185q-103 -104 -250 -104q-97 0 -180.5 49.5t-130.5 134.5q-4 8 -12.5 10.5t-16.5 -2t-10.5 -13t1.5 -16.5q53 -95 146.5 -150.5t202.5 -55.5q81 0 155 31q71 30 126 85t85 126
q18 42 25 86q24 5 40 24.5t16 44.5zM207 384q0 22 -12 39.5t-31 25.5q20 108 98 185q103 104 250 104q97 0 180.5 -49.5t130.5 -134.5q4 -8 12.5 -10.5t16.5 2t10.5 13t-1.5 16.5q-53 95 -146.5 150.5t-202.5 55.5q-81 0 -155 -31q-71 -30 -126 -85t-85 -126
q-18 -42 -25 -86q-24 -5 -40 -24.5t-16 -44.5q0 -29 21 -50t50.5 -21t50 21t20.5 50z" />
    <glyph glyph-name="shouzhimingxi" unicode="&#xe697;" 
d="M688 675q22 0 38 15t16 37v53q0 21 -16 36.5t-38.5 15.5t-38.5 -15.5t-16 -36.5v-53q0 -22 16 -37t39 -15v0zM688 675zM334 675q23 0 39 15t16 37v53q0 21 -16 36.5t-39 15.5t-39 -15.5t-16 -36.5v-53q0 -22 16 -37t39 -15v0zM334 675zM778 749v-32q0 -31 -26.5 -52.5
t-64.5 -21.5t-65 21.5t-27 52.5v37h-170v-37q0 -31 -27 -52.5t-64.5 -21.5t-64.5 21.5t-27 52.5v31q-36 -11 -59.5 -42t-23.5 -70v-590q0 -49 34.5 -83.5t83.5 -34.5h469q49 0 83 34.5t34 83.5v590q0 40 -23.5 71t-61.5 42v0zM735 74h-447q-14 0 -24 10t-10 24.5t10 24.5
t24 10h447q14 0 24 -10t10 -24.5t-10 -24.5t-24 -10v0zM735 258h-447q-14 0 -24 10.5t-10 25t10 24.5t24 10h447q14 0 24 -10t10 -24.5t-10 -25t-24 -10.5v0zM735 443h-447q-14 0 -24 10.5t-10 24.5t10 24.5t24 10.5h447q14 0 24 -10.5t10 -24.5t-10 -24.5t-24 -10.5v0z
M735 443z" />
    <glyph glyph-name="yonghu" unicode="&#xe639;" 
d="M501 833q94 0 161 -65.5t67 -158t-67 -158.5t-161 -66t-160.5 66t-66.5 158.5t66.5 158t160.5 65.5v0v0zM501 833q94 0 161 -65.5t67 -158t-67 -158.5t-161 -66t-160.5 66t-66.5 158.5t66.5 158t160.5 65.5v0v0zM416 311h189q122 0 208 -84.5t86 -204.5v-19
q0 -15 -9.5 -26.5t-31 -18.5t-44.5 -11t-61.5 -6t-68.5 -2.5t-79 -0.5h-189q-53 0 -79.5 0.5t-68 2t-62 5.5t-43.5 11t-32 18.5t-9 27.5v19q0 120 86 204.5t208 84.5v0v0z" />
    <glyph glyph-name="guanlian" unicode="&#xe6b0;" 
d="M517 885q-102 0 -195 -39.5t-160.5 -107t-107 -160.5t-39.5 -195t39.5 -195t107 -160t160.5 -107t195 -40t195 40t160 107t107 160t40 195t-40 195t-107 160.5t-160 107t-195 39.5zM489 154l-30 -29q-41 -40 -99.5 -40t-99.5 40t-41 96.5t41 96.5l111 108q52 50 107 56.5
t95 -32.5q11 -11 11 -25.5t-11 -25.5t-26 -11t-26 11q-36 35 -98 -25l-111 -107q-19 -19 -19 -45.5t19.5 -45.5t47 -19t47.5 19l30 29q11 11 26.5 11t26 -11t10.5 -25.5t-11 -25.5zM774 429l-119 -114q-55 -54 -111 -54q-46 0 -83 36q-11 11 -11 26t10.5 25.5t26 10.5
t26.5 -10q36 -36 90 17l119 114q19 19 19 46t-19.5 45.5t-42 22t-45.5 -14.5l-37 -37q-11 -10 -26.5 -10t-26 10.5t-10.5 25.5t11 25l37 37q40 38 94 36t98 -44q41 -40 41 -96.5t-41 -96.5z" />
    <glyph glyph-name="comments" unicode="&#xe740;" horiz-adv-x="1027" 
d="M805 457q0 -79 -54 -146.5t-147 -106.5t-202 -39q-49 0 -100 9q-71 -51 -159 -73q-21 -6 -49 -10h-2q-6 0 -11.5 5t-6.5 12q-1 2 -1 4t3 3.5t1 3.5l2 3l2 3l2 3l2 3l3 2q3 4 13 14.5t14.5 16.5t13 16.5t14.5 22t12 25.5q-71 41 -111.5 101t-40.5 128q0 80 53.5 147
t146.5 106.5t202 39.5t202 -39.5t146.5 -106.5t53.5 -147h-2zM1027 311q0 -69 -41 -128.5t-111 -100.5q5 -14 11 -25.5t14.5 -22t13 -16.5t15 -17t12.5 -14q1 -1 2.5 -3t2.5 -2.5t2.5 -2.5t2.5 -4l1 -2l1 -4l3 -4l-1 -3q-1 -8 -7 -12.5t-13 -4.5q-28 4 -49 9q-88 23 -159 73
q-51 -9 -100 -9q-155 0 -270 76q33 -3 50 -3q92 0 177 26t151 74q71 52 109.5 121t38.5 145q0 44 -13 87q73 -41 116 -102t43 -131h-2z" />
    <glyph glyph-name="xitongzhuangtaizhixingzhong" unicode="&#xe818;" 
d="M480 896q-98 0 -186.5 -38t-153 -102.5t-102.5 -153t-38 -186.5t38 -186.5t102.5 -153t153 -102.5t186.5 -38t186.5 38t153 102.5t102.5 153t38 186.5t-38 186.5t-102.5 153t-153 102.5t-186.5 38zM480 0q-172 0 -294 122t-122 294t122 294t294 122t294 -122t122 -294
t-122 -294t-294 -122zM256 448h64v-64h-64v64zM448 448h64v-64h-64v64zM640 448h64v-64h-64v64z" />
    <glyph glyph-name="jinggao1" unicode="&#xe810;" 
d="M511 227q-20 0 -34 -14t-14 -34t14 -34t34 -14t34 14t14 34t-14 34t-34 14zM511.5 831q-90.5 0 -173.5 -35.5t-142.5 -95.5t-95 -142.5t-35.5 -173t35.5 -173t95 -142.5t142.5 -95t173.5 -35t173 35t142.5 95t95 142.5t35 173t-35 173t-95 142.5t-142.5 95.5t-173 35.5z
M511.5 3q-103.5 0 -191.5 51t-139.5 139t-51.5 191.5t51.5 191.5t139.5 139.5t191.5 51.5t191.5 -51.5t139 -139.5t51 -191.5t-51 -191.5t-139 -139t-191.5 -51zM508 304q16 0 27.5 11.5t11.5 27.5v295q0 16 -11.5 27.5t-27.5 11.5t-27 -11.5t-11 -27.5v-295q0 -16 11 -27.5
t27 -11.5z" />
    <glyph glyph-name="zhankai5" unicode="&#xe6ab;" 
d="M366 455h289l-144 -144z" />
    <glyph glyph-name="riqi1" unicode="&#xe679;" 
d="M512 896q-139 0 -257 -68.5t-186.5 -186.5t-68.5 -257t68.5 -257t186.5 -186.5t257 -68.5t257 68.5t186.5 186.5t68.5 257t-68.5 257t-186.5 186.5t-257 68.5zM512 -64q-185 0 -316.5 131.5t-131.5 316.5t131.5 316.5t316.5 131.5t316.5 -131.5t131.5 -316.5
t-131.5 -316.5t-316.5 -131.5zM546 735h-64v-404h294v64h-230v340z" />
    <glyph glyph-name="shuju" unicode="&#xe610;" horiz-adv-x="1094" 
d="M572 422h467q0 6 -0.5 16t-4.5 40t-11.5 60t-24 70.5t-38.5 76.5t-58.5 73t-81.5 65t-109 48t-139 25v-474zM957 350q0 -97 -37.5 -185.5t-100.5 -152.5t-150.5 -102t-183.5 -38t-183 38t-150.5 102t-101 152.5t-37.5 185.5t37.5 185.5t101 152.5t150.5 102t183 38v-478
h472v0z" />
    <glyph glyph-name="chakanxiangmu" unicode="&#xe668;" 
d="M894 101l-66 -66l-123 123q-43 -24 -90 -24q-77 0 -131.5 54.5t-54.5 131.5t54.5 132t131.5 55t131.5 -55t54.5 -132q0 -52 -28 -97zM614.5 413q-38.5 0 -65.5 -27t-27 -65.5t27 -66t65.5 -27.5t66 27.5t27.5 66t-27.5 65.5t-66 27zM312 553q-9 0 -16 7t-7 16v47
q0 10 7 16.5t16 6.5h233q10 0 16.5 -6.5t6.5 -16.5v-47q0 -9 -6.5 -16t-16.5 -7h-233zM289 390v47q0 9 7 16t16 7h70v-93h-70q-9 0 -16 7t-7 16zM661 716q0 10 -6.5 16.5t-16.5 6.5h-419q-10 0 -16.5 -6.5t-6.5 -16.5v-559q0 -9 6.5 -16t16.5 -7h210v-93h-280
q-19 0 -32.5 13.5t-13.5 33.5v698q0 19 13.5 32.5t32.5 13.5h559q19 0 32.5 -13.5t13.5 -32.5v-233h-93v163z" />
    <glyph glyph-name="zhihangli" unicode="&#xe755;" 
d="M516.5 862q-97.5 0 -186 -38t-152.5 -102.5t-102 -153t-38 -186.5t38 -187t102 -153t152.5 -102t186 -38t186 38t152.5 102t101.5 153t37.5 187t-37.5 186.5t-101.5 153t-152.5 102.5t-186 38zM516.5 -8q-105.5 0 -195 52.5t-141.5 142t-52 195.5t52 195.5t141.5 142
t195 52.5t194.5 -52.5t141 -142t52 -195.5t-52 -195.5t-141 -142t-194.5 -52.5zM516 445q-26 0 -44.5 -18.5t-18.5 -44.5t18.5 -45t44.5 -19t44.5 19t18.5 45t-18.5 44.5t-44.5 18.5zM282 445q-26 0 -44.5 -18.5t-18.5 -44.5t18.5 -45t44.5 -19t44.5 19t18.5 45t-18.5 44.5
t-44.5 18.5zM751 445q-26 0 -44.5 -18.5t-18.5 -44.5t18.5 -45t44.5 -19t44.5 19t18.5 45t-18.5 44.5t-44.5 18.5z" />
    <glyph glyph-name="icon-test" unicode="&#xe640;" 
d="M512 759q-102 0 -188.5 -50t-136.5 -136.5t-50 -188.5t50 -188.5t136.5 -136.5t188.5 -50t188.5 50t136.5 136.5t50 188.5t-50 188.5t-136.5 136.5t-188.5 50zM717 490l-249 -250l-2 -2q-9 -8 -20.5 -8t-19.5 8l-119 120q-12 11 -8 27t20 20t27 -8l100 -99l232 232
q11 12 27 7.5t20 -20t-8 -27.5z" />
    <glyph glyph-name="shezhi2" unicode="&#xe688;" 
d="M914 447l-74 13q-13 54 -43 102l41 58q12 16 10.5 36.5t-16.5 34.5l-12 12q-14 14 -34.5 16t-36.5 -10l-58 -41q-48 30 -102 42l-13 75q-3 20 -18.5 33t-36.5 13h-17q-21 0 -36.5 -13t-18.5 -33l-13 -75q-54 -12 -102 -42l-58 41q-16 12 -36.5 10t-34.5 -16l-12 -12
q-15 -14 -16.5 -34.5t10.5 -36.5l41 -58q-30 -48 -43 -102l-74 -13q-20 -3 -33.5 -19t-13.5 -36v-17q0 -21 13.5 -36.5t33.5 -19.5l74 -12q13 -54 43 -102l-41 -58q-12 -17 -10.5 -37t16.5 -35l12 -12q14 -14 34.5 -15.5t36.5 9.5l58 42q48 -30 102 -43l13 -74
q3 -20 18.5 -33.5t36.5 -13.5h17q21 0 36.5 13.5t18.5 33.5l13 74q54 13 102 43l58 -42q16 -11 36.5 -9.5t34.5 15.5l12 12q15 15 16.5 35t-10.5 37l-41 58q30 47 43 102l74 12q20 4 33.5 19.5t13.5 36.5v17q0 20 -13.5 36t-33.5 19zM512.5 215q-69.5 0 -118.5 49.5t-49 119
t49 118.5t118.5 49t119 -49t49.5 -118.5t-49.5 -119t-119 -49.5z" />
    <glyph glyph-name="tingjiweihupeizhi" unicode="&#xe8b6;" 
d="M959 389q0 90 -35.5 172t-95.5 141t-142.5 94t-173.5 35t-174 -35t-142.5 -94t-95 -141t-35.5 -172v-4v-4q0 -90 35.5 -172t95 -141t142.5 -94t174 -35t173.5 35t142.5 94t95.5 141t35.5 172l-1 4q1 3 1 4zM511.5 23q-96.5 0 -178 47.5t-129 130t-47.5 180.5v1v1v0v1v1
v0.5v1.5v0v1v1q0 97 47.5 179.5t129 130.5t178 48t178 -48t129 -130.5t47.5 -179.5v-1v-1v0v-1.5v-0.5v-1v-1v0v-1v-1q0 -98 -47.5 -180.5t-129 -130t-178 -47.5zM764 369q0 -12 -8.5 -20.5t-20.5 -8.5h-452q-12 0 -20.5 8.5t-8.5 20.5v34q0 12 8.5 20.5t20.5 8.5h452
q12 0 20.5 -8.5t8.5 -20.5v-34z" />
    <glyph glyph-name="jinggao2" unicode="&#xe625;" 
d="M512 896q-106 0 -199.5 -40t-163 -109.5t-109.5 -163t-40 -199.5t40 -199.5t109.5 -163t163 -109.5t199.5 -40t199.5 40t163 109.5t109.5 163t40 199.5t-40 199.5t-109.5 163t-163 109.5t-199.5 40zM512 94h-1q-24 0 -41 17t-17 41v1q0 24 17 41q17 18 41 18h1
q25 0 42 -17.5t17 -42t-17 -41.5t-41 -17h-1v0zM571 350q0 -25 -17 -42q-17 -18 -41 -18h-1h-1q-24 0 -41 18q-17 16 -17 41v1v275q0 25 17 42t41 17h1q25 0 42 -17t17 -42v-276v1z" />
    <glyph glyph-name="bianji2" unicode="&#xe621;" 
d="M102 -60l165 46q26 8 33 32.5t-10 41.5l-119 119q-17 18 -43.5 10.5t-30.5 -33.5l-46 -159q-12 -24 6.5 -42.5t44.5 -14.5zM614 691l-500 -495q-26 -25 -26 -62t26 -63l68 -68q26 -26 63 -26t62 26l501 495zM927 742l-68 69q-26 25 -63 25t-62 -25l-63 -63l194 -193
l62 62q26 26 26 63t-26 62zM910 94h-375l-131 -131h506q17 0 28.5 15t11.5 36v29q4 20 -9 35.5t-31 15.5z" />
    <glyph glyph-name="riqi2" unicode="&#xe613;" 
d="M512 896q-104 0 -199 -40.5t-163.5 -109t-109 -163.5t-40.5 -199t40.5 -199t109 -163.5t163.5 -109t199 -40.5t199 40.5t163.5 109t109 163.5t40.5 199t-40.5 199t-109 163.5t-163.5 109t-199 40.5zM512 -64q-91 0 -174 35.5t-143 95.5t-95.5 143t-35.5 174t35.5 174
t95.5 143t143 95.5t174 35.5t174 -35.5t143 -95.5t95.5 -143t35.5 -174t-35.5 -174t-95.5 -143t-143 -95.5t-174 -35.5zM544 397v346q0 13 -9.5 22.5t-22.5 9.5t-22.5 -9.5t-9.5 -22.5v-359q0 -13 9 -23l198 -197q9 -9 22 -9t22.5 9.5t9.5 22.5t-9 22z" />
  </font>
</defs>
</svg>
