<?xml version="1.0" standalone="no"?>
<!DOCTYPE svg PUBLIC "-//W3C//DTD SVG 1.1//EN" "http://www.w3.org/Graphics/SVG/1.1/DTD/svg11.dtd" >
<svg xmlns="http://www.w3.org/2000/svg">
<metadata>Generated by IcoMoon</metadata>
<defs>
<font id="ygmat" horiz-adv-x="1024">
<font-face units-per-em="1024" ascent="960" descent="-64" />
<missing-glyph horiz-adv-x="1024" />
<glyph unicode="&#x20;" horiz-adv-x="512" d="" />
<glyph unicode="&#xe900;" glyph-name="box" d="M15.36 673.28l481.28-225.28c5.12 0 10.24-5.12 15.36-5.12s10.24 0 15.36 5.12l476.16 225.28c10.24 5.12 20.48 15.36 20.48 30.72s-5.12 25.6-20.48 30.72l-476.16 220.16c-10.24 5.12-20.48 5.12-25.6 0l-481.28-220.16c-10.24-5.12-20.48-15.36-20.48-30.72s5.12-25.6 15.36-30.72zM512 888.32l399.36-184.32-399.36-189.44-404.48 189.44 404.48 184.32zM972.8 596.48l-460.8-215.040-465.92 215.040c-10.24 5.12-20.48 5.12-30.72 0s-15.36-15.36-15.36-25.6v-373.76c0-15.36 5.12-25.6 20.48-30.72l481.28-220.16c5.12 0 10.24-5.12 15.36-5.12s10.24 0 15.36 5.12l476.16 220.16c10.24 5.12 20.48 15.36 20.48 30.72v373.76c0 10.24-5.12 20.48-15.36 25.6-15.36 0-30.72 5.12-40.96 0zM952.32 212.48l-445.44-204.8-445.44 204.8v302.080l435.2-199.68c10.24-5.12 20.48-5.12 25.6 0l430.080 199.68v-302.080z" />
<glyph unicode="&#xe901;" glyph-name="box2" d="M988.16 704l-476.16 220.16-481.28-220.16 481.28-225.28zM30.72 565.76v-373.76l481.28-220.16 476.16 220.16v373.76l-476.16-220.16z" />
<glyph unicode="&#xe902;" glyph-name="earth" d="M496.64 38.4v389.12h66.56c10.24 0 20.48 10.24 20.48 20.48s-10.24 20.48-20.48 20.48h-66.56v184.32c46.080 5.12 102.4 15.36 158.72 35.84 40.96-92.16 35.84-168.96 35.84-168.96 0-10.24 10.24-20.48 20.48-20.48 0 0 0 0 0 0 10.24 0 20.48 10.24 20.48 20.48 0 5.12 0 92.16-40.96 189.44 20.48 10.24 35.84 20.48 56.32 30.72 0 0 0 0 0 0 66.56-61.44 107.52-148.48 122.88-240.64 0-20.48 20.48-35.84 40.96-35.84s35.84 20.48 35.84 40.96c-30.72 240.64-230.4 419.84-471.040 419.84-271.36 5.12-481.28-209.92-481.28-476.16s215.040-476.16 481.28-476.16c20.48 0 40.96 15.36 40.96 40.96-5.12 5.12-10.24 15.36-20.48 25.6zM399.36 53.76c-35.84 30.72-61.44 71.68-81.92 117.76 40.96 20.48 92.16 35.84 143.36 30.72v-153.6c-25.6 0-46.080 0-61.44 5.12zM322.56 74.24c-30.72 10.24-61.44 30.72-92.16 51.2 10.24 10.24 25.6 15.36 46.080 25.6 15.36-25.6 30.72-51.2 46.080-76.8zM455.68 243.2c-56.32 0-112.64-15.36-158.72-35.84-30.72 81.92-40.96 163.84-46.080 220.16h204.8v-184.32zM250.88 468.48c0 87.040 20.48 158.72 40.96 220.16 46.080-20.48 102.4-30.72 163.84-35.84v-184.32h-204.8zM373.76 821.76c10.24 5.12 40.96 20.48 81.92 25.6v-153.6c-56.32 0-107.52 15.36-143.36 30.72 25.6 56.32 51.2 92.16 61.44 97.28zM271.36 739.84c-15.36 10.24-30.72 20.48-40.96 25.6 25.6 20.48 56.32 40.96 87.040 51.2-15.36-15.36-30.72-46.080-46.080-76.8zM496.64 693.76v153.6c5.12 0 15.36 0 20.48 0 0 0 0 0 0 0 10.24 0 20.48-5.12 30.72-5.12 40.96-35.84 66.56-76.8 87.040-112.64-51.2-20.48-97.28-30.72-138.24-35.84zM675.84 744.96c-10.24 25.6-30.72 51.2-46.080 71.68 30.72-15.36 61.44-30.72 87.040-51.2-15.36-5.12-30.72-15.36-40.96-20.48zM199.68 739.84c10.24-10.24 30.72-20.48 56.32-35.84-25.6-66.56-46.080-143.36-46.080-235.52h-138.24c5.12 107.52 51.2 199.68 128 271.36zM71.68 427.52h138.24c0-61.44 15.36-153.6 51.2-240.64-25.6-15.36-46.080-25.6-61.44-35.84-76.8 71.68-122.88 168.96-128 276.48zM901.12 243.2c-10.24 0-20.48-5.12-25.6-15.36 0-5.12-20.48-107.52-107.52-107.52-10.24 0-20.48-10.24-20.48-20.48s10.24-20.48 20.48-20.48c97.28 0 138.24 92.16 148.48 138.24 0 15.36-5.12 25.6-15.36 25.6zM752.64 340.48c-5.12 10.24-15.36 15.36-25.6 10.24-5.12 0-71.68-30.72-87.040-92.16-5.12-10.24 5.12-20.48 15.36-25.6 0 0 5.12 0 5.12 0 10.24 0 15.36 5.12 20.48 15.36 10.24 40.96 66.56 61.44 66.56 61.44 5.12 5.12 10.24 20.48 5.12 30.72zM1013.76 23.040l-46.080 46.080c30.72 40.96 51.2 92.16 51.2 148.48 0 133.12-112.64 245.76-245.76 245.76-138.24 0-245.76-112.64-245.76-245.76s112.64-245.76 245.76-245.76c56.32 0 102.4 15.36 143.36 46.080l46.080-46.080c10.24-10.24 35.84-10.24 51.2 0 15.36 15.36 15.36 35.84 0 51.2zM773.12 43.52c-92.16 0-168.96 76.8-168.96 174.080s76.8 174.080 168.96 174.080c92.16 0 168.96-76.8 168.96-174.080s-76.8-174.080-168.96-174.080z" />
<glyph unicode="&#xe903;" glyph-name="earth2" d="M1013.76 28.16l-46.080 46.080c30.72 40.96 51.2 92.16 51.2 148.48 0 133.12-107.52 245.76-245.76 245.76s-245.76-112.64-245.76-245.76c0-133.12 112.64-245.76 245.76-245.76 56.32 0 102.4 15.36 143.36 46.080l46.080-46.080c10.24-15.36 35.84-15.36 51.2 0s15.36 35.84 0 51.2zM583.68 217.6c0 102.4 87.040 189.44 189.44 189.44 107.52 0 189.44-87.040 189.44-189.44s-81.92-189.44-189.44-189.44c-107.52 0-189.44 87.040-189.44 189.44zM773.12 391.68c-97.28 0-174.080-76.8-174.080-174.080s76.8-174.080 174.080-174.080 174.080 76.8 174.080 174.080-76.8 174.080-174.080 174.080zM737.28 314.88c0 0-51.2-20.48-61.44-61.44 0-10.24-10.24-15.36-20.48-15.36h-5.12c-10.24 5.12-20.48 15.36-15.36 25.6 15.36 61.44 87.040 92.16 87.040 92.16 10.24 5.12 20.48 0 25.6-10.24 10.24-15.36 0-25.6-10.24-30.72zM768 74.24c-10.24 0-20.48 10.24-20.48 20.48s10.24 20.48 20.48 20.48c92.16 5.12 107.52 107.52 107.52 107.52 0 10.24 10.24 20.48 25.6 15.36 10.24 0 20.48-10.24 15.36-25.6-5.12-40.96-46.080-133.12-148.48-138.24zM281.6 197.12c51.2 25.6 112.64 46.080 174.080 46.080v184.32h-220.16c5.12-71.68 15.36-148.48 46.080-230.4zM240.64 704c-71.68 30.72-117.76 61.44-117.76 66.56-71.68-81.92-117.76-184.32-122.88-302.080h194.56c0 87.040 20.48 168.96 46.080 235.52zM650.24 806.4c15.36-25.6 25.6-46.080 35.84-71.68 40.96 10.24 87.040 30.72 128 51.2-81.92 87.040-199.68 138.24-327.68 143.36 97.28-10.24 158.72-117.76 163.84-122.88zM296.96 729.6c46.080-10.24 97.28-20.48 158.72-25.6v184.32c-56.32-15.36-117.76-71.68-158.72-158.72zM701.44 494.080c0 0-10.24 97.28-40.96 189.44-56.32-15.36-112.64-20.48-163.84-20.48v-189.44h153.6c15.36 5.12 35.84 10.24 51.2 20.48zM194.56 427.52h-194.56c5.12-128 61.44-240.64 143.36-322.56 5.12 5.12 46.080 40.96 102.4 71.68-35.84 87.040-51.2 174.080-51.2 250.88zM235.52 468.48h220.16v194.56c-66.56 5.12-128 15.36-174.080 30.72-25.6-61.44-46.080-138.24-46.080-225.28zM496.64 883.2v-179.2c46.080 0 97.28 5.12 148.48 20.48-10.24 20.48-20.48 46.080-35.84 66.56-30.72 46.080-66.56 76.8-112.64 92.16zM256 744.96c51.2 102.4 128 174.080 204.8 184.32-122.88-5.12-230.4-51.2-312.32-128 15.36-10.24 51.2-35.84 107.52-56.32zM742.4 499.2c10.24 0 20.48 0 30.72 0 66.56 0 128-25.6 174.080-61.44 0 5.12 0 10.24 0 15.36 5.12 112.64-35.84 220.16-102.4 302.080h-5.12c-51.2-25.6-97.28-46.080-138.24-61.44 30.72-92.16 40.96-179.2 40.96-194.56zM496.64 176.64v-204.8c40.96 0 76.8 5.12 112.64 20.48-56.32 40.96-102.4 107.52-112.64 184.32zM174.080 79.36c51.2-40.96 112.64-71.68 174.080-92.16-30.72 51.2-61.44 102.4-87.040 153.6-46.080-25.6-76.8-51.2-87.040-61.44zM496.64 268.8c10.24 61.44 46.080 117.76 92.16 163.84h-92.16v-163.84zM409.6-23.040c15.36 0 30.72-5.12 46.080-5.12v230.4c-51.2 0-107.52-20.48-158.72-46.080 30.72-56.32 66.56-117.76 112.64-179.2z" />
<glyph unicode="&#xe904;" glyph-name="install" d="M957.44 524.8c-15.36 5.12-51.2 10.24-71.68 10.24-10.24 40.96-25.6 81.92-46.080 112.64l40.96 56.32c30.72 35.84 25.6 71.68 0 97.28l-10.24 10.24c-25.6 30.72-61.44 25.6-92.16 5.12-15.36-10.24-46.080-30.72-61.44-46.080-35.84 20.48-71.68 40.96-112.64 46.080l-10.24 71.68c-10.24 51.2-35.84 71.68-76.8 71.68h-10.24c-40.96 0-66.56-25.6-71.68-66.56-5.12-15.36-10.24-51.2-10.24-71.68-40.96-10.24-81.92-25.6-117.76-46.080l-56.32 35.84c-51.2 40.96-97.28 0-97.28 0s-46.080-40.96-10.24-97.28c20.48-30.72 30.72-51.2 40.96-61.44-20.48-35.84-35.84-76.8-46.080-117.76l-71.68-10.24c-46.080-5.12-66.56-30.72-66.56-71.68v-10.24c0-40.96 25.6-66.56 66.56-66.56 15.36-5.12 46.080-10.24 71.68-10.24 10.24-40.96 25.6-81.92 51.2-122.88l-35.84-56.32c-30.72-35.84-25.6-71.68 0-97.28v-5.12c25.6-30.72 61.44-25.6 92.16-5.12 15.36 10.24 40.96 30.72 61.44 40.96 35.84-20.48 76.8-40.96 117.76-51.2l10.24-71.68c10.24-40.96 35.84-61.44 76.8-61.44h10.24c35.84 0 61.44 25.6 66.56 61.44 5.12 15.36 10.24 56.32 10.24 76.8 40.96 10.24 81.92 25.6 117.76 46.080l56.32-35.84c35.84-30.72 71.68-25.6 97.28 0l5.12 5.12c30.72 25.6 25.6 61.44 5.12 92.16-10.24 15.36-30.72 40.96-40.96 61.44 20.48 35.84 35.84 76.8 46.080 117.76l71.68 10.24c46.080 5.12 66.56 30.72 66.56 71.68v10.24c0 40.96-25.6 66.56-66.56 71.68zM512 253.44c-107.52 0-189.44 87.040-189.44 194.56s81.92 194.56 189.44 194.56 189.44-87.040 189.44-194.56-87.040-194.56-189.44-194.56z" />
<glyph unicode="&#xe905;" glyph-name="letter" d="M962.56 837.12h-901.12c-35.84 0-61.44-25.6-61.44-61.44v-634.88c0-35.84 25.6-61.44 61.44-61.44h901.12c35.84 0 61.44 25.6 61.44 61.44v634.88c0 35.84-25.6 61.44-61.44 61.44zM865.28 714.24l-353.28-240.64-358.4 240.64h711.68zM896 238.080c0-15.36-10.24-25.6-25.6-25.6h-716.8c-15.36 0-25.6 10.24-25.6 25.6v337.92c40.96-25.6 322.56-209.92 348.16-230.4 35.84-20.48 66.56 0 66.56 0l353.28 235.52v-343.040z" />
<glyph unicode="&#xe906;" glyph-name="logo" d="M1013.76 207.36l-117.76 87.040 122.88 87.040c5.12 5.12 5.12 15.36 5.12 20.48v138.24c0 5.12-30.72 20.48-30.72 20.48l25.6 20.48c5.12 5.12 0 20.48 0 25.6v128c0 0 0 10.24-10.24 15.36l-143.36 102.4c-10.24 5.12-20.48-5.12-25.6-10.24l-81.92-56.32-20.48 15.36v20.48c0 10.24-10.24 10.24-10.24 10.24l-143.36 97.28c-5.12 0-15.36 5.12-20.48 0l-46.080-30.72-71.68 51.2c-5.12 5.12-15.36 0-20.48 0l-409.6-296.96c-10.24-5.12-15.36-10.24-15.36-15.36v-143.36c0-5.12 5.12-10.24 10.24-15.36l20.48-15.36-25.6-15.36c-5.12-5.12-5.12-5.12-5.12-10.24v-281.6c0-5.12 0-5.12 10.24-10.24 0 0 138.24-102.4 143.36-102.4s10.24 0 20.48 0c0 0 87.040 61.44 87.040 66.56l30.72-20.48c5.12-5.12 15.36-5.12 20.48 0l30.72 20.48 87.040-71.68c10.24-10.24 25.6 0 25.6 0l92.16 61.44 30.72-20.48c10.24-5.12 15.36-5.12 25.6 0l25.6 20.48c0 0 220.16-158.72 225.28-163.84s15.36-5.12 20.48 0l138.24 97.28c5.12 5.12 10.24 5.12 10.24 10.24v148.48c0 5.12-5.12 10.24-10.24 15.36zM604.16 130.56v97.28l378.88 271.36v-97.28l-378.88-271.36zM322.56 130.56v92.16l102.4 71.68v-97.28l-102.4-66.56zM40.96 304.64v97.28l240.64-168.96v-97.28c0-5.12-235.52 163.84-240.64 168.96zM163.84 514.56l245.76-179.2-107.52-76.8-245.76 179.2 107.52 76.8zM563.2 709.12v-97.28l-102.4 71.68v97.28l102.4-71.68zM563.2 227.84v-97.28l-102.4 71.68v97.28l102.4-71.68zM496.64 611.84l15.36-5.12-81.92-61.44c-5.12-5.12-10.24-5.12-10.24-10.24v-163.84l-128 97.28c0 0 199.68 143.36 204.8 143.36zM460.8 499.2l87.040-61.44-87.040-66.56v128zM583.68 458.24l-112.64 76.8 66.56 51.2 30.72-20.48c5.12-5.12 5.12-5.12 10.24-5.12 0 0 5.12 0 15.36 5.12l25.6 20.48 66.56-51.2-102.4-76.8zM599.040 611.84v97.28l102.4 71.68v-97.28l-102.4-71.68zM465.92 637.44l-204.8-148.48-66.56 51.2 225.28 158.72v-25.6c0 0 0-10.24 10.24-10.24 15.36-10.24 35.84-25.6 35.84-25.6zM465.92 156.16l46.080-35.84-46.080-30.72v66.56zM890.88 632.32l92.16 66.56v-97.28l-20.48-15.36-71.68 46.080zM860.16 811.52l107.52-76.8-122.88-87.040c-5.12-5.12-5.12-20.48 0-25.6l122.88-87.040-389.12-276.48-107.52 76.8 261.12 184.32c5.12 5.12 10.24 10.24 10.24 15.36s0 10.24-5.12 15.36l-81.92 56.32 76.8 51.2c5.12 5.12 10.24 10.24 10.24 15.36v51.2l117.76 87.040zM578.56 893.44l107.52-76.8-107.52-76.8-107.52 76.8 107.52 76.8zM440.32 913.92l51.2-35.84-56.32-40.96c-15.36-10.24-15.36-10.24-15.36-20.48v-71.68l-256-184.32-112.64 76.8 389.12 276.48zM40.96 504.32v97.28l92.16-66.56-66.56-46.080-25.6 15.36zM40.96 258.56l102.4-71.68v-97.28l-102.4 71.68v97.28zM179.2 89.6v71.68l51.2-35.84-51.2-35.84zM373.76 125.44l51.2 35.84v-71.68l-51.2 35.84zM721.92 171.52c0 0 112.64-81.92 117.76-87.040v-97.28l-189.44 133.12 71.68 51.2zM860.16 115.2c-5.12 5.12-107.52 76.8-107.52 76.8l107.52 76.8 107.52-76.8-107.52-76.8zM983.040 58.88l-97.28-71.68v97.28l97.28 71.68v-97.28zM419.84 673.28c0 0 5.12-10.24 10.24-10.24 5.12-5.12 35.84-25.6 35.84-25.6z" />
<glyph unicode="&#xe907;" glyph-name="menu" d="M957.44 212.48h-890.88c-35.84 0-66.56-30.72-66.56-66.56v-143.36c0-35.84 30.72-66.56 66.56-66.56h890.88c35.84 0 66.56 30.72 66.56 66.56v143.36c0 35.84-30.72 66.56-66.56 66.56zM977.92 17.92c0-15.36-15.36-30.72-30.72-30.72h-870.4c-15.36 0-30.72 15.36-30.72 30.72v117.76c0 15.36 15.36 30.72 30.72 30.72h870.4c15.36 0 30.72-15.36 30.72-30.72v-117.76zM957.44 586.24h-890.88c-35.84 0-66.56-30.72-66.56-66.56v-143.36c0-35.84 30.72-66.56 66.56-66.56h890.88c35.84 0 66.56 30.72 66.56 66.56v143.36c0 35.84-30.72 66.56-66.56 66.56zM977.92 391.68c0-15.36-15.36-30.72-30.72-30.72h-870.4c-15.36 0-30.72 15.36-30.72 30.72v112.64c0 15.36 15.36 30.72 30.72 30.72h870.4c15.36 0 30.72-15.36 30.72-30.72v-112.64zM957.44 960h-890.88c-35.84 0-66.56-30.72-66.56-66.56v-143.36c0-35.84 30.72-66.56 66.56-66.56h890.88c35.84 0 66.56 30.72 66.56 66.56v143.36c0 35.84-30.72 66.56-66.56 66.56zM977.92 765.44c0-15.36-15.36-30.72-30.72-30.72h-870.4c-15.36 0-30.72 15.36-30.72 30.72v112.64c0 20.48 15.36 30.72 30.72 30.72h870.4c15.36 0 30.72-15.36 30.72-30.72v-112.64zM199.68 448c0-22.622-18.338-40.96-40.96-40.96s-40.96 18.338-40.96 40.96c0 22.622 18.338 40.96 40.96 40.96s40.96-18.338 40.96-40.96zM199.68 74.24c0-22.622-18.338-40.96-40.96-40.96s-40.96 18.338-40.96 40.96c0 22.622 18.338 40.96 40.96 40.96s40.96-18.338 40.96-40.96zM199.68 821.76c0-22.622-18.338-40.96-40.96-40.96s-40.96 18.338-40.96 40.96c0 22.622 18.338 40.96 40.96 40.96s40.96-18.338 40.96-40.96z" />
<glyph unicode="&#xe908;" glyph-name="menu2" d="M957.44 586.24h-890.88c-35.84 0-66.56-30.72-66.56-66.56v-143.36c0-35.84 30.72-66.56 66.56-66.56h890.88c35.84 0 66.56 30.72 66.56 66.56v143.36c0 35.84-30.72 66.56-66.56 66.56zM158.72 407.040c-25.6 0-40.96 20.48-40.96 40.96s20.48 40.96 40.96 40.96c25.6 0 40.96-20.48 40.96-40.96s-20.48-40.96-40.96-40.96zM957.44 212.48h-890.88c-35.84 0-66.56-30.72-66.56-66.56v-143.36c0-35.84 30.72-66.56 66.56-66.56h890.88c35.84 0 66.56 30.72 66.56 66.56v143.36c0 35.84-30.72 66.56-66.56 66.56zM158.72 33.28c-25.6 0-40.96 20.48-40.96 40.96s20.48 40.96 40.96 40.96c25.6 0 40.96-20.48 40.96-40.96s-20.48-40.96-40.96-40.96zM957.44 960h-890.88c-35.84 0-66.56-30.72-66.56-66.56v-143.36c0-35.84 30.72-66.56 66.56-66.56h890.88c35.84 0 66.56 30.72 66.56 66.56v143.36c0 35.84-30.72 66.56-66.56 66.56zM158.72 780.8c-25.6 0-40.96 20.48-40.96 40.96s20.48 40.96 40.96 40.96c25.6 0 40.96-20.48 40.96-40.96s-20.48-40.96-40.96-40.96z" />
<glyph unicode="&#xe909;" glyph-name="note" d="M558.080 407.040l-71.68-220.16c0 0 0-10.24 5.12-5.12 5.12 0 225.28 76.8 225.28 76.8l358.4 384c5.12 0 5.12 5.12 0 10.24l-143.36 138.24c-5.12 5.12-10.24 5.12-15.36 0l-76.8-81.92v230.4c0 10.24-10.24 20.48-20.48 20.48h-609.28l-209.92-215.040v-788.48c0-10.24 10.24-20.48 20.48-20.48h798.72c10.24 0 20.48 10.24 20.48 20.48v286.72l-76.8-76.8v-133.12c0-10.24-10.24-20.48-20.48-20.48h-655.36c-5.12 0-10.24 5.12-10.24 10.24l5.12 655.36h189.44v204.8h476.16c10.24 0 15.36-10.24 15.36-20.48v-235.52l-204.8-220.16zM670.72 284.16c-30.72-10.24-112.64-40.96-117.76-40.96-10.24 0-10.24 5.12-10.24 10.24s35.84 117.76 35.84 117.76l5.12 5.12c5.12 0 5.12 0 5.12 0l76.8-76.8c0 0 10.24-15.36 5.12-15.36z" />
<glyph unicode="&#xe90a;" glyph-name="note2" d="M1018.88 591.36l-143.36 138.24c-5.12 5.12-10.24 5.12-15.36 0l-358.4-384-71.68-220.16c0 0 0-10.24 5.12-5.12 5.12 0 225.28 76.8 225.28 76.8l358.4 384c5.12 0 5.12 5.12 0 10.24zM614.4 222.72c-30.72-10.24-112.64-40.96-117.76-40.96-10.24 0-10.24 5.12-10.24 10.24s35.84 117.76 35.84 117.76l5.12 5.12c5.12 0 5.12 0 5.12 0l76.8-76.8c0 0 10.24-15.36 5.12-15.36zM209.92 949.76l-204.8-199.68h204.8zM404.48 84.48c-10.24 0-10.24 10.24-10.24 10.24l102.4 307.2 343.040 368.64v168.96c0 10.24-10.24 20.48-20.48 20.48h-542.72v-281.6h-276.48v-721.92c0-10.24 10.24-20.48 20.48-20.48h803.84c10.24 0 20.48 10.24 20.48 20.48v368.64l-128-133.12c0 0-302.080-107.52-312.32-107.52z" />
<glyph unicode="&#xe90b;" glyph-name="off" d="M844.8 837.12c0 0-46.080 30.72-92.16-10.24-46.080-46.080-5.12-102.4-5.12-102.4 30.72-35.84 138.24-128 128-276.48 0-199.68-163.84-363.52-363.52-363.52s-363.52 163.84-363.52 363.52c0 117.76 56.32 215.040 128 276.48 0 0 40.96 46.080 0 92.16-30.72 40.96-76.8 30.72-76.8 30.72-56.32-15.36-199.68-194.56-199.68-399.36 0-281.6 230.4-512 512-512s512 230.4 512 512c0 199.68-128 348.16-179.2 389.12zM506.88 376.32h10.24c35.84 0 66.56 30.72 66.56 66.56v450.56c0 35.84-30.72 66.56-66.56 66.56h-10.24c-40.96 0-71.68-30.72-71.68-66.56v-445.44c0-35.84 30.72-71.68 71.68-71.68z" />
<glyph unicode="&#xe90c;" glyph-name="person" d="M512 960c-281.6 0-512-230.4-512-512s230.4-512 512-512 512 230.4 512 512-230.4 512-512 512zM517.12 28.16c-97.28 0-189.44 35.84-261.12 97.28-5.12 0-5.12 5.12-10.24 5.12 5.12 25.6 46.080 117.76 153.6 112.64 5.12 0 5.12 0 10.24 0 30.72 5.12 51.2 35.84 51.2 71.68 0 10.24-5.12 15.36-10.24 20.48-20.48 20.48-30.72 25.6-61.44 66.56-5.12 5.12-10.24 10.24-15.36 20.48-10.24 15.36-35.84 46.080-25.6 56.32 10.24 5.12 10.24 20.48 5.12 30.72 0 25.6-10.24 92.16 20.48 138.24 15.36 30.72 46.080 46.080 81.92 51.2h107.52c25.6 0 30.72-5.12 35.84-10.24s15.36-15.36 30.72-15.36c25.6-15.36 81.92-56.32 56.32-143.36l-5.12-20.48c0-10.24 0-20.48 5.12-25.6 0 0 5.12-5.12 5.12-15.36s-5.12-20.48-20.48-30.72c-15.36-15.36-25.6-35.84-30.72-51.2-15.36-25.6-20.48-40.96-40.96-51.2-5.12 0-10.24-5.12-15.36-15.36-5.12-5.12-5.12-15.36 0-20.48l5.12-10.24c15.36-40.96 30.72-46.080 97.28-56.32h5.12c25.6-5.12 71.68-15.36 102.4-92.16-71.68-66.56-168.96-112.64-276.48-112.64zM829.44 181.76c-46.080 87.040-107.52 102.4-133.12 107.52h-10.24c-35.84 5.12-46.080 5.12-51.2 15.36 20.48 15.36 35.84 40.96 46.080 61.44 5.12 15.36 15.36 30.72 20.48 35.84 25.6 20.48 35.84 46.080 35.84 66.56 0 15.36-5.12 30.72-10.24 40.96v5.12c25.6 87.040 0 153.6-81.92 204.8-5.12 0-10.24 5.12-15.36 5.12-10.24 10.24-25.6 20.48-66.56 25.6h-112.64c-56.32-10.24-97.28-35.84-122.88-76.8-30.72-51.2-30.72-122.88-20.48-163.84-25.6-35.84 10.24-87.040 25.6-112.64 5.12-5.12 10.24-10.24 10.24-15.36 25.6-40.96 40.96-56.32 61.44-71.68 0-5.12-5.12-5.12-5.12-10.24-107.52 5.12-163.84-66.56-189.44-122.88-66.56 71.68-107.52 163.84-107.52 266.24 0 225.28 184.32 409.6 409.6 409.6s409.6-184.32 409.6-409.6c0-97.28-35.84-189.44-92.16-261.12z" />
<glyph unicode="&#xe90d;" glyph-name="person2" d="M512 960c-281.6 0-512-230.4-512-512s230.4-512 512-512 512 230.4 512 512-230.4 512-512 512zM225.28 140.8c0 0 30.72 148.48 179.2 138.24 20.48 5.12 30.72 25.6 30.72 46.080-25.6 20.48-35.84 25.6-66.56 76.8-10.24 15.36-66.56 71.68-30.72 102.4-15.36 40.96-35.84 199.68 117.76 220.16 92.16 0 97.28 0 107.52 0 61.44-5.12 40.96-25.6 71.68-25.6 25.6-15.36 107.52-61.44 71.68-174.080-5.12-20.48-5.12-20.48-5.12-20.48s35.84-35.84-15.36-81.92c-30.72-30.72-35.84-92.16-81.92-107.52 15.36-35.84 10.24-40.96 81.92-51.2 20.48-5.12 92.16-10.24 133.12-122.88h-593.92z" />
<glyph unicode="&#xe90e;" glyph-name="remind" d="M450.56 739.84c-138.24-40.96-138.24-174.080-138.24-174.080l133.12-10.24c0 51.2 51.2 87.040 107.52 71.68 30.72-15.36 30.72-51.2 30.72-61.44 0-15.36-20.48-35.84-25.6-46.080-10.24-10.24-61.44-56.32-71.68-66.56-20.48-15.36-25.6-30.72-30.72-35.84-10.24-20.48-5.12-76.8-5.12-76.8s0 0 122.88 0c0 56.32 25.6 71.68 35.84 81.92 81.92 66.56 87.040 92.16 97.28 122.88 20.48 92.16-25.6 138.24-46.080 158.72-92.16 71.68-194.56 40.96-209.92 35.84zM588.8 212.48c0-42.415-34.385-76.8-76.8-76.8s-76.8 34.385-76.8 76.8c0 42.415 34.385 76.8 76.8 76.8s76.8-34.385 76.8-76.8zM512 960c-281.6 0-512-230.4-512-512s230.4-512 512-512 512 230.4 512 512-230.4 512-512 512zM512 94.72c-194.56 0-353.28 158.72-353.28 353.28s158.72 353.28 353.28 353.28 353.28-158.72 353.28-353.28-158.72-353.28-353.28-353.28z" />
<glyph unicode="&#xe90f;" glyph-name="search" d="M998.4 99.84l-163.84 168.96c40.96 71.68 66.56 153.6 66.56 240.64 0 250.88-204.8 450.56-450.56 450.56-250.88 0-450.56-199.68-450.56-450.56s199.68-450.56 450.56-450.56c92.16 0 174.080 25.6 245.76 71.68l163.84-168.96c35.84-35.84 97.28-35.84 133.12 0l5.12 5.12c35.84 35.84 35.84 97.28 0 133.12zM445.44 192c-179.2 0-322.56 143.36-322.56 322.56s143.36 322.56 322.56 322.56 322.56-143.36 322.56-322.56-143.36-322.56-322.56-322.56z" />
<glyph unicode="&#xe910;" glyph-name="time" d="M957.44 960h-885.76c-40.96 0-71.68-30.72-71.68-71.68v-5.12c0-20.48 10.24-40.96 30.72-51.2v-614.4c0-30.72 20.48-51.2 51.2-51.2h389.12v-40.96l-271.36-107.52c-20.48-10.24-30.72-30.72-25.6-51.2 5.12-25.6 30.72-35.84 51.2-25.6l281.6 112.64 281.6-112.64c20.48-10.24 46.080 0 51.2 20.48 10.24 20.48 0 40.96-20.48 51.2l-261.12 107.52v46.080h389.12c30.72 0 51.2 20.48 51.2 51.2v614.4c15.36 10.24 25.6 30.72 25.6 51.2v5.12c0 40.96-30.72 71.68-66.56 71.68zM911.36 253.44h-793.6v563.2h793.6v-563.2zM512 335.36c107.52 0 199.68 92.16 199.68 199.68s-87.040 199.68-199.68 199.68-199.68-92.16-199.68-199.68c0-107.52 92.16-199.68 199.68-199.68zM660.48 560.64h-122.88v128c61.44-10.24 112.64-61.44 122.88-128zM486.4 688.64v-163.84c0-10.24 10.24-15.36 15.36-15.36h153.6c-15.36-71.68-71.68-122.88-143.36-122.88-81.92 0-148.48 66.56-148.48 153.6 0 76.8 51.2 138.24 122.88 148.48z" />
<glyph unicode="&#xe911;" glyph-name="time2" d="M957.44 960h-885.76c-40.96 0-71.68-30.72-71.68-71.68v-5.12c0-20.48 10.24-40.96 30.72-51.2v-614.4c0-30.72 20.48-51.2 51.2-51.2h389.12v-40.96l-271.36-107.52c-20.48-10.24-30.72-30.72-25.6-51.2 5.12-25.6 30.72-35.84 51.2-25.6l281.6 112.64 281.6-112.64c20.48-10.24 46.080 0 51.2 20.48 10.24 20.48 0 40.96-20.48 51.2l-261.12 107.52v46.080h389.12c30.72 0 51.2 20.48 51.2 51.2v614.4c15.36 10.24 25.6 30.72 25.6 51.2v5.12c0 40.96-30.72 71.68-66.56 71.68zM512 335.36c-112.64 0-199.68 92.16-199.68 199.68s92.16 199.68 199.68 199.68 204.8-87.040 204.8-199.68-92.16-199.68-204.8-199.68zM537.6 698.88h-51.2v-174.080c0-10.24 10.24-15.36 15.36-15.36h174.080v51.2h-138.24v138.24z" />
<glyph unicode="&#xe912;" glyph-name="block" d="M571.879 471.392c-134.39 54.37-270.586 43.532-361.263 24.927-99.347-20.411-167.626-54.551-168.349-54.912s-1.445-0.723-2.168-0.903v-326.22c0-11.38 9.212-20.411 20.411-20.411h914.899c11.38 0 20.411 9.212 20.411 20.411v235.724c-7.948-0.903-16.257-1.445-24.927-1.445-99.709 0-249.633 58.344-399.015 122.829zM975.591 833.377h-914.899c-11.38 0-20.411-9.212-20.411-20.411v-332.001c27.998 12.102 84.897 34.32 159.317 49.674 61.957 12.825 123.191 18.244 181.896 16.076 73.878-2.709 144.144-17.341 208.629-43.352 0.181 0 0.361-0.181 0.542-0.181 92.483-39.92 308.157-133.125 405.518-117.23v427.013c-0.181 11.38-9.393 20.411-20.592 20.411z" />
<glyph unicode="&#xe913;" glyph-name="cake" d="M276.186 657.984h206.462c9.573 0 17.16 7.767 17.16 17.341v123.913c0 9.573-7.767 17.341-17.16 17.341h-206.462c-9.573 0-17.16-7.767-17.16-17.341v-123.913c0-9.573 7.767-17.341 17.16-17.341zM541.353 657.984h206.462c9.573 0 17.16 7.767 17.16 17.341v123.913c0 9.573-7.767 17.341-17.16 17.341h-206.462c-9.573 0-17.16-7.767-17.16-17.341v-123.913c0-9.573 7.767-17.341 17.16-17.341zM164.917 431.653h317.731c9.573 0 17.16 7.767 17.16 17.341v112.714c0 9.573-7.767 17.341-17.16 17.341h-317.731c-9.573 0-17.16-7.767-17.16-17.341v-112.714c0-9.573 7.587-17.341 17.16-17.341zM541.353 431.653h317.731c9.573 0 17.16 7.767 17.16 17.341v112.714c0 9.573-7.767 17.341-17.16 17.341h-317.731c-9.573 0-17.16-7.767-17.16-17.341v-112.714c0-9.573 7.767-17.341 17.16-17.341zM17.16 197.193h465.487c9.573 0 17.16 7.767 17.16 17.341v117.772c0 9.573-7.767 17.341-17.16 17.341h-465.487c-9.573 0-17.16-7.767-17.16-17.341v-117.772c0-9.754 7.767-17.341 17.16-17.341zM1006.84 349.466h-465.487c-9.573 0-17.16-7.767-17.16-17.341v-117.772c0-9.573 7.767-17.341 17.16-17.341h465.487c9.573 0 17.16 7.767 17.16 17.341v117.772c0 9.573-7.587 17.341-17.16 17.341zM1006.84 121.509h-989.68c-9.573 0-17.16-10.115-17.16-22.579v0c0-12.644 7.767-22.579 17.16-22.579h989.68c9.573 0 17.16 10.115 17.16 22.579s-7.587 22.579-17.16 22.579z" />
<glyph unicode="&#xe914;" glyph-name="cuboid" d="M1026.89 941.937c0 0.542 0 1.264-0.181 1.806 0 0.181 0 0.181 0 0.361 0 0.542-0.181 0.903-0.181 1.445 0 0.181 0 0.361-0.181 0.723 0 0.361-0.181 0.723-0.361 1.084 0 0.181-0.181 0.361-0.181 0.723-0.181 0.542-0.361 1.084-0.542 1.445 0 0 0 0 0 0 0 0.181-0.181 0.361-0.181 0.542-0.181 0.361-0.361 0.723-0.542 1.084-0.181 0.181-0.181 0.361-0.361 0.542-0.181 0.361-0.361 0.723-0.542 0.903s-0.181 0.361-0.361 0.542c-0.361 0.542-0.723 0.903-1.084 1.445 0 0 0 0 0 0-0.361 0.361-0.723 0.903-1.084 1.264-0.181 0.181-0.181 0.181-0.361 0.361-0.361 0.361-0.542 0.542-0.903 0.903-0.181 0.181-0.361 0.181-0.361 0.361-0.361 0.361-0.723 0.542-1.084 0.903-0.181 0-0.181 0.181-0.361 0.181-0.542 0.361-0.903 0.542-1.445 0.903-0.181 0.181-0.361 0.181-0.542 0.361-0.361 0.181-0.723 0.361-0.903 0.542s-0.361 0.181-0.723 0.361c-0.361 0.181-0.723 0.361-1.084 0.361-0.181 0-0.361 0.181-0.542 0.181-0.542 0.181-1.084 0.361-1.626 0.361-0.181 0-0.361 0-0.542 0.181-0.361 0-0.723 0.181-1.264 0.181-0.181 0-0.361 0-0.542 0-0.542 0-1.264 0.181-1.806 0.181h-591.568c-0.723 0-1.264 0-1.987-0.181-0.361 0-0.723-0.181-1.084-0.181s-0.542 0-0.903-0.181c-0.361 0-0.903-0.181-1.264-0.361-0.181 0-0.361-0.181-0.542-0.181-0.361-0.181-0.903-0.361-1.264-0.361-0.181 0-0.361-0.181-0.542-0.181-0.361-0.181-0.723-0.361-1.084-0.542-0.181-0.181-0.361-0.181-0.542-0.361-0.361-0.181-0.723-0.361-1.084-0.542-0.181-0.181-0.361-0.181-0.723-0.361s-0.542-0.361-0.903-0.542c-0.181-0.181-0.542-0.361-0.723-0.542s-0.542-0.542-0.723-0.723c-0.181-0.181-0.361-0.361-0.542-0.542l-394.138-383.119c0 0 0 0 0 0s0 0 0 0c-0.181-0.181-0.542-0.542-0.723-0.723s-0.361-0.542-0.723-0.723c-0.181-0.181-0.181-0.361-0.361-0.542-1.445-1.987-2.709-4.155-3.432-6.322 0 0 0-0.181 0-0.181-0.181-0.542-0.361-1.084-0.361-1.626 0-0.181 0-0.361-0.181-0.542 0-0.361-0.181-0.903-0.181-1.264 0-0.181 0-0.542 0-0.723 0-0.361 0-0.723 0-1.084 0 0 0-0.181 0-0.181v-604.393c0-11.019 8.851-19.869 19.869-19.869h597.348c0 0 0 0 0.181 0 0.542 0 1.264 0 1.806 0.181 0.542 0 0.903 0.181 1.264 0.181 0.181 0 0.361 0 0.542 0 0.542 0.181 1.084 0.181 1.626 0.361 0.181 0 0.181 0 0.361 0 0.542 0.181 1.084 0.361 1.445 0.542 0.181 0 0.181 0 0.361 0.181 0.542 0.181 0.903 0.361 1.445 0.723 0.181 0 0.181 0.181 0.361 0.181 0.361 0.181 0.903 0.542 1.264 0.723 0.181 0 0.361 0.181 0.361 0.181 0.542 0.361 0.903 0.723 1.264 0.903 0 0 0.181 0.181 0.181 0.181 0.542 0.361 0.903 0.903 1.445 1.264 0 0 0 0 0 0l388.358 391.428c3.613 3.793 5.78 8.67 5.78 13.909l0.181 595.903c0 0 0 0 0 0zM638.532 365.722v180.27l348.619 347.896v-528.167h-348.619zM606.922 570.558l-171.6 2.348v348.98h523.651l-352.051-351.328zM395.583 573.629l-326.040 4.516 326.040 316.647v-321.163zM41.184 538.767l557.609-7.767v-556.526h-557.609v564.293zM638.532 325.983h320.621l-320.621-323.15v323.15z" />
<glyph unicode="&#xe915;" glyph-name="datamerge" d="M643.072 959.488h-503.808v-1023.488h813.056v708.608l-309.248 314.88zM847.36 34.816h-610.304c0 0 0 382.464 0 628.224 0 33.792 0 65.024 0 91.648 0 20.48 0 38.912 0 54.272v58.368h350.72l259.584-264.704v-567.808zM393.728 641.536h208.384v-25.088h-208.384v25.088zM393.728 568.32h324.096v-25.088h-324.096v25.088zM393.728 494.592h324.096v-25.088h-324.096v25.088zM393.728 267.264h37.376v-62.464h-37.376v62.464zM451.072 296.448h37.376v-91.648h-37.376v91.648zM508.416 344.576h37.376v-139.776h-37.376v139.776zM565.76 377.856h37.376v-173.568h-37.376v173.568zM623.104 308.736h37.376v-104.448h-37.376v104.448zM680.448 413.696h37.376v-208.896h-37.376v208.896z" />
<glyph unicode="&#xe916;" glyph-name="diamond" d="M579.285 870.587h-560.5c-10.296 0-18.786-8.309-18.786-18.605v-434.78c0-10.296 8.49-18.786 18.786-18.786h560.5c10.296 0 18.786 8.49 18.786 18.786v434.78c0 10.296-8.309 18.605-18.786 18.605zM1005.214 870.587h-311.047c-10.296 0-18.786-8.49-18.786-18.786v-306.712c0-10.296 8.49-18.786 18.786-18.786h311.228c10.296 0 18.786 8.49 18.786 18.786v306.893c-0.181 10.296-8.49 18.605-18.966 18.605zM579.285 327.79h-560.5c-10.296 0-18.786-8.49-18.786-18.786v-218.564c0-10.296 8.49-18.786 18.786-18.786h560.5c10.296 0 18.786 8.49 18.786 18.786v218.564c0 10.296-8.309 18.786-18.786 18.786zM1005.214 451.342h-311.047c-10.296 0-18.786-8.49-18.786-18.786v-342.116c0-10.296 8.49-18.786 18.786-18.786h311.228c10.296 0 18.786 8.49 18.786 18.786v342.116c-0.181 10.296-8.49 18.786-18.966 18.786z" />
<glyph unicode="&#xe917;" glyph-name="diamond-b" d="M164.555 143.546h125.9c9.393 0 17.16 7.767 17.16 17.16v583.44c0 9.393-7.767 17.16-17.16 17.16h-125.9c-9.393 0-17.16-7.767-17.16-17.16v-583.44c0-9.573 7.767-17.16 17.16-17.16zM352.231 440.865h125.9c9.393 0 17.16 7.767 17.16 17.16v285.94c0 9.393-7.767 17.16-17.16 17.16h-125.9c-9.393 0-17.16-7.767-17.16-17.16v-285.94c0-9.393 7.767-17.16 17.16-17.16zM550.384 329.415h125.9c9.393 0 17.16 7.767 17.16 17.16v468.919c0 9.393-7.767 17.16-17.16 17.16h-125.9c-9.393 0-17.16-7.767-17.16-17.16v-469.1c0-9.393 7.587-16.979 17.16-16.979zM740.047 144.991h125.9c9.393 0 17.16 7.767 17.16 17.16v652.080c0 9.393-7.767 17.16-17.16 17.16h-125.9c-9.393 0-17.16-7.767-17.16-17.16v-652.080c0-9.573 7.587-17.16 17.16-17.16zM999.615 108.503h-975.229c-12.644 0-22.94-10.115-22.94-22.579s10.296-22.579 22.94-22.579h975.229c12.644 0 22.94 10.115 22.94 22.579s-10.296 22.579-22.94 22.579z" />
<glyph unicode="&#xe918;" glyph-name="diamond-c" d="M205.197 159.441h238.975c9.393 0 16.979 7.587 16.979 16.979v660.028c0 9.393-7.587 16.979-16.979 16.979h-238.975c-9.393 0-16.979-7.587-16.979-16.979v-659.847c-0.181-9.573 7.587-17.16 16.979-17.16zM578.382 159.441h238.975c9.393 0 16.979 7.587 16.979 16.979v660.028c0 9.393-7.587 16.979-16.979 16.979h-238.975c-9.393 0-16.979-7.587-16.979-16.979v-659.847c0-9.573 7.587-17.16 16.979-17.16zM1002.505 125.482h-978.481c-12.644 0-22.76-9.935-22.76-22.579s10.296-22.579 22.76-22.579h978.481c12.644 0 22.76 9.935 22.76 22.579s-10.296 22.579-22.76 22.579z" />
<glyph unicode="&#xe919;" glyph-name="diamond-e" d="M203.030 148.423h235.182c8.67 0 15.534 6.864 15.534 15.173v389.442c0 8.49-7.045 15.173-15.534 15.173h-235.182c-8.67 0-15.534-6.864-15.534-15.173v-389.261c0-8.49 7.045-15.354 15.534-15.354zM587.956 147.339h235.182c8.67 0 15.534 6.864 15.534 15.354v655.331c0 8.49-7.045 15.354-15.534 15.354h-235.182c-8.67 0-15.534-6.864-15.534-15.354v-655.331c-0.181-8.49 6.864-15.354 15.534-15.354zM1002.324 107.6h-980.468c-11.38 0-20.411-9.032-20.411-20.231v-4.696c0-11.199 9.212-20.231 20.411-20.231h980.468c11.38 0 20.411 9.032 20.411 20.231v4.877c0 11.199-9.212 20.050-20.411 20.050z" />
<glyph unicode="&#xe91a;" glyph-name="diamond-f" d="M1001.24 91.885h-973.784c-12.644 0-22.76-10.115-22.76-22.579v0c0-12.464 10.296-22.579 22.76-22.579h973.784c12.644 0 22.76 10.115 22.76 22.579s-10.115 22.579-22.76 22.579zM223.441 644.979c0 9.393-7.587 17.16-17.16 17.16h-113.798c-9.393 0-17.16-7.587-17.16-17.16v-105.85l148.118-159.678v265.528zM75.323 143.365c0-9.393 7.587-17.16 17.16-17.16h113.978c9.393 0 17.16 7.587 17.16 17.16v100.070l-148.118 159.678v-259.748h-0.181zM945.425 837.893c0 9.393-7.587 17.16-17.16 17.16h-113.978c-9.393 0-17.16-7.587-17.16-17.16v-253.426l148.118-150.285 0.181 403.711zM797.127 143.365c0-9.393 7.587-17.16 17.16-17.16h113.978c9.393 0 17.16 7.587 17.16 17.16v159.136l-148.118 150.285-0.181-309.422zM456.817 837.893c0 9.393-7.587 17.16-17.16 17.16h-113.978c-9.393 0-17.16-7.587-17.16-17.16v-390.525l148.118 149.382v241.143h0.181zM308.519 143.365c0-9.393 7.587-17.16 17.16-17.16h113.978c9.393 0 17.16 7.587 17.16 17.16v322.247l-148.118-149.382-0.181-172.864zM591.749 661.958c-9.393 0-17.16-7.587-17.16-17.16v-83.994l96.277 101.154h-79.117zM574.589 426.595v-283.23c0-9.393 7.587-17.16 17.16-17.16h113.978c9.393 0 17.16 7.587 17.16 17.16v391.248l-23.121 23.482-125.178-131.5zM19.689 509.686c3.251 0 6.141 0.903 8.67 2.348l10.657-10.838c-1.445-2.529-2.348-5.419-2.348-8.67 0-9.393 7.587-17.16 17.16-17.16 3.071 0 5.961 0.903 8.49 2.168l14.27-14.451c-2.348-2.89-3.613-6.503-3.613-10.477 0-9.393 7.587-17.16 17.16-17.16 3.793 0 7.406 1.264 10.296 3.432l15.534-15.715c-1.626-2.709-2.709-5.78-2.709-9.032 0-9.393 7.587-17.16 17.16-17.16 3.251 0 6.322 0.903 8.851 2.529l18.966-19.328c-1.806-2.709-2.709-5.78-2.709-9.212 0-9.393 7.587-17.16 17.16-17.16 3.251 0 6.503 0.903 9.032 2.529l13.728-14.089c-2.348-2.89-3.793-6.683-3.793-10.657 0-9.393 7.587-17.16 17.16-17.16 3.974 0 7.587 1.264 10.477 3.613l12.644-12.825c-1.264-2.348-1.987-5.058-1.987-7.948 0-9.393 7.587-17.16 17.16-17.16 9.393 0 17.16 7.587 17.16 17.16 0 2.89-0.723 5.6-1.987 7.948l12.644 12.825c2.89-2.348 6.683-3.793 10.657-3.793 9.393 0 17.16 7.587 17.16 17.16 0 4.155-1.445 7.948-3.793 10.838l11.922 12.102c2.89-2.168 6.322-3.432 10.296-3.432 9.393 0 17.16 7.587 17.16 17.16 0 3.974-1.264 7.587-3.613 10.477l18.063 18.244c2.348-1.264 5.238-2.168 8.128-2.168 9.393 0 17.16 7.587 17.16 17.16 0 3.071-0.903 5.961-2.168 8.49l15.173 15.354c2.709-1.626 5.78-2.709 9.212-2.709 9.393 0 17.16 7.587 17.16 17.16 0 3.432-1.084 6.683-2.89 9.393l14.812 14.992c2.529-1.445 5.419-2.348 8.67-2.348 9.393 0 17.16 7.587 17.16 17.16 0 3.251-0.903 6.322-2.529 8.851l15.354 15.534c2.709-1.806 5.961-2.709 9.393-2.709 2.89 0 5.78 0.723 8.128 1.987l14.992-16.437c-1.987-2.709-3.071-6.141-3.071-9.754 0-9.393 7.587-17.16 17.16-17.16 3.071 0 5.961 0.903 8.49 2.168l13.367-14.631c-1.084-2.168-1.626-4.696-1.626-7.225 0-9.393 7.587-17.16 17.16-17.16s17.16 7.587 17.16 17.16c0 2.709-0.542 5.058-1.626 7.406l14.089 14.27c2.348-1.264 5.238-2.168 8.128-2.168 9.393 0 17.16 7.587 17.16 17.16 0 3.071-0.903 5.961-2.348 8.49l17.341 17.702c2.348-1.264 5.058-1.987 8.128-1.987 9.393 0 17.16 7.587 17.16 17.16 0 3.071-0.723 5.961-2.168 8.309l14.812 14.992c2.529-1.445 5.419-2.348 8.49-2.348 9.393 0 17.16 7.587 17.16 17.16 0 3.251-0.903 6.141-2.529 8.851l14.992 15.354c2.709-1.626 5.78-2.709 9.032-2.709 3.071 0 5.961 0.903 8.49 2.348l14.27-14.451c-1.806-2.709-2.89-5.961-2.89-9.393 0-9.393 7.587-17.16 17.16-17.16 3.432 0 6.683 1.084 9.393 2.709l15.715-15.896c-1.264-2.348-1.987-5.058-1.987-8.128 0-9.393 7.587-17.16 17.16-17.16 2.89 0 5.6 0.723 7.948 1.987l13.728-13.728c-1.084-2.168-1.626-4.696-1.626-7.225 0-9.393 7.587-17.16 17.16-17.16 2.529 0 5.058 0.542 7.225 1.626l16.799-16.799c-1.806-2.709-2.89-5.961-2.89-9.393 0-9.393 7.587-17.16 17.16-17.16 3.432 0 6.683 1.084 9.393 2.89l13.186-13.186c-1.626-2.529-2.529-5.6-2.529-8.851 0-9.393 7.587-17.16 17.16-17.16 3.251 0 6.322 0.903 8.851 2.529l12.283-12.283c-2.168-2.89-3.432-6.503-3.432-10.296 0-9.393 7.587-17.16 17.16-17.16 9.393 0 17.16 7.587 17.16 17.16 0 9.393-7.587 17.16-17.16 17.16-2.709 0-5.058-0.542-7.406-1.626l-12.825 12.825c1.626 2.529 2.529 5.6 2.529 9.032 0 9.393-7.587 17.16-17.16 17.16-3.251 0-6.322-0.903-8.851-2.529l-13.367 13.367c1.445 2.529 2.168 5.238 2.168 8.309 0 9.393-7.587 17.16-17.16 17.16-3.071 0-5.78-0.723-8.309-2.168l-16.257 16.437c2.168 2.89 3.613 6.503 3.613 10.477 0 9.393-7.587 17.16-17.16 17.16-3.974 0-7.406-1.264-10.296-3.432l-12.825 12.825c1.987 2.709 3.071 6.141 3.071 9.754 0 9.393-7.587 17.16-17.16 17.16-3.613 0-7.045-1.084-9.754-3.071l-15.715 15.715c1.445 2.529 2.168 5.419 2.168 8.49 0 9.393-7.587 17.16-17.16 17.16-3.071 0-5.961-0.903-8.49-2.168l-14.451 14.451c1.626 2.709 2.709 5.78 2.709 9.212 0 9.393-7.587 17.16-17.16 17.16s-17.16-7.587-17.16-17.16c0-3.251 0.903-6.141 2.348-8.67l-14.992-15.354c-2.529 1.626-5.6 2.529-9.032 2.529-9.393 0-17.16-7.587-17.16-17.16 0-3.432 1.084-6.683 2.709-9.212l-14.451-14.631c-2.709 1.806-5.961 2.89-9.393 2.89-9.393 0-17.16-7.587-17.16-17.16 0-3.613 1.084-6.864 3.071-9.754l-16.799-17.16c-2.709 1.806-5.78 2.709-9.212 2.709-9.393 0-17.16-7.587-17.16-17.16 0-3.613 1.084-6.864 2.89-9.573l-13.186-13.547c-2.89 2.168-6.503 3.432-10.296 3.432-3.974 0-7.406-1.264-10.296-3.432l-12.644 13.728c1.806 2.709 2.709 5.961 2.709 9.393 0 9.393-7.587 17.16-17.16 17.16-2.89 0-5.6-0.723-8.128-1.987l-14.992 16.437c1.806 2.709 3.071 6.141 3.071 9.573 0 9.393-7.587 17.16-17.16 17.16s-17.16-7.587-17.16-17.16c0-3.071 0.903-5.961 2.348-8.49l-15.354-15.715c-2.529 1.626-5.6 2.529-9.032 2.529-9.393 0-17.16-7.587-17.16-17.16 0-3.432 1.084-6.503 2.709-9.212l-14.812-15.173c-2.529 1.445-5.419 2.168-8.309 2.168-9.393 0-17.16-7.587-17.16-17.16 0-3.071 0.903-6.141 2.348-8.67l-15.173-15.354c-2.709 1.806-5.961 2.89-9.393 2.89-9.393 0-17.16-7.587-17.16-17.16 0-3.613 1.084-6.864 2.89-9.573l-18.424-18.605c-2.168 1.084-4.696 1.626-7.225 1.626-9.393 0-17.16-7.587-17.16-17.16 0-2.709 0.723-5.238 1.806-7.406l-13.367-13.547c-1.987 0.903-4.335 1.445-6.683 1.445-9.393 0-17.16-7.587-17.16-17.16 0-2.529 0.542-4.877 1.445-7.045l-13.005-13.186c-2.709 1.987-6.141 3.071-9.754 3.071s-7.045-1.084-9.754-3.071l-12.825 13.005c1.084 2.168 1.626 4.696 1.626 7.225 0 9.393-7.587 17.16-17.16 17.16-2.529 0-4.877-0.542-6.864-1.445l-14.631 14.812c1.445 2.529 2.348 5.6 2.348 8.67 0 9.393-7.587 17.16-17.16 17.16-3.071 0-5.961-0.903-8.49-2.348l-19.328 20.231c1.626 2.529 2.529 5.6 2.529 9.032 0 9.393-7.587 17.16-17.16 17.16-3.251 0-6.141-0.903-8.67-2.348l-16.076 16.437c1.084 2.168 1.626 4.696 1.626 7.406 0 9.393-7.587 17.16-17.16 17.16-2.529 0-4.877-0.542-7.045-1.626l-14.812 14.992c1.806 2.709 2.89 5.961 2.89 9.393 0 9.393-7.587 17.16-17.16 17.16-3.432 0-6.503-0.903-9.212-2.709l-10.477 10.657c1.626 2.709 2.529 5.78 2.529 9.032 0 9.393-7.587 17.16-17.16 17.16s-17.16-7.587-17.16-17.16 7.948-17.521 17.341-17.521z" />
<glyph unicode="&#xe91b;" glyph-name="diamond-k" d="M124.094 689.053h569.17c9.393 0 17.16 7.587 17.16 17.16v79.658c0 9.393-7.587 17.16-17.16 17.16h-569.17c-9.393 0-17.16-7.587-17.16-17.16v-79.658c0-9.393 7.587-17.16 17.16-17.16zM124.094 458.928c-9.393 0-17.16-7.587-17.16-17.16v-79.658c0-9.393 7.587-17.16 17.16-17.16h569.17c9.393 0 17.16 7.587 17.16 17.16v79.658c0 9.393-7.587 17.16-17.16 17.16h-569.17zM122.288 499.57h717.107c9.393 0 17.16 7.587 17.16 17.16v113.798c0 9.393-7.587 17.16-17.16 17.16h-717.107c-9.393 0-17.16-7.587-17.16-17.16v-113.798c0.181-9.573 7.767-17.16 17.16-17.16zM122.288 154.203h717.107c9.393 0 17.16 7.587 17.16 17.16v113.798c0 9.393-7.587 17.16-17.16 17.16h-717.107c-9.393 0-17.16-7.587-17.16-17.16v-113.798c0.181-9.573 7.767-17.16 17.16-17.16zM1007.201 116.993h-990.403c-9.393 0-17.16-7.587-17.16-16.799v-11.38c0-9.393 7.587-16.799 17.16-16.799h990.403c9.393 0 17.16 7.587 17.16 16.799v11.38c0 9.032-7.767 16.799-17.16 16.799z" />
<glyph unicode="&#xe91c;" glyph-name="diamond-l" d="M125.9 518.717h284.856c9.393 0 16.979 7.587 16.979 16.979v240.782c0 9.393-7.587 16.979-16.979 16.979h-284.856c-9.393 0-16.979-7.587-16.979-16.979v-240.601c0-9.573 7.587-17.16 16.979-17.16zM125.9 217.785h431.167c9.393 0 16.979 7.587 16.979 16.979v232.834c0 9.393-7.587 16.979-16.979 16.979h-431.167c-9.393 0-16.979-7.587-16.979-16.979v-232.653c0-9.393 7.587-17.16 16.979-17.16zM474.88 518.717h232.653c9.393 0 16.979 7.587 16.979 16.979v240.782c0 9.393-7.587 16.979-16.979 16.979h-232.653c-9.393 0-16.979-7.587-16.979-16.979v-240.601c0-9.573 7.587-17.16 16.979-17.16zM604.212 467.599v-232.653c0-9.393 7.587-16.979 16.979-16.979h240.601c9.393 0 16.979 7.587 16.979 16.979v232.653c0 9.393-7.587 16.979-16.979 16.979h-240.421c-9.393 0-17.16-7.587-17.16-16.979zM1006.479 142.101h-988.777c-9.393 0-16.979-10.115-16.979-22.579 0-12.644 7.587-22.579 16.979-22.579h988.777c9.393 0 16.979 10.115 16.979 22.579 0 12.283-7.587 22.579-16.979 22.579z" />
<glyph unicode="&#xe91d;" glyph-name="diamond-t" d="M118.133 521.607h284.856c9.573 0 17.16 7.767 17.16 17.16v238.434c0 9.573-7.767 17.16-17.16 17.16h-284.856c-9.573 0-17.16-7.767-17.16-17.16v-238.253c0-9.573 7.767-17.341 17.16-17.341zM859.445 483.313h-244.394c-9.573 0-17.16-7.767-17.16-17.16v-238.253c0-9.573 7.767-17.16 17.16-17.16h244.394c9.573 0 17.16 7.767 17.16 17.16v238.253c0 9.393-7.767 17.16-17.16 17.16zM118.133 210.56h434.238c9.573 0 17.16 7.767 17.16 17.16v238.434c0 9.573-7.767 17.16-17.16 17.16h-434.238c-9.573 0-17.16-7.767-17.16-17.16v-238.253c0-9.573 7.767-17.341 17.16-17.341zM469.642 521.607h389.803c9.573 0 17.16 7.767 17.16 17.16v238.434c0 9.573-7.767 17.16-17.16 17.16h-389.803c-9.573 0-17.16-7.767-17.16-17.16v-238.253c0-9.573 7.587-17.341 17.16-17.341zM1006.84 141.197h-989.68c-9.393 0-17.16-10.115-17.16-22.579 0-12.644 7.767-22.579 17.16-22.579h989.68c9.393 0 17.16 10.115 17.16 22.579v0c0 12.464-7.587 22.579-17.16 22.579z" />
<glyph unicode="&#xe91e;" glyph-name="drop" d="M370.656 540.935c0-58.26-47.552-105.489-106.211-105.489s-106.211 47.229-106.211 105.489c0 58.26 47.552 105.489 106.211 105.489s106.211-47.229 106.211-105.489zM604.754 609.033c0-58.26-47.552-105.489-106.211-105.489s-106.211 47.229-106.211 105.489c0 58.26 47.552 105.489 106.211 105.489s106.211-47.229 106.211-105.489zM221.996 729.153c0-58.26-47.552-105.489-106.211-105.489s-106.211 47.229-106.211 105.489c0 58.26 47.552 105.489 106.211 105.489s106.211-47.229 106.211-105.489zM212.423 376.199c0-58.26-47.552-105.489-106.211-105.489s-106.211 47.229-106.211 105.489c0 58.26 47.552 105.489 106.211 105.489s106.211-47.229 106.211-105.489zM640.158 382.521c0-58.26-47.552-105.489-106.211-105.489s-106.211 47.229-106.211 105.489c0 58.26 47.552 105.489 106.211 105.489s106.211-47.229 106.211-105.489zM879.675 540.935c0-58.26-47.552-105.489-106.211-105.489s-106.211 47.229-106.211 105.489c0 58.26 47.552 105.489 106.211 105.489s106.211-47.229 106.211-105.489zM991.848 270.53c0-58.26-47.552-105.489-106.211-105.489s-106.211 47.229-106.211 105.489c0 58.26 47.552 105.489 106.211 105.489s106.211-47.229 106.211-105.489zM1008.466 124.037h-992.931c-8.67 0-15.534-7.587-15.534-16.799v-11.38c0-9.393 7.045-16.799 15.534-16.799h992.751c8.67 0 15.534 7.587 15.534 16.799v11.38c0.181 9.212-6.864 16.799-15.354 16.799z" />
<glyph unicode="&#xe91f;" glyph-name="excel" d="M643.072 960h-507.904v-1024h819.2v709.12l-311.296 314.88zM848.384 34.816h-614.4c0 0 0 382.976 0 628.736 0 33.792 0 65.024 0 91.648 0 20.48 0 38.912 0 54.272v58.368h353.28l261.12-264.704v-568.32zM338.432 705.536h160.768v-65.024h-160.768v65.024zM338.432 547.328h406.016v-40.448h-406.016v40.448zM338.432 444.928h297.984v-40.448h-297.984v40.448zM339.968 329.216h406.016v-40.448h-406.016v40.448zM339.968 226.816h297.984v-40.448h-297.984v40.448z" />
<glyph unicode="&#xe920;" glyph-name="hand" d="M511.187 849.815c35.223 0 70.266-3.974 104.224-11.922 14.451-3.432 29.082 5.6 32.333 20.231 3.432 14.451-5.6 29.082-20.231 32.333-37.933 8.851-77.13 13.186-116.327 13.186-136.919 0-265.709-53.286-362.527-150.105s-150.105-225.609-150.105-362.527c0-110.908 34.862-216.397 100.792-305.267 5.238-7.045 13.367-10.838 21.676-10.838 5.6 0 11.199 1.806 16.076 5.238 11.922 8.851 14.451 25.83 5.6 37.752-59.067 79.478-90.316 173.948-90.316 273.115 0 253.065 205.92 458.804 458.804 458.804zM1005.214 529.374c-3.974 14.27-18.966 22.76-33.236 18.786s-22.76-18.966-18.786-33.236c11.199-40.1 16.979-81.826 16.979-123.913 0-102.057-32.875-198.875-95.012-279.618-9.032-11.741-6.864-28.72 4.877-37.752 4.877-3.793 10.657-5.6 16.437-5.6 8.128 0 16.076 3.613 21.315 10.477 69.362 90.316 106.211 198.333 106.211 312.493 0 46.964-6.322 93.567-18.786 138.364zM935.852 817.482l-2.529 2.529c-29.804 29.804-78.213 29.804-108.198 0l-378.242-378.423c-29.804-29.804-29.804-78.213 0-108.198l2.529-2.529c29.804-29.804 78.213-29.804 108.198 0l378.423 378.423c29.624 29.985 29.624 78.394-0.181 108.198z" />
<glyph unicode="&#xe921;" glyph-name="histogram" d="M178.283 191.232h113.617c5.6 0 10.477 4.516 10.477 10.296v320.802c0 5.6-4.516 10.296-10.477 10.296h-113.617c-5.6 0-10.477-4.516-10.477-10.296v-320.982c0.181-5.419 4.696-10.115 10.477-10.115zM360.179 191.232h113.617c5.6 0 10.477 4.516 10.477 10.296v613.425c0 5.6-4.516 10.296-10.477 10.296h-113.617c-5.6 0-10.477-4.516-10.477-10.296v-613.425c0.181-5.6 4.696-10.296 10.477-10.296zM551.287 191.232h113.617c5.6 0 10.477 4.516 10.477 10.296v430.987c0 5.6-4.516 10.296-10.477 10.296h-113.617c-5.6 0-10.477-4.516-10.477-10.296v-431.167c0-5.419 4.516-10.115 10.477-10.115zM730.293 191.232h113.617c5.6 0 10.477 4.516 10.477 10.296v320.802c0 5.6-4.516 10.296-10.477 10.296h-113.617c-5.6 0-10.477-4.516-10.477-10.296v-320.982c0-5.419 4.696-10.115 10.477-10.115zM1008.466 147.7h-992.931c-8.67 0-15.534-6.864-15.534-15.354v-10.296c0-8.49 6.864-15.354 15.534-15.354h992.931c8.67 0 15.534 6.864 15.534 15.354v10.296c0 8.49-6.864 15.354-15.534 15.354z" />
<glyph unicode="&#xe922;" glyph-name="letter-box" d="M252.703 486.745h87.064c5.6 0 10.296 4.516 10.296 10.296v45.7c0 5.6-4.516 10.296-10.296 10.296h-87.064c-5.6 0-10.296-4.516-10.296-10.296v-45.7c0-5.6 4.516-10.296 10.296-10.296zM677.729 486.745h87.064c5.6 0 10.296 4.516 10.296 10.296v45.7c0 5.6-4.516 10.296-10.296 10.296h-87.064c-5.6 0-10.296-4.516-10.296-10.296v-45.7c0-5.6 4.696-10.296 10.296-10.296zM252.703 128.553h87.064c5.6 0 10.296 4.516 10.296 10.296v45.7c0 5.6-4.516 10.296-10.296 10.296h-87.064c-5.6 0-10.296-4.516-10.296-10.296v-45.7c0-5.78 4.516-10.296 10.296-10.296zM677.729 128.553h87.064c5.6 0 10.296 4.516 10.296 10.296v45.7c0 5.6-4.516 10.296-10.296 10.296h-87.064c-5.6 0-10.296-4.516-10.296-10.296v-45.7c0-5.78 4.696-10.296 10.296-10.296zM962.224 808.992h-912.731c-11.38 0-20.411-9.212-20.411-20.411v-709.521c0-11.38 9.212-20.411 20.411-20.411h912.731c11.38 0 20.411 9.212 20.411 20.411v709.521c0.181 11.38-9.032 20.411-20.411 20.411zM476.867 104.529h-358.915v114.34h358.915v-114.34zM242.407 322.371v45.7c0 5.6 4.516 10.296 10.296 10.296h87.064c5.6 0 10.296-4.516 10.296-10.296v-45.7c0-5.6-4.516-10.296-10.296-10.296h-87.064c-5.78 0.181-10.296 4.696-10.296 10.296zM476.867 462.721h-358.915v114.34h358.915v-114.34zM900.809 104.529h-358.915v114.34h358.915v-114.34zM667.433 322.371v45.7c0 5.6 4.516 10.296 10.296 10.296h87.064c5.6 0 10.296-4.516 10.296-10.296v-45.7c0-5.6-4.516-10.296-10.296-10.296h-87.064c-5.6 0.181-10.296 4.696-10.296 10.296zM900.809 462.721h-358.915v114.34h358.915v-114.34zM944.883 746.132c0-5.6-4.516-10.296-10.296-10.296h-849.149c-5.6 0-10.296 4.516-10.296 10.296v6.683c0 5.6 4.516 10.296 10.296 10.296h849.149c5.6 0 10.296-4.516 10.296-10.296v-6.683z" />
<glyph unicode="&#xe923;" glyph-name="line" d="M205.017 546.896c23.663-23.663 61.776-23.663 85.258 0l121.384 121.384 135.835-135.835c1.987-1.987 3.974-3.613 5.961-5.238 23.843-19.328 58.705-17.883 80.923 4.155l174.49 174.49c23.663 23.663 23.663 61.776 0 85.258v0c-24.385 24.385-63.582 24.385-87.968 0l-129.332-129.332-136.557 136.557c-22.579 22.579-58.344 23.482-82.007 3.071-3.071-2.168-5.961-4.516-8.851-7.406l-159.136-159.136c-24.385-24.205-24.385-63.763 0-87.968v0zM814.287 516.73c-24.385 24.385-63.582 24.385-87.968 0l-129.332-129.332-136.557 136.557c-22.579 22.579-58.344 23.482-82.007 3.071-3.071-2.168-5.961-4.516-8.851-7.225l-159.136-159.136c-24.385-24.385-24.385-63.582 0-87.968v0c23.663-23.663 61.776-23.663 85.258 0l121.384 121.384 135.835-135.835c1.987-1.987 3.974-3.613 5.961-5.238 23.843-19.328 58.705-17.883 80.923 4.155l174.49 174.49c23.482 23.301 23.482 61.415 0 85.077v0zM1003.408 144.991h-982.635c-11.56 0-20.592-10.296-20.592-22.579v0c0-12.644 9.393-22.579 20.592-22.579h982.635c11.56 0 20.592 10.296 20.592 22.579v0c0.181 12.825-9.212 22.579-20.592 22.579z" />
<glyph unicode="&#xe924;" glyph-name="lock" d="M694.167 960h-507.213c-10.657 0-19.689-8.67-19.689-19.869v-90.316h-119.759c-11.38 0-20.411-9.212-20.411-20.411v-872.811c0-11.38 9.212-20.411 20.411-20.411h811.758c11.38 0 20.411 9.212 20.411 20.411v117.23l97.722-0.542c10.657 0 19.689 8.67 19.689 19.869v568.267l-302.919 298.584zM716.746 825.971h0.361c10.115 21.676 31.972 6.683 31.972 6.683s120.662-117.591 126.261-123.552c8.309-6.683 6.141-28.179-16.618-25.469l-122.649-5.238c-10.657 0-19.689 8.67-19.689 19.869l0.361 127.706zM817.538 27.58c0-11.38-9.212-20.411-20.411-20.411h-679.897c-11.38 0-20.411 9.212-20.411 20.411v728.487c0 11.38 9.212 20.411 20.411 20.411h50.035v-679.355c0-10.838 8.67-19.869 19.689-19.869l630.585-3.432v-46.242zM924.472 164.138c0-10.838-8.67-19.869-19.689-19.869l-646.661 5.961c-10.657 0-19.689 8.67-19.689 19.869v698.683c0 10.838 8.67 19.869 19.689 19.869h393.957l-3.071-245.478c1.084-19.869-0.361-32.333 22.76-32.694l248.549 5.419 4.516-451.94h-0.361zM655.15 472.295l-28.359-27.998 72.794-72.253c22.218-22.037 22.398-58.163 0.361-80.562l-5.78-5.78c-10.657-10.838-24.927-16.799-40.1-16.799-0.181 0-0.181 0-0.361 0-15.173 0-29.262 5.78-40.1 16.437l-73.517 73.156-28.179-27.998 74.059-73.336c18.244-18.063 42.448-27.998 68.098-27.998 0.181 0 0.361 0 0.542 0 25.83 0.181 50.035 10.296 68.279 28.72l5.78 5.78c37.571 37.933 37.21 99.167-0.723 136.738l-72.794 71.891zM407.505 570.017l5.78 5.78c10.657 10.838 24.927 16.799 40.1 16.799 0.181 0 0.181 0 0.181 0 15.173 0 29.262-5.78 40.1-16.437l65.93-65.208 28.179 27.998-66.111 65.569c-18.244 18.063-42.448 27.998-68.098 27.998-0.181 0-0.361 0-0.542 0-25.83-0.181-50.035-10.296-68.279-28.72l-5.78-5.78c-37.571-37.933-37.21-99.167 0.723-136.738l64.666-64.124 28.179 27.998-65.027 64.485c-21.856 22.037-22.037 58.163 0 80.381zM608.909 376.922l2.348 2.348c7.948 7.948 7.948 20.953 0 28.901l-86.522 86.522c-7.948 7.948-20.953 7.948-28.901 0l-2.348-2.348c-7.948-7.948-7.948-20.953 0-28.901l86.522-86.522c7.948-8.128 20.773-8.128 28.901 0z" />
<glyph unicode="&#xe925;" glyph-name="map" d="M1023.639 724.457c-6.683 25.108 0.181 34.862-10.838 48.048-11.019 13.005-6.141-2.89-23.482-12.283-29.082-15.534-22.218-1.626-40.281 5.78-12.464 33.959-67.014 32.333-67.014 32.333l-25.288 7.406c0 0-4.877 27.095-14.631 36.849s-42.268-8.128-42.268-8.128 8.67-30.707 9.754-36.849c2.89-14.451-16.437-31.972-16.437-31.972l-18.786 0.361-16.076 0.542c0 0-44.074-51.299-42.087-59.789s68.821-31.069 68.821-31.069 11.741-9.573-11.199-21.676c-13.909-13.186-20.773-7.406-37.752-41.726 4.877-26.192-10.657-31.972-10.657-31.972l-36.307 1.084-30.707-24.385-11.56-6.864c0 0-117.772-18.966-116.327-11.199-31.069 15.534-95.735 7.587-101.876 8.309-19.508 16.437-17.883 33.236-28.179 34.862s-21.315 1.626-21.315 1.626l-51.661 42.99-28.54 69.904c0 0-23.301 20.592-32.333 28.54s-30.165-4.155-30.165-4.155-30.346-37.391-53.648-41.545c-25.469-4.696-36.849-67.376-40.1-70.988-7.767-8.67-56.176-27.456-56.176-27.456s-20.411 18.063-40.642 17.341c-19.508-0.723-38.475-20.773-43.713-21.134-6.864-48.409 3.793-86.161 11.56-82.368 26.192 13.728 26.192-22.218 26.192-22.218s-4.877-71.891 0-80.562c34.32 5.961 32.152-31.069 35.946-36.849 7.948 1.445 26.192-14.631 31.972-23.301-3.793-7.767 9.754-17.521 9.754-17.521h50.216c0 0 0 0 9.754-8.67 14.631-27.095 25.288-26.192 25.288-26.192s66.292-16.799 80.923-14.812c-2.529-36.307-2.529-27.275 34.862-38.836 60.15 9.754 60.692 0 60.692 0s33.056-10.657 34.862-27.095c1.084-11.199-7.767-19.508-7.767-24.927 7.406 0.361 0.723-17.883 6.322-20.231 10.477-4.335 25.83-6.864 25.83-6.864s-23.843-45.158-16.979-47.145c6.683-1.987 16.257 4.155 24.205-0.903 6.864-4.335-4.877-25.83 4.877-25.288 15.534 0.903 30.165-7.406 36.849-7.767 5.6-0.361 2.89 29.804 12.644 29.082 4.696 24.205 11.741 34.862 11.741 34.862l34.139-5.058 19.328-22.76 45.158-2.348 26.192-0.903c0 0 34.501-48.409 47.506-48.409s0 38.836 0 38.836l24.205 15.534c0 0 11.741 13.547 20.411 12.644 18.244-5.961 8.851-8.851 16.437-8.67s56.176 29.082 56.176 29.082l31.972 3.793 29.804 17.702 32.514-5.961c0 0 19.689 15.354 23.843 43.713 1.445 9.393 18.786 19.147 18.424 29.985-0.542 11.741-6.322 44.435-6.864 56.176-1.626 36.849 8.67 56.357-4.335 73.698s-35.584 37.21-33.597 51.841c10.657 10.115 50.035 28.72 58.163 39.378 7.587 9.935 0 17.521 0 17.521s-15.896-4.696-27.095 0c-6.503 2.709-6.864 10.115-14.089 8.67-20.231-3.974-22.94-34.501-23.301-18.966-0.542 15.173-20.592-1.806-20.050 18.966 0.542 10.115-25.65 11.56-24.927 21.315 2.348 30.165 22.218 18.966 28.179 42.629 1.806 6.864 0-33.778 5.238-37.752s12.825 28.54 41.365 31.069c11.741 20.773 15.173 29.624 15.534 31.972 3.613 12.644-12.102 22.579 6.864 35.946 13.005 9.212 0 6.683 9.754 17.521 5.058 5.78 18.424 14.631 38.836 17.521 12.464 1.806 8.49 48.59 7.767 55.273 1.626 18.063 31.069 23.843 28.179 34.862z" />
<glyph unicode="&#xe926;" glyph-name="mapp" d="M1023.639 724.457c-6.683 25.108 0.181 34.862-10.838 48.048-11.019 13.005-6.141-2.89-23.482-12.283-29.082-15.534-22.218-1.626-40.281 5.78-12.464 33.959-67.014 32.333-67.014 32.333l-25.288 7.406c0 0-4.877 27.095-14.631 36.849s-42.268-8.128-42.268-8.128 8.67-30.707 9.754-36.849c2.89-14.451-16.437-31.972-16.437-31.972l-18.786 0.361-16.076 0.542c0 0-44.074-51.299-42.087-59.789s68.821-31.069 68.821-31.069 11.741-9.573-11.199-21.676c-13.909-13.186-20.773-7.406-37.752-41.726 4.877-26.192-10.657-31.972-10.657-31.972l-36.307 1.084-30.707-24.385-11.56-6.864c0 0-117.772-18.966-116.327-11.199-31.069 15.534-95.735 7.587-101.876 8.309-19.508 16.437-17.883 33.236-28.179 34.862s-21.315 1.626-21.315 1.626l-51.661 42.99-28.54 69.904c0 0-23.301 20.592-32.333 28.54s-30.165-4.155-30.165-4.155-30.346-37.391-53.648-41.545c-25.469-4.696-36.849-67.376-40.1-70.988-7.767-8.67-56.176-27.456-56.176-27.456s-20.411 18.063-40.642 17.341c-19.508-0.723-38.475-20.773-43.713-21.134-6.864-48.409 3.793-86.161 11.56-82.368 26.192 13.728 26.192-22.218 26.192-22.218s-4.877-71.891 0-80.562c34.32 5.961 32.152-31.069 35.946-36.849 7.948 1.445 26.192-14.631 31.972-23.301-3.793-7.767 9.754-17.521 9.754-17.521h50.216c0 0 0 0 9.754-8.67 14.631-27.095 25.288-26.192 25.288-26.192s66.292-16.799 80.923-14.812c-2.529-36.307-2.529-27.275 34.862-38.836 60.15 9.754 60.692 0 60.692 0s33.056-10.657 34.862-27.095c1.084-11.199-7.767-19.508-7.767-24.927 7.406 0.361 0.723-17.883 6.322-20.231 10.477-4.335 25.83-6.864 25.83-6.864s-23.843-45.158-16.979-47.145c6.683-1.987 16.257 4.155 24.205-0.903 6.864-4.335-4.877-25.83 4.877-25.288 15.534 0.903 30.165-7.406 36.849-7.767 5.6-0.361 2.89 29.804 12.644 29.082 4.696 24.205 11.741 34.862 11.741 34.862l34.139-5.058 19.328-22.76 45.158-2.348 26.192-0.903c0 0 34.501-48.409 47.506-48.409s0 38.836 0 38.836l24.205 15.534c0 0 11.741 13.547 20.411 12.644 18.244-5.961 8.851-8.851 16.437-8.67s56.176 29.082 56.176 29.082l31.972 3.793 29.804 17.702 32.514-5.961c0 0 19.689 15.354 23.843 43.713 1.445 9.393 18.786 19.147 18.424 29.985-0.542 11.741-6.322 44.435-6.864 56.176-1.626 36.849 8.67 56.357-4.335 73.698s-35.584 37.21-33.597 51.841c10.657 10.115 50.035 28.72 58.163 39.378 7.587 9.935 0 17.521 0 17.521s-15.896-4.696-27.095 0c-6.503 2.709-6.864 10.115-14.089 8.67-20.231-3.974-22.94-34.501-23.301-18.966-0.542 15.173-20.592-1.806-20.050 18.966 0.542 10.115-25.65 11.56-24.927 21.315 2.348 30.165 22.218 18.966 28.179 42.629 1.806 6.864 0-33.778 5.238-37.752s12.825 28.54 41.365 31.069c11.741 20.773 15.173 29.624 15.534 31.972 3.613 12.644-12.102 22.579 6.864 35.946 13.005 9.212 0 6.683 9.754 17.521 5.058 5.78 18.424 14.631 38.836 17.521 12.464 1.806 8.49 48.59 7.767 55.273 1.626 18.063 31.069 23.843 28.179 34.862zM806.881 330.319c-22.94 18.063-73.517 67.737-73.517 67.737s-45.7 12.283-67.376 0c-7.225-19.508-25.288-27.998-34.862-29.262-7.225-9.573-42.087-38.475-42.087-38.475s-10.296-28.359-52.925-24.024c-9.573-8.49-24.024-32.514-24.024-32.514s-38.655-14.451-48.229 31.249c4.877 18.063 9.573 41.003 9.573 41.003s51.841 26.553 80.742 14.451c18.063 13.186 48.229 52.925 55.454 56.538 8.49 5.961 25.288 39.739 36.126 41.003s70.988 16.799 93.928 0c19.328-20.411 86.703-73.517 91.58-89.051-2.709-18.244-11.199-32.694-24.385-38.655z" />
<glyph unicode="&#xe927;" glyph-name="massif" d="M462.417 760.402c-137.099 227.776-394.499 16.076-460.791-44.435v-596.806c0-10.838 10.115-19.508 22.398-19.508h977.758c12.464 0 22.398 8.67 22.398 19.508v262.819c-433.154 144.866-532.863 331.82-561.764 378.423zM1007.382 71.654h-988.957c-9.212 0-16.799-10.115-16.799-22.579s7.587-22.579 16.799-22.579h988.957c9.212 0 16.799 10.115 16.799 22.579s-7.587 22.579-16.799 22.579zM600.961 653.468c21.676-35.584 61.234-73.156 176.116-132.584 95.735-49.493 187.496-84.536 189.844-85.619 35.584-7.948 57.441-16.618 57.441-16.618s0 0 0 284.314c-253.426 225.428-442.728-17.883-423.4-49.493z" />
<glyph unicode="&#xe928;" glyph-name="mind" d="M200.501 785.149c1.264-18.424 16.618-57.802 30.888-87.245 14.992-31.069 38.475-71.169 63.944-85.8 2.168-1.084 4.516-1.987 6.864-2.348 20.411-3.071 38.294-4.155 53.106-4.155 29.804 0 47.687 4.335 48.59 4.516 10.657 2.709 16.979 13.367 14.451 24.024-2.709 10.657-13.367 17.16-24.024 14.631-0.361-0.181-31.972-7.587-82.007-0.361-10.115 7.406-26.553 28.359-45.339 66.834-16.076 33.236-26.011 63.402-26.914 72.253 0.361 1.445 3.432 14.631 37.391 48.409 19.869 19.689 39.92 35.946 40.281 36.307 8.49 7.045 9.754 19.508 2.89 27.998-7.045 8.49-19.508 9.754-27.998 2.89-0.903-0.723-22.76-18.605-44.616-40.461-43.532-43.532-48.229-64.305-47.506-77.491v0zM122.829 373.67c26.733-7.587 100.973-11.199 109.282-11.56 0.361 0 0.542 0 0.903 0 10.657 0 19.328 8.309 20.050 18.786 0.542 11.019-7.948 20.231-18.966 20.773-21.495 1.084-81.284 4.696-100.25 10.115-15.534 4.516-37.391 33.056-47.325 77.13-8.128 42.629 46.603 173.045 83.090 245.298 4.877 9.754 0.903 21.856-8.851 26.733s-21.856 0.903-26.733-8.851c-1.084-1.987-24.927-49.674-47.867-106.211-32.152-79.658-44.977-133.487-38.836-164.736 0.181-0.181 0.181-0.361 0.181-0.542 12.283-55.454 41.907-97.36 75.323-106.934zM299.306 152.577c-3.071 10.477-14.089 16.618-24.566 13.728-68.459-19.328-78.394-9.754-100.070 11.38-17.702 17.16-42.448 93.386-54.189 142.157-2.529 10.657-13.367 17.16-24.024 14.631-10.657-2.709-17.16-13.367-14.631-24.024 5.058-21.495 32.694-130.055 65.027-161.304 23.482-22.579 43.171-33.056 71.53-33.056 17.883 0 39.197 4.155 67.195 11.922 10.477 3.071 16.618 14.089 13.728 24.566zM390.164 56.301c7.406 7.948 6.864 20.592-1.084 27.998s-20.592 7.045-27.998-1.084c-16.257-17.702-40.461-38.294-62.86-35.043-22.76 3.251-36.126 29.443-36.488 30.165-4.877 9.754-16.618 13.909-26.553 9.212-9.754-4.877-13.909-16.618-9.212-26.553 0.903-1.806 22.398-45.7 66.111-52.203 3.613-0.542 7.406-0.903 11.019-0.903 28.359 0 57.621 16.257 87.064 48.409zM951.025 527.207c-0.542 11.019-9.935 19.328-20.773 18.786-11.019-0.542-19.328-9.935-18.786-20.773 4.155-80.923 1.445-222.177-23.301-257.942-3.251-4.335-6.503-8.309-9.754-12.102l-68.098 82.91c-7.045 8.49-19.508 9.754-27.998 2.709s-9.754-19.689-2.709-27.998l69.362-84.355c-14.089-9.573-26.733-13.728-35.404-12.644-19.508 2.709-75.685 23.482-95.735 31.249-10.296 3.974-21.676-1.084-25.65-11.38-4.155-9.573 0.542-20.773 10.296-25.108 0.361-0.181 0.542-0.181 0.903-0.361 7.767-3.071 77.13-29.804 104.586-33.597 34.501-4.877 78.575 21.676 112.172 67.195 0.181 0.181 0.181 0.361 0.361 0.361 18.244 26.192 28.359 80.562 31.249 166.362 1.987 61.234-0.723 114.52-0.723 116.688zM822.957 510.228c25.83 12.644 44.435 23.663 57.983 35.404 21.134 18.786 29.082 39.739 31.611 72.253 3.432 44.797-47.867 144.325-58.344 163.833-5.058 9.754-17.16 13.367-26.914 8.309s-13.367-17.16-8.309-26.914c23.482-44.255 55.635-117.772 53.828-142.338-2.348-30.165-3.251-43.893-67.195-74.781-9.935-4.696-14.089-16.618-9.212-26.553 4.696-9.935 16.618-14.089 26.553-9.212zM757.207 164.138c-8.67-6.683-10.296-19.147-3.613-27.817 0.542-0.542 18.063-24.385 10.838-46.061-7.045-21.495-36.307-33.959-59.428-40.642-10.477-3.071-16.618-14.089-13.547-24.566s14.089-16.618 24.566-13.547c41.726 11.922 69.362 31.069 82.007 56.357 1.626 3.251 3.071 6.683 4.155 10.296 13.728 42.087-15.896 80.923-17.16 82.549-6.683 8.67-19.147 10.296-27.817 3.432zM779.425 448.271c11.019 0 19.869 8.851 19.869 19.869s-8.851 19.869-19.869 19.869h-76.768c-1.806 0-3.432-0.181-5.238-0.723-23.482-6.322-67.917-34.681-67.917-96.818 0-18.605-18.786-34.681-25.288-36.126-26.733 1.806-65.208 15.534-75.143 19.328 0.542 124.274 1.084 254.69 1.445 352.773 0.181 0 0.361 0 0.542 0h117.41c11.019 0 19.869 8.851 19.869 19.869s-8.851 19.869-19.869 19.869h-117.41c-0.181 0-0.181 0-0.361 0 0.181 47.867 0.361 84.355 0.361 103.682 14.089 27.275 30.707 43.171 49.493 47.145 28.179 5.961 54.912-15.896 55.093-16.076 8.309-7.045 20.953-6.141 27.998 2.348 7.045 8.309 6.141 20.953-2.348 27.998-1.626 1.445-41.726 34.681-89.051 24.747-26.553-5.6-49.132-23.121-67.376-52.022-18.063 27.275-39.92 43.532-65.569 48.951-47.325 9.935-87.426-23.301-89.051-24.747-8.49-7.045-9.393-19.689-2.348-27.998 7.045-8.49 19.689-9.393 27.998-2.348 0.181 0.181 26.914 22.037 55.093 16.076 18.786-3.974 35.404-19.869 49.493-47.145 0-19.328 0.181-55.996 0.361-103.863-0.181 0-0.181 0-0.361 0h-117.41c-11.019 0-19.869-8.851-19.869-19.869s8.851-19.869 19.869-19.869h117.41c0.181 0 0.361 0 0.542 0 0.361-84.536 0.723-193.095 1.264-300.932-3.071 0.361-6.141 0-9.212-1.264-0.361-0.181-46.784-18.244-77.491-20.231-6.503 1.445-25.288 17.521-25.288 36.126 0 62.137-44.435 90.496-67.917 96.818-1.806 0.542-3.432 0.723-5.238 0.723h-76.768c-11.019 0-19.869-8.851-19.869-19.869s8.851-19.869 19.869-19.869h73.517c7.948-3.071 36.668-16.618 36.668-57.802 0-39.016 36.668-75.865 65.027-75.865 0.361 0 0.723 0 1.084 0 30.527 1.445 71.169 15.534 85.8 20.953 0.361-67.917 0.542-134.209 0.903-192.734-3.251 0.542-6.864 0.181-10.115-1.084-0.361-0.181-46.784-18.244-77.491-20.231-6.503 1.445-25.288 17.521-25.288 36.126 0 62.137-44.435 90.496-67.917 96.818-1.806 0.542-3.432 0.723-5.238 0.723h-76.949c-11.019 0-19.869-8.851-19.869-19.869s8.851-19.869 19.869-19.869h73.517c7.948-3.071 36.668-16.618 36.668-57.802 0-39.016 36.668-75.865 65.027-75.865 0.361 0 0.723 0 1.084 0 31.249 1.445 73.156 16.257 86.703 21.315 0.361-78.575 0.542-138.183 0.723-159.678-7.406-5.961-21.856-15.534-37.752-14.631-14.631 0.903-28.72 10.477-42.087 28.72-6.503 8.851-18.966 10.657-27.817 4.155s-10.657-18.966-4.155-27.817c20.773-28.359 45.158-43.352 72.072-44.797 1.445-0.181 2.89-0.181 4.155-0.181 25.83 0 47.145 13.005 59.247 22.579 12.464-9.032 31.972-19.689 55.273-19.689 1.264 0 2.709 0 4.155 0.181 26.914 1.445 51.299 16.437 72.072 44.797 6.503 8.851 4.696 21.315-4.155 27.817s-21.315 4.696-27.817-4.155c-13.367-18.244-27.456-27.817-42.087-28.72-15.896-0.903-30.346 8.67-37.752 14.631 0 18.063 0.361 62.86 0.542 123.371h89.051c9.393 0 16.979 8.851 16.979 19.869s-7.587 19.869-16.979 19.869h-88.871c0.181 52.203 0.542 112.353 0.723 175.574 18.786-6.322 49.674-15.715 74.24-16.799 0.361 0 0.723 0 1.084 0 28.359 0 65.027 36.849 65.027 75.865 0 41.184 28.72 54.731 36.668 57.802h73.517zM687.484 866.975c20.773-15.354 44.977-38.113 42.629-60.692-2.348-22.94-31.069-37.933-31.791-38.294-10.657-5.238-14.631-17.341-8.851-26.914s19.328-13.005 30.165-7.587c2.168 0.903 50.035 25.108 54.912 69.182 0.542 3.613 0.542 7.406 0.361 11.019-1.445 28.359-21.134 56.538-58.705 84.174-9.573 6.864-23.482 5.6-31.43-2.89s-6.683-21.134 2.709-27.998zM748.718 672.435l-139.809-101.876c-13.005-9.573-18.424-24.385-11.922-33.236 6.503-8.67 22.218-8.309 35.404 1.264l139.809 101.876c13.005 9.573 18.424 24.385 11.922 33.236s-22.218 8.309-35.404-1.264z" />
<glyph unicode="&#xe929;" glyph-name="nav_b" d="M136.704 708.096c-15.36 15.36-40.96 15.36-56.832 0l-61.952-59.904c-15.36-15.36-15.36-40.96 0-56.832l144.384-144.384-144.384-144.384c-15.36-15.36-15.36-39.424 0-54.784l59.904-59.904c15.36-15.36 39.424-15.36 54.784 0l233.472 233.472c5.12 5.12 8.704 10.24 10.24 15.36 3.584 13.824 1.536 29.184-10.24 39.424l-229.376 231.936zM1005.568 304.64l-144.384 144.384 144.384 144.384c15.36 15.36 15.36 39.424 0 54.784l-60.416 59.904c-15.36 15.36-39.424 15.36-54.784 0l-233.472-231.936c-5.12-5.12-8.704-10.24-10.24-15.36-3.584-13.824-1.536-29.184 10.24-39.424l233.472-233.472c15.36-15.36 40.96-15.36 56.832 0l59.904 59.904c13.824 15.872 13.824 41.472-1.536 56.832z" />
<glyph unicode="&#xe92a;" glyph-name="nav_s" d="M1018.88 384c3.584 13.824 1.536 29.184-10.24 39.424l-231.936 231.936c-15.36 15.36-40.96 15.36-56.32 0l-59.904-59.392c-15.36-15.36-15.36-40.96 0-56.32l143.36-143.36-143.36-143.36c-15.36-15.36-15.36-39.424 0-54.784l59.904-59.904c15.36-15.36 39.424-15.36 54.784 0l231.936 231.936c5.12 2.048 10.24 7.168 11.776 13.824zM5.12 406.528c-3.584-13.824-1.536-29.184 10.24-39.424l231.936-231.936c15.36-15.36 40.96-15.36 56.32 0l59.904 59.904c15.36 15.36 15.36 40.96 0 56.32l-143.36 143.36 143.36 143.36c15.36 15.36 15.36 39.424 0 54.784l-59.904 59.904c-15.36 15.36-39.424 15.36-54.784 0l-233.984-228.864c-4.608-5.632-8.192-10.752-9.728-17.408z" />
<glyph unicode="&#xe92b;" glyph-name="page" d="M315.744 960h-278.534c-5.6 0-10.296-4.516-10.296-10.296v-434.599c0-5.6 4.516-10.296 10.296-10.296h409.492c5.6 0 10.296 4.516 10.296 10.296v303.642l-141.254 141.254zM285.217 908.881c1.264 4.155 3.613 5.6 5.961 5.961h2.168c3.251-0.361 6.141-2.529 6.141-2.529s103.863-97.18 106.753-100.25c4.335-3.432 3.251-14.631-8.67-13.186l-102.237 0.181c-5.6 0-10.296 4.516-10.296 10.296v99.528zM410.034 560.262c0-5.6-4.516-10.296-10.296-10.296h-317.189c-5.6 0-10.296 4.516-10.296 10.296v344.464c0 5.6 4.516 10.296 10.296 10.296h159.678l-0.903-144.505c0.542-10.296-0.181-16.799 11.922-16.979l156.969-0.542v-192.734zM950.122 865.71l-94.29 94.29h-278.534c-5.6 0-10.296-4.516-10.296-10.296v-434.599c0-5.6 4.516-10.296 10.296-10.296h409.492c5.6 0 10.296 4.516 10.296 10.296v303.642l-46.964 46.964zM825.305 908.881c1.264 4.155 3.613 5.6 5.961 5.961h2.168c3.251-0.361 6.141-2.529 6.141-2.529s104.044-96.818 106.934-100.070c4.335-3.432 3.251-14.631-8.67-13.186l-102.237 0.181c-5.6 0-10.296 4.516-10.296 10.296v99.347zM950.122 560.262c0-5.6-4.516-10.296-10.296-10.296h-317.189c-5.6 0-10.296 4.516-10.296 10.296v344.464c0 5.6 4.516 10.296 10.296 10.296h159.678l-0.903-144.505c0.542-10.296-0.181-16.799 11.922-16.979l156.969-0.542v-192.734zM314.841 392.456h-278.534c-5.6 0-10.296-4.516-10.296-10.296v-434.599c0-5.6 4.516-10.296 10.296-10.296h409.492c5.6 0 10.296 4.516 10.296 10.296v303.461l-46.964 46.964-94.29 94.47zM284.495 341.337c1.264 4.155 3.613 5.6 5.961 5.961h2.168c3.251-0.361 6.141-2.529 6.141-2.529s103.863-97.18 106.753-100.25c4.335-3.432 3.251-14.631-8.67-13.186l-102.237 0.181c-5.6 0-10.296 4.516-10.296 10.296v99.528zM409.13-7.282c0-5.6-4.516-10.296-10.296-10.296h-317.189c-5.6 0-10.296 4.516-10.296 10.296v344.464c0 5.6 4.516 10.296 10.296 10.296h159.678l-0.903-144.505c0.542-10.296-0.181-16.799 11.922-16.979l156.969-0.542v-192.734zM854.929 392.456h-278.534c-5.6 0-10.296-4.516-10.296-10.296v-434.599c0-5.6 4.516-10.296 10.296-10.296h409.492c5.6 0 10.296 4.516 10.296 10.296v303.461l-46.964 46.964-94.29 94.47zM824.402 341.337c1.264 4.155 3.613 5.6 5.961 5.961h2.168c3.251-0.361 6.141-2.529 6.141-2.529s103.863-97.18 106.753-100.25c4.335-3.432 3.251-14.631-8.67-13.186l-102.237 0.181c-5.6 0-10.296 4.516-10.296 10.296v99.528zM949.219-7.282c0-5.6-4.516-10.296-10.296-10.296h-317.189c-5.6 0-10.296 4.516-10.296 10.296v344.464c0 5.6 4.516 10.296 10.296 10.296h159.678l-0.903-144.505c0.542-10.296-0.181-16.799 11.922-16.979l156.969-0.542v-192.734z" />
<glyph unicode="&#xe92c;" glyph-name="pie" d="M491.679 919.358c-271.489 0-491.679-220.009-491.679-491.679s220.19-491.679 491.679-491.679c264.986 0 481.022 209.713 491.318 472.171h-491.318v511.187zM563.39 960c-7.406 0-14.812-0.181-22.218-0.542v-500.891h482.647c0.181 4.516 0.181 9.032 0.181 13.547 0 269.322-206.281 487.886-460.61 487.886z" />
<glyph unicode="&#xe92d;" glyph-name="publicdata" d="M671.744 960h-507.904v-1024h819.2v709.12l-311.296 314.88zM877.056 34.816h-614.4c0 0 0 382.976 0 628.736 0 33.792 0 65.024 0 91.648 0 20.48 0 38.912 0 54.272v58.368h353.28l261.12-264.704c0 0 0-568.32 0-568.32zM564.736 536.064c-19.968 0-37.888-5.12-54.272-13.312l-58.368 90.624c8.704 8.704 13.312 20.48 13.312 33.792 0 27.648-22.016 49.664-49.664 49.664s-49.664-22.016-49.664-49.664 22.016-49.664 49.664-49.664c5.632 0 10.752 0.512 15.36 3.072l59.392-91.136c-25.6-20.992-41.472-53.76-41.472-89.088 0-26.624 9.216-50.688 24.064-70.656l-61.952-47.104c-7.68 6.144-18.432 10.752-29.696 10.752-26.112 0-47.104-20.992-47.104-47.104s20.992-47.104 47.104-47.104 47.104 20.992 47.104 47.104c0 5.632-1.536 11.264-3.072 16.384l65.024 49.664c20.48-17.408 46.592-28.16 75.776-28.16 9.216 0 18.432 1.536 26.624 3.584l31.232-73.216c-20.48-12.8-33.28-35.328-33.28-60.928 0-39.424 32.256-72.192 72.192-72.192s72.192 32.256 72.192 72.192c0 39.424-32.256 72.192-72.192 72.192-5.632 0-10.752-0.512-15.36-1.536l-30.208 72.192c38.912 18.944 66.56 58.368 66.56 105.472 0 12.8-2.048 24.576-5.632 35.84l100.864 53.76c6.144-5.12 14.336-8.704 22.528-8.704 19.968 0 35.328 15.36 35.328 35.328s-15.36 35.328-35.328 35.328-35.328-15.36-35.328-35.328c0-2.048 0-3.584 0.512-5.632l-98.816-54.272c-22.528 34.816-59.904 57.856-103.424 57.856z" />
<glyph unicode="&#xe92e;" glyph-name="realinsight" d="M121.926 520.343c14.27 7.767 11.38 29.443 11.019 33.236-0.903 32.875-33.597 31.972-33.597 31.972h-68.098v-17.16c0 0 50.757 0 67.556-0.542 18.966-3.432 16.799-16.979 17.16-24.927-2.348-14.631-22.579-15.715-22.579-15.715h-62.137v-16.799c0 0 49.312-0.181 59.789 0 9.032 0.181 12.464-3.793 17.883-9.032 6.141-7.406 7.225-32.514 7.225-32.514s0 0 17.341 0.181c1.264 33.056-7.767 41.726-10.477 44.977-3.793 3.432-2.168 4.696-1.084 6.322zM233.195 547.257c0 0-4.335 2.709-13.547 4.516-1.084 0-29.624 5.238-50.396-1.264-2.709-0.723-15.354-2.348-21.856-16.799-2.348-4.335-8.128-21.856-0.542-42.448 3.793-8.128 9.573-17.16 26.914-20.050 15.534-1.987 18.063-1.626 18.063-1.626l30.165 0.723-0.181 16.437-35.946 0.542c0 0-15.354 1.264-21.676 11.741-0.903 2.529-4.335 12.464-1.084 21.315 1.806 4.335 6.683 12.102 16.618 14.089 3.613 1.084 29.985 3.793 41.545-0.903 0 0 7.045-1.806 6.322-8.128-0.542-1.445-2.709-4.696-9.032-5.238-3.613 0.181-37.752 0-37.752 0v-17.16h43.352c0 0 20.411 0 21.495 20.953-0.361 3.251 0.542 15.534-12.464 23.301zM321.885 553.037c-6.864 0.542-52.925 0.903-52.925 0.903v-17.521h45.88c0 0 9.573-0.723 10.838-11.199-0.181-2.168 0-35.043 0-35.043s-0.361-2.89-3.613-3.974c-2.348-0.361-43.713 0-43.713 0s-6.322 1.445-7.767 4.516c-0.542 1.987-3.613 8.309 6.141 11.922 4.335 0.361 31.069 0.181 31.069 0.181l0.181 17.16h-30.346c0 0-16.618 1.084-23.301-12.464-1.084-3.432-4.155-11.38 0-23.663 2.348-4.696 6.503-13.728 22.579-13.367 13.005-0.542 65.569-0.903 65.569-0.903v61.415c0-0.181-0.542 18.424-20.592 22.037zM354.941 469.405h17.16l0.361 116.507h-17.521zM391.609 585.912h31.611v-24.927h-31.611v24.927zM391.609 469.405h31.43l0.181 85.439h-31.611zM518.593 550.689c-1.445 0.542-3.974 2.348-17.341 4.155-20.231 1.264-30.707-0.903-30.707-0.903s-12.644-0.542-22.218-10.477c-1.626-2.168-7.225-6.864-7.587-23.663 0-6.864 0-50.577 0-50.577h30.888l0.181 52.203c0 0 2.348 10.838 15.354 11.199 0.903 0 12.644 0.903 17.16-10.838 0.723-3.793 0.542-52.564 0.542-52.564h30.346v56.718c0.181 0.181-0.903 17.883-16.618 24.747zM623.721 523.052c0 0-37.029 0-40.461 0-5.419 0.542-5.238 3.793-5.6 5.238 0.723 5.058 5.6 4.335 5.6 4.335h56.176v22.76c0 0-61.595-0.542-68.459-0.903-15.534-0.723-19.869-9.573-21.856-13.186-4.516-12.464-1.445-22.94 0.903-28.901 5.78-9.212 19.689-11.019 19.689-11.019s36.307-0.723 40.1-0.361c2.709-0.181 5.238-1.084 5.961-4.877-0.361-4.516-5.78-4.516-5.78-4.516l-55.454-0.181v-22.037c0 0 59.067 0 68.098 0 13.186 1.264 15.896 5.058 20.411 11.019 7.948 13.367 3.793 23.482 2.89 26.733-3.793 14.992-22.218 15.896-22.218 15.896zM659.486 469.766h31.249l0.361 85.439h-31.611zM748.537 555.205c0 0-31.43-0.181-39.739-18.786-1.987-4.155-7.045-14.451-4.516-34.32 0.723-4.335 1.987-19.689 20.773-27.275 3.432-1.626 6.864-2.529 15.896-4.155 6.141-0.903 31.249-1.264 31.249-1.264v22.037l-14.992 0.542c0 0-16.799 1.084-21.134 12.825-0.542 2.709-5.238 24.566 18.966 27.275 9.032 0.723 22.76 0.903 22.76 0.903l0.723-67.014c0 0 1.445-12.825-14.27-13.367-10.477 0-44.977 0-44.977 0l-0.361-21.856h54.912c0 0 21.315 0 29.082 9.573 3.071 2.89 7.587 12.464 7.406 19.689-0.181 4.696 0 95.193 0 95.193h-61.776zM880.217 553.037c-8.49 2.709-27.817 1.084-27.817 1.084v31.069h-31.249v-115.243h31.249c0 0-0.542 61.053 0 62.86 26.553 1.445 28.901-18.063 28.901-18.063l0.361-44.797h31.069v39.378c0 0 0 7.948-1.445 15.534-4.877 24.385-25.65 26.914-31.069 28.179zM977.036 492.345c0 0-1.445-0.181-6.864 1.264-15.173 3.251-16.257 16.257-16.257 16.257l0.361 22.76h28.901v22.76h-29.262v15.354h-31.791c0 0-0.181-56.899 0-61.415 0-14.089 7.767-25.65 9.393-26.553 10.115-11.38 33.778-12.825 33.778-12.825h31.43v22.037l-19.689 0.361z" />
<glyph unicode="&#xe92f;" glyph-name="revolve" d="M455.553 846.925v110.185c-255.594-27.998-454.469-243.853-455.733-506.491h101.334c5.238 202.849 157.691 369.211 354.399 396.306zM526.902 960v-109.643c220.009-7.767 395.764-188.579 395.764-410.395 0-105.85-40.1-202.307-105.669-275.102l67.737-67.737c86.342 91.761 139.267 215.132 139.267 351.148 0 277.631-221.093 503.781-497.098 511.729zM511.91 29.025c-206.281 0-376.978 152.092-406.421 350.064h-101.154c33.597-250.355 248.007-443.27 507.575-443.27 121.204 0 232.653 42.087 320.44 112.533l-67.556 67.556c-69.724-54.37-157.511-86.884-252.884-86.884zM455.553 575.616v153.717c-131.5-25.469-231.75-138.544-237.53-276.005h148.298c4.696 55.273 40.281 101.876 89.232 122.288zM653.705 476.269h150.105c-16.979 140.712-133.306 250.897-276.908 258.303v-148.479c61.776-6.322 112.172-50.938 126.803-109.824zM378.062 381.979h-154.44c27.275-134.209 145.95-235.363 288.288-235.363 150.285 0 274.199 112.714 291.901 258.303h-150.285c-16.076-63.402-73.336-110.366-141.615-110.366-59.789 0-111.269 35.946-133.848 87.426z" />
<glyph unicode="&#xe930;" glyph-name="rhomb" d="M512.090 960.903l-449.592-256.497v-512.993l449.592-256.497 449.592 256.497v512.993l-449.592 256.497zM810.132 274.142l-291.72-166.362-291.72 166.362v332.904l291.72 166.362 291.72-166.362v-332.904zM306.532 557.914v-234.46l205.559-117.23 205.378 117.23v234.46l-205.378 117.049z" />
<glyph unicode="&#xe931;" glyph-name="scene" d="M1.084 847.828v-313.757c0 0 329.291 114.34 356.205 138.906-35.765 15.715-356.205 174.851-356.205 174.851zM1022.916 932.905c0 0-472.713-324.956-1021.652-526.541v-407.866c0 0 604.935 118.675 1021.652 427.916-2.348 490.776 0 506.491 0 506.491zM1022.916 47.811v275.644c0 0-320.44-183.702-365.237-215.132 20.231-31.249 365.237-60.512 365.237-60.512z" />
<glyph unicode="&#xe932;" glyph-name="set-up" d="M0 903.101v-910.202h1024v910.202h-1024zM946.509 105.613c0-16.979-13.728-30.707-30.707-30.707h-807.423c-16.979 0-30.707 13.728-30.707 30.707v522.025c0 16.979 13.728 30.707 30.707 30.707h807.423c16.979 0 30.707-13.728 30.707-30.707v-522.025zM536.114 363.013h-116.869c-14.089 0-25.65-11.38-25.65-25.65 0-14.089 11.38-25.65 25.65-25.65h116.869c14.089 0 25.65 11.38 25.65 25.65 0 14.089-11.38 25.65-25.65 25.65zM345.729 454.232l-99.889 99.889c-9.935 9.935-26.192 9.935-36.126 0v0c-9.935-9.935-9.935-26.192 0-36.126l82.549-82.549-78.575-78.575c-9.935-9.935-9.935-26.192 0-36.126s26.192-9.935 36.126 0l95.915 95.915c5.238 5.238 7.587 12.102 7.406 18.966 0.361 6.503-2.168 13.367-7.406 18.605z" />
<glyph unicode="&#xe933;" glyph-name="triangle" d="M0.181 870.046l133.125-230.305h757.569l132.945 230.305zM315.202 318.578h389.983l141.615 244.394h-673.033zM503.42 29.025c0 0 5.058-3.432 10.477-3.071s10.477 3.071 10.477 3.071l144.505 225.789-316.647 0.903 151.189-226.693z" />
<glyph unicode="&#xe934;" glyph-name="valley" d="M1001.782 130.54h-976.494c-12.102 0-22.218-10.115-22.218-22.579 0-12.283 9.935-22.579 22.218-22.579h976.675c12.102 0 22.218 10.115 22.218 22.579v0c-0.181 12.464-10.115 22.579-22.398 22.579zM27.275 161.247h973.604c12.283 0 22.218 10.115 22.218 22.398 0 0 0.361 57.983 0.723 122.829-340.852 99.167-432.071 186.231-505.407 256.316-2.529 2.529-5.238 4.877-7.767 7.406-0.542 0.542-1.264 1.264-1.806 1.987-50.216 62.499-103.682 100.070-158.956 111.45-46.784 9.754-83.090-2.168-100.431-10.115-19.508-8.851-170.516-95.012-244.394-137.28v-352.412c0-12.644 9.935-22.579 22.218-22.579zM357.831 721.747c63.944-13.186 124.636-55.093 180.632-124.274 2.348-2.168 4.516-4.335 6.864-6.503 69.543-66.472 155.704-148.66 478.493-243.853 0.181 66.292 0.181 128.61-0.723 133.487-1.626 9.032-285.578 90.858-440.38 276.908-47.145 52.564-112.714 87.787-135.474 100.25s-113.256 25.83-157.691 6.683c-35.043-9.935-81.284-33.597-81.284-33.597l-203.21-120.481v-129.513c67.014 38.294 207.365 118.314 228.138 127.887 21.856 10.115 67.014 24.927 124.636 13.005z" />
<glyph unicode="&#xe935;" glyph-name="danwei" d="M1013.248 286.208l-57.344 15.36c-6.144 24.064-15.36 47.104-28.16 68.096l29.696 51.2c2.56 6.144 2.048 13.312-2.048 17.408l-42.496 42.496c-1.536 1.536-2.048 2.048-3.584 2.56-4.096 2.048-9.216 2.56-14.336 0l-51.2-29.696c-13.312 8.192-28.16 15.36-43.52 20.992-8.192 2.56-16.384 5.632-24.064 7.168l-15.36 57.344c-1.536 6.656-7.168 10.752-14.336 10.752h-59.904c-6.656 0-12.8-4.608-14.336-10.752l-15.36-57.344c-24.064-6.144-47.104-15.36-68.096-28.16l-51.2 29.696c-6.144 2.56-13.312 2.048-17.408-2.048l-42.496-42.496c-4.608-4.608-6.144-12.288-2.048-17.408l29.696-51.2c-12.8-20.992-22.016-43.52-28.16-68.096l-57.344-15.36c-6.656-1.536-10.752-7.168-10.752-14.336v-59.904c0-6.656 4.608-12.8 10.752-14.336l57.344-15.36c0.512-2.048 1.536-4.096 1.536-5.632 6.144-22.016 14.848-43.008 26.112-62.464l-23.040-39.424-6.656-11.264c-2.56-6.144-2.048-13.312 2.048-17.408l42.496-42.496c4.608-4.608 12.288-6.144 17.408-2.048l51.2 29.696c20.992-12.8 43.52-22.016 68.096-28.16l15.36-57.344c1.536-6.656 7.168-10.752 14.336-10.752h59.904c6.656 0 12.8 4.608 14.336 10.752l15.36 57.344c24.064 6.144 47.104 15.36 68.096 28.16l51.2-29.696c6.144-2.56 13.312-2.048 17.408 2.048l42.496 42.496c4.608 4.608 6.144 12.288 2.048 17.408l-29.696 51.2c12.8 20.992 22.016 43.52 28.16 68.096l57.344 15.36c6.656 1.536 10.752 7.168 10.752 14.336v59.904c1.024 5.12-3.584 11.264-10.24 13.312zM718.336 132.096c-36.352 0-68.096 17.408-88.064 44.544-13.312 17.92-21.504 40.448-21.504 64.512 0 60.416 49.152 109.568 109.568 109.568 33.792 0 62.976-14.848 83.456-38.4 16.384-18.944 26.112-43.52 26.112-70.656-1.024-60.416-49.152-109.568-109.568-109.568zM259.584 502.272h-62.464v116.224h60.416c44.544 0 80.896 36.352 80.896 80.896v53.76h120.832v-53.76c0-44.544 36.352-80.896 80.896-80.896h174.592c44.544 0 80.896 36.352 80.896 80.896v174.592c0 44.544-36.352 80.896-80.896 80.896h-174.592c-44.544 0-80.896-36.352-80.896-80.896v-62.464h-120.832v62.464c0 44.544-36.352 80.896-80.896 80.896h-174.592c-44.544 0-80.896-36.352-80.896-80.896v-174.592c0-44.544 36.352-80.896 80.896-80.896h53.76v-116.224h-51.712c-44.544 0-80.896-36.352-80.896-80.896v-174.592c0-44.544 36.352-80.896 80.896-80.896h174.592c44.544 0 80.896 36.352 80.896 80.896v175.104c0 44.032-36.352 80.384-80.896 80.384zM560.128 849.408h129.536v-129.536h-129.536v129.536zM103.424 849.408h129.536v-129.536h-129.536v129.536zM235.008 267.264h-129.536v129.536h129.536v-129.536z" />
<glyph unicode="&#xe936;" glyph-name="jichu" d="M272.896 121.856c0 0 0 337.92 0 555.52 0 30.208 0 57.344 0 81.408 0 18.432 0 34.304 0 47.616v52.224h312.32l230.912-233.984v-247.808c12.8-4.608 26.112-10.24 37.376-17.92l43.52 25.6c4.096 2.56 8.192 2.048 12.288 0.512v276.48l-274.944 278.528h-449.024v-905.728h357.376l19.968 33.792c-9.728 16.896-17.92 34.304-23.040 53.76h-266.752zM365.568 587.776h358.912v-35.328h-358.912v35.328zM365.568 684.544h263.168v-35.328h-263.168v35.328zM985.6 205.824l-44.032 11.776c-4.608 18.944-11.776 36.352-22.016 52.736l23.040 39.424c2.048 4.608 1.536 10.24-1.536 13.312l-32.768 32.768c-1.024 1.024-1.536 1.536-2.56 2.048-3.072 1.536-7.168 2.048-10.752 0l-39.424-23.040c-10.24 6.144-22.016 11.776-33.792 15.872-6.144 2.048-12.288 4.096-18.944 5.632l-11.776 44.032c-1.024 5.12-5.632 8.192-10.752 8.192h-46.080c-5.12 0-9.728-3.584-10.752-8.192l-11.776-44.032c-18.944-4.608-36.352-11.776-52.736-22.016l-39.424 23.040c-4.608 2.048-10.24 1.536-13.312-1.536l-32.768-32.768c-3.584-3.584-4.608-9.216-1.536-13.312l23.040-39.424c-9.728-15.872-17.408-33.792-22.016-52.736l-44.032-11.776c-5.12-1.024-8.192-5.632-8.192-10.752v-46.080c0-5.12 3.584-9.728 8.192-10.752l44.032-11.776c0.512-1.536 1.024-3.072 1.024-4.096 4.608-17.408 11.264-33.28 20.48-48.128l-17.92-30.72-5.12-8.704c-2.048-4.608-1.536-10.24 1.536-13.312l32.768-32.768c3.584-3.584 9.216-4.608 13.312-1.536l39.424 23.040c15.872-9.728 33.792-17.408 52.736-22.016l11.776-44.032c1.024-5.12 5.632-8.192 10.752-8.192h46.080c5.12 0 9.728 3.584 10.752 8.192l11.776 44.032c18.944 4.608 36.352 11.776 52.736 22.016l39.424-23.040c4.608-2.048 10.24-1.536 13.312 1.536l32.768 32.768c3.584 3.584 4.608 9.216 1.536 13.312l-23.040 39.424c9.728 15.872 17.408 33.792 22.016 52.736l44.032 11.776c5.12 1.024 8.192 5.632 8.192 10.752v46.080c1.024 4.096-2.56 8.704-7.68 10.24zM757.248 86.528c-28.16 0-52.736 13.312-68.096 34.304-10.24 13.824-16.896 31.232-16.896 50.176 0 46.592 37.888 84.992 84.992 84.992 26.112 0 49.152-11.264 64.512-29.696 12.288-14.336 20.48-33.792 20.48-54.784-1.024-46.592-38.4-84.992-84.992-84.992z" />
<glyph unicode="&#xe937;" glyph-name="shuju" d="M1015.808 282.624l-46.080 12.288c-5.12 19.456-12.288 37.888-23.040 54.784l24.064 41.472c2.048 5.12 1.536 10.752-1.536 14.336l-34.304 34.304c-1.024 1.024-1.536 1.536-2.56 2.048-3.072 1.536-7.68 2.048-11.264 0l-41.472-24.064c-10.752 6.656-23.040 12.288-35.328 16.896-6.656 2.048-12.8 4.096-19.456 6.144l-12.288 46.080c-1.024 5.632-6.144 8.704-11.264 8.704h-48.128c-5.632 0-10.24-3.584-11.264-8.704l-12.288-46.080c-19.456-5.12-37.888-12.288-54.784-23.040l-41.472 24.064c-5.12 2.048-10.752 1.536-14.336-1.536l-34.304-34.304c-3.584-3.584-5.12-9.728-1.536-14.336l24.064-41.472c-10.24-16.896-17.92-35.328-23.040-54.784l-46.080-12.288c-5.632-1.024-8.704-6.144-8.704-11.264v-48.128c0-5.632 3.584-10.24 8.704-11.264l46.080-12.288c0.512-1.536 1.024-3.072 1.024-4.096 5.12-17.92 11.776-34.816 20.992-50.688l-18.432-32.256-5.632-9.216c-2.048-5.12-1.536-10.752 1.536-14.336l34.304-34.304c3.584-3.584 9.728-5.12 14.336-1.536l41.472 24.064c16.896-10.24 35.328-17.92 54.784-23.040l12.288-46.080c1.024-5.632 6.144-8.704 11.264-8.704h48.128c5.632 0 10.24 3.584 11.264 8.704l12.288 46.080c19.456 5.12 37.888 12.288 54.784 23.040l41.472-24.064c5.12-2.048 10.752-1.536 14.336 1.536l34.304 34.304c3.584 3.584 5.12 9.728 1.536 14.336l-24.064 41.472c10.24 16.896 17.92 35.328 23.040 54.784l46.080 12.288c5.632 1.024 8.704 6.144 8.704 11.264v48.128c1.024 4.096-3.072 9.216-8.192 10.752zM777.216 158.208c-29.184 0-54.784 14.336-71.168 35.84-10.752 14.848-17.408 32.768-17.408 52.224 0 48.64 39.424 88.576 88.576 88.576 27.136 0 51.2-11.776 67.584-30.72 12.8-15.36 20.992-35.328 20.992-56.832-0.512-49.152-39.936-89.088-88.576-89.088zM526.336 127.488l-23.040-12.8c-16.896 16.384-38.912 26.112-64 26.112s-47.616-9.728-64-26.112l-193.536 111.104c1.536 7.68 3.072 15.36 3.072 23.040 0 42.496-28.16 77.824-66.56 88.576 0 71.68 0 152.064 0 223.744 38.4 10.752 66.56 46.080 66.56 88.576 0 8.192-1.024 15.872-3.072 23.040l193.536 111.104c16.896-16.384 38.912-26.112 64-26.112s47.616 9.728 64 26.112l193.536-110.592c-1.536-7.68-3.072-15.36-3.072-23.040 0-42.496 28.16-77.824 66.56-88.576v-29.696h49.664v29.184c38.912 10.752 68.096 46.080 68.096 88.576 0 51.2-41.472 92.16-92.16 92.16-25.6 0-48.128-10.24-64.512-26.624l-193.536 111.104c2.048 7.68 3.072 15.36 3.072 23.552 0 51.2-41.472 92.16-92.16 92.16s-92.16-41.472-92.16-92.16c0-8.192 1.024-15.872 3.072-23.552l-193.024-111.104c-16.896 16.384-39.424 26.624-64.512 26.624-51.2 0-92.16-41.472-92.16-92.16 0-42.496 28.672-78.336 68.096-88.576v-223.232c-38.912-10.752-68.096-46.080-68.096-88.576 0-51.2 41.472-92.16 92.16-92.16 25.6 0 48.128 10.24 64.512 26.624l193.536-111.104c-2.048-7.68-3.072-15.36-3.072-23.552 0-51.2 41.472-92.16 92.16-92.16s92.16 41.472 92.16 92.16c0 8.192-1.024 15.872-3.072 23.552l19.968 11.264-22.016 43.52z" />
<glyph unicode="&#xe938;" glyph-name="yonghu" d="M1015.296 240.128l-48.64 13.312c-5.12 20.48-13.312 39.936-24.064 57.856l25.088 43.52c2.048 5.12 1.536 11.264-1.536 14.848l-36.352 36.352c-1.024 1.024-1.536 1.536-3.072 2.048-3.584 1.536-8.192 2.048-12.288 0l-43.52-25.088c-11.264 6.656-24.064 13.312-37.376 17.92-6.656 2.048-13.824 4.608-20.48 6.144l-13.312 48.64c-1.024 5.632-6.144 9.216-12.288 9.216h-51.2c-5.632 0-10.752-4.096-12.288-9.216l-13.312-48.64c-3.072-0.512-5.632-1.536-8.192-2.048-17.92-5.12-34.304-12.288-50.176-22.016l-43.52 25.088c-5.12 2.048-11.264 1.536-14.848-1.536l-36.352-36.352c-4.096-4.096-5.12-10.24-1.536-14.848l25.088-43.52c-10.752-17.92-18.944-37.376-24.064-57.856l-48.64-13.312c-5.632-1.024-9.216-6.144-9.216-12.288v-51.2c0-1.536 0-3.072 0.512-4.096 1.024-4.096 4.608-6.656 8.704-8.192l48.64-13.312c0.512-1.536 1.024-3.584 1.024-4.608 5.12-18.944 12.8-36.864 22.528-53.248l-19.456-33.792-5.632-9.728c-2.048-5.12-1.536-11.264 1.536-14.848l36.352-36.352c4.096-4.096 10.24-5.12 14.848-1.536l43.52 25.088c17.92-10.752 37.376-18.944 57.856-24.064l13.312-48.64c1.024-5.632 6.144-9.216 12.288-9.216h51.2c5.632 0 10.752 4.096 12.288 9.216l13.312 48.64c20.48 5.12 39.936 13.312 57.856 24.064l43.52-25.088c5.12-2.048 11.264-1.536 14.848 1.536l36.352 36.352c4.096 4.096 5.12 10.24 1.536 14.848l-24.576 44.032c10.752 17.92 18.944 37.376 24.064 57.856l48.64 13.312c5.632 1.024 9.216 6.144 9.216 12.288v51.2c1.536 4.096-2.56 9.216-8.192 11.264zM814.080 123.904c-14.848-9.728-32.256-15.36-51.2-15.36-31.232 0-57.856 14.848-75.264 37.888-5.632 8.192-10.752 17.408-13.824 27.136-3.072 9.216-4.608 18.432-4.608 28.16 0 9.216 1.024 18.432 4.096 27.136 11.264 38.4 47.104 66.56 89.6 66.56 0.512 0 1.536 0 2.048 0 27.648-0.512 52.224-13.312 69.12-32.768 13.824-15.872 22.528-37.376 22.528-60.416-0.512-32.768-16.896-61.44-42.496-78.336zM560.64 309.248l-33.792 57.856 71.68 72.704 61.952-31.744c9.728 4.608 19.968 8.704 30.208 11.264-56.832 71.168-137.728 120.32-229.376 136.704 79.36 28.672 134.656 103.424 134.656 193.536 0 113.664-91.136 205.312-205.312 205.312s-204.8-91.648-204.8-205.312c0-88.576 56.832-164.864 134.656-193.536-175.104-31.744-309.76-183.296-316.416-367.104h474.624l1.024 65.536 66.56 17.92c4.096 12.8 8.704 25.088 14.336 36.864z" />
<glyph unicode="&#xe939;" glyph-name="yonghuzu" d="M1015.296 272.384l-50.176 13.312c-5.12 20.992-13.824 41.472-24.576 59.392l26.112 44.544c2.56 5.12 1.536 11.776-1.536 15.36l-37.376 37.376c-1.024 1.024-1.536 1.536-3.072 2.56-3.584 1.536-8.192 2.56-12.288 0l-44.544-26.112c-11.776 7.168-24.576 13.312-38.4 18.432-3.072 1.024-5.12 1.536-8.192 2.56-4.096 1.024-8.704 3.072-12.8 4.096l-3.072 10.752-10.752 39.424c-1.024 6.144-6.656 9.216-12.288 9.216h-52.224c-6.144 0-11.264-4.096-12.288-9.216l-13.312-50.176c-3.072-0.512-6.144-1.536-8.192-2.56-18.432-5.12-35.328-12.288-51.2-22.528l-44.544 26.112c-5.12 2.56-11.776 1.536-15.36-1.536l-37.376-37.376c-4.096-4.096-5.12-10.752-1.536-15.36l26.112-44.544c-11.264-18.432-19.456-38.4-24.576-59.392l-50.176-13.312c-6.144-1.024-9.216-6.656-9.216-12.288v-52.224c0-1.536 0-3.072 0.512-4.096 1.024-4.096 4.608-7.168 8.704-8.192l14.336-4.096 35.84-9.216c0.512-1.536 1.024-3.584 1.024-4.608 5.12-19.456 12.8-37.888 23.040-54.784l-19.968-34.816-6.144-10.24c-2.56-5.12-1.536-11.776 1.536-15.36l37.376-37.376c4.096-4.096 10.752-5.12 15.36-1.536l44.544 26.112c18.432-11.264 38.4-19.456 59.392-24.576l13.312-50.176c1.024-6.144 6.656-9.216 12.288-9.216h52.224c6.144 0 11.264 4.096 12.288 9.216l13.312 50.176c20.992 5.12 41.472 13.312 59.392 24.576l44.544-26.112c5.12-2.56 11.776-1.536 15.36 1.536l37.376 37.376c4.096 4.096 5.12 10.752 1.536 15.36l-26.112 44.544c11.264 18.432 19.456 38.4 24.576 59.392l50.176 13.312c6.144 1.024 9.728 6.656 9.728 12.288v52.224c0 4.608-3.072 10.24-8.704 11.776zM842.24 192c-7.68-15.872-19.456-28.672-33.792-38.4-15.36-10.24-32.768-15.872-52.224-15.872-31.744 0-59.392 15.36-77.312 38.912-3.584 4.608-6.656 10.24-9.216 15.36-1.536 4.096-3.584 7.68-4.608 11.776-3.072 9.216-4.608 18.944-4.608 28.672 0 9.216 1.024 18.944 4.096 28.16 11.776 39.424 48.128 68.608 92.16 68.608 0.512 0 1.536 0 2.56 0 28.16 0 53.76-13.824 70.656-33.792 14.336-16.384 23.040-38.4 23.040-61.952-1.536-14.848-4.608-29.184-10.752-41.472zM418.816 547.328c-46.592 43.008-76.288 104.96-76.288 173.568 0 12.8 1.024 25.088 3.072 37.888 5.12 41.984 23.040 80.384 49.664 110.080 12.288 15.36 26.624 29.696 42.496 41.472-29.696 22.528-66.048 35.328-105.984 35.328-97.792 0-176.128-78.336-176.128-176.128 0-76.288 49.152-141.312 116.224-165.888-150.528-27.136-266.24-156.672-271.872-315.392h177.664c37.376 117.76 126.976 212.992 241.152 259.072zM541.696 355.84l-30.72 51.712 64 67.072 54.784-32.256 53.248 22.016 16.384 56.832c-5.12 2.56-10.24 4.608-16.384 6.144v0c-19.456 7.168-38.912 12.288-59.392 15.872 74.24 26.624 125.952 96.768 125.952 180.224 0 105.984-85.504 191.488-191.488 191.488-20.992 0-41.984-3.584-61.44-10.24-76.288-24.576-131.072-96.256-131.072-180.736 0-82.432 53.248-153.6 125.952-180.224-22.016-4.096-42.496-9.216-62.464-16.896 0 0 0.512 0 0.512-0.512-0.512 0-1.536 0-2.048 0.512-112.64-42.496-198.656-140.288-224.768-261.12-4.608-20.992-7.168-44.032-8.192-64.512h266.24v89.088l61.44 15.872 19.456 49.664z" />
</font>
</defs>
</svg>
